<?xml version="1.0" encoding="utf-8" standalone="no"?>
<!DOCTYPE svg PUBLIC "-//W3C//DTD SVG 1.1//EN"
  "http://www.w3.org/Graphics/SVG/1.1/DTD/svg11.dtd">
<!-- Created with matplotlib (https://matplotlib.org/) -->
<svg height="324.659202pt" version="1.1" viewBox="0 0 328.197062 324.659202" width="328.197062pt" xmlns="http://www.w3.org/2000/svg" xmlns:xlink="http://www.w3.org/1999/xlink">
 <metadata>
  <rdf:RDF xmlns:cc="http://creativecommons.org/ns#" xmlns:dc="http://purl.org/dc/elements/1.1/" xmlns:rdf="http://www.w3.org/1999/02/22-rdf-syntax-ns#">
   <cc:Work>
    <dc:type rdf:resource="http://purl.org/dc/dcmitype/StillImage"/>
    <dc:date>2021-06-25T12:40:26.711591</dc:date>
    <dc:format>image/svg+xml</dc:format>
    <dc:creator>
     <cc:Agent>
      <dc:title>Matplotlib v3.3.4, https://matplotlib.org/</dc:title>
     </cc:Agent>
    </dc:creator>
   </cc:Work>
  </rdf:RDF>
 </metadata>
 <defs>
  <style type="text/css">*{stroke-linecap:butt;stroke-linejoin:round;}</style>
 </defs>
 <g id="figure_1">
  <g id="patch_1">
   <path d="M 0 324.659202 
L 328.197062 324.659202 
L 328.197062 0 
L 0 0 
z
" style="fill:none;"/>
  </g>
  <g id="patch_2">
   <path d="M 9.140483 295.2 
L 297.140483 295.2 
L 297.140483 7.2 
L 9.140483 7.2 
z
" style="fill:#ffffff;"/>
  </g>
  <g id="pane3d_1">
   <g id="patch_3">
    <path d="M 30.886469 224.18843 
L 125.993474 144.467852 
L 124.671396 29.496527 
L 25.01303 102.222663 
" style="fill:#f2f2f2;opacity:0.5;stroke:#f2f2f2;stroke-linejoin:miter;"/>
   </g>
  </g>
  <g id="pane3d_2">
   <g id="patch_4">
    <path d="M 125.993474 144.467852 
L 278.606284 188.82637 
L 284.052497 69.89499 
L 124.671396 29.496527 
" style="fill:#e6e6e6;opacity:0.5;stroke:#e6e6e6;stroke-linejoin:miter;"/>
   </g>
  </g>
  <g id="pane3d_3">
   <g id="patch_5">
    <path d="M 30.886469 224.18843 
L 192.663501 277.024808 
L 278.606284 188.82637 
L 125.993474 144.467852 
" style="fill:#ececec;opacity:0.5;stroke:#ececec;stroke-linejoin:miter;"/>
   </g>
  </g>
  <g id="axis3d_1">
   <g id="line2d_1">
    <path d="M 30.886469 224.18843 
L 192.663501 277.024808 
" style="fill:none;stroke:#000000;stroke-linecap:square;stroke-width:2;"/>
   </g>
   <g id="Line3DCollection_1">
    <path d="M 37.386904 226.311472 
L 132.151717 146.257809 
L 131.089736 31.123389 
" style="fill:none;stroke:#b0b0b0;stroke-width:0.8;"/>
    <path d="M 108.359582 249.491148 
L 199.246113 165.759502 
L 201.08877 48.866104 
" style="fill:none;stroke:#b0b0b0;stroke-width:0.8;"/>
    <path d="M 182.778926 273.796506 
L 269.320221 186.127278 
L 274.335358 67.431979 
" style="fill:none;stroke:#b0b0b0;stroke-width:0.8;"/>
   </g>
   <g id="xtick_1">
    <g id="line2d_2">
     <path d="M 38.212036 225.614431 
L 35.733101 227.70854 
" style="fill:none;stroke:#000000;stroke-linecap:square;stroke-width:1.2;"/>
    </g>
    <g id="text_1">
     <!-- −20 -->
     <g transform="translate(7.2 263.97061)scale(0.24 -0.24)">
      <defs>
       <path d="M 52.875 31.203125 
L 5.515625 31.203125 
L 5.515625 39.40625 
L 52.875 39.40625 
z
" id="ArialUnicodeMS-8722"/>
       <path d="M 50.484375 0 
L 3.078125 0 
Q 3.078125 6.0625 7.296875 12.25 
Q 11.53125 18.453125 23.09375 27.78125 
Q 30.171875 33.453125 35.734375 39.671875 
Q 41.3125 45.90625 41.3125 52.203125 
Q 41.3125 57.625 37.46875 61.15625 
Q 33.640625 64.703125 27.78125 64.703125 
Q 21.875 64.703125 17.875 61.0625 
Q 13.875 57.421875 13.8125 50.203125 
L 4.78125 51.21875 
Q 5.609375 61.28125 11.9375 66.59375 
Q 18.265625 71.921875 27.984375 71.921875 
Q 38.53125 71.921875 44.40625 66.078125 
Q 50.296875 60.25 50.296875 52 
Q 50.296875 45.125 45.328125 38.0625 
Q 40.375 31 25.59375 19.1875 
Q 17.828125 12.984375 15.28125 8.5 
L 50.484375 8.5 
z
" id="ArialUnicodeMS-50"/>
       <path d="M 27.78125 71.921875 
Q 51.125 71.921875 51.125 35.296875 
Q 51.125 16.796875 45.09375 7.78125 
Q 39.0625 -1.21875 27.78125 -1.21875 
Q 4.5 -1.21875 4.5 35.296875 
Q 4.5 53.8125 10.515625 62.859375 
Q 16.546875 71.921875 27.78125 71.921875 
z
M 27.78125 6 
Q 34.859375 6 38.46875 12.859375 
Q 42.09375 19.734375 42.09375 35.296875 
Q 42.09375 46.140625 40.5 52.359375 
Q 38.921875 58.59375 35.71875 61.640625 
Q 32.515625 64.703125 27.6875 64.703125 
Q 20.609375 64.703125 17.046875 57.71875 
Q 13.484375 50.734375 13.484375 35.296875 
Q 13.484375 24.609375 15.09375 18.359375 
Q 16.703125 12.109375 19.875 9.046875 
Q 23.046875 6 27.78125 6 
z
" id="ArialUnicodeMS-48"/>
      </defs>
      <use xlink:href="#ArialUnicodeMS-8722"/>
      <use x="58.398438" xlink:href="#ArialUnicodeMS-50"/>
      <use x="114.013672" xlink:href="#ArialUnicodeMS-48"/>
     </g>
    </g>
   </g>
   <g id="xtick_2">
    <g id="line2d_3">
     <path d="M 109.152469 248.76068 
L 106.77033 250.95529 
" style="fill:none;stroke:#000000;stroke-linecap:square;stroke-width:1.2;"/>
    </g>
    <g id="text_2">
     <!-- 0 -->
     <g transform="translate(91.945835 287.744305)scale(0.24 -0.24)">
      <use xlink:href="#ArialUnicodeMS-48"/>
     </g>
    </g>
   </g>
   <g id="xtick_3">
    <g id="line2d_4">
     <path d="M 183.535425 273.030147 
L 181.262527 275.332668 
" style="fill:none;stroke:#000000;stroke-linecap:square;stroke-width:1.2;"/>
    </g>
    <g id="text_3">
     <!-- 20 -->
     <g transform="translate(159.803979 312.677952)scale(0.24 -0.24)">
      <use xlink:href="#ArialUnicodeMS-50"/>
      <use x="55.615234" xlink:href="#ArialUnicodeMS-48"/>
     </g>
    </g>
   </g>
  </g>
  <g id="axis3d_2">
   <g id="line2d_5">
    <path d="M 278.606284 188.82637 
L 192.663501 277.024808 
" style="fill:none;stroke:#000000;stroke-linecap:square;stroke-width:2;"/>
   </g>
   <g id="Line3DCollection_2">
    <path d="M 42.62752 89.368411 
L 47.644028 210.141912 
L 207.861508 261.427915 
" style="fill:none;stroke:#b0b0b0;stroke-width:0.8;"/>
    <path d="M 75.906259 65.083103 
L 79.365176 183.552616 
L 236.565768 231.970282 
" style="fill:none;stroke:#b0b0b0;stroke-width:0.8;"/>
    <path d="M 107.316665 42.161219 
L 109.379326 158.394161 
L 263.647651 204.177608 
" style="fill:none;stroke:#b0b0b0;stroke-width:0.8;"/>
   </g>
   <g id="xtick_4">
    <g id="line2d_6">
     <path d="M 206.511985 260.995929 
L 210.56401 262.292992 
" style="fill:none;stroke:#000000;stroke-linecap:square;stroke-width:1.2;"/>
    </g>
    <g id="text_4">
     <!-- −20 -->
     <g transform="translate(204.159868 295.947946)scale(0.24 -0.24)">
      <use xlink:href="#ArialUnicodeMS-8722"/>
      <use x="58.398438" xlink:href="#ArialUnicodeMS-50"/>
      <use x="114.013672" xlink:href="#ArialUnicodeMS-48"/>
     </g>
    </g>
   </g>
   <g id="xtick_5">
    <g id="line2d_7">
     <path d="M 235.24359 231.563053 
L 239.213412 232.785755 
" style="fill:none;stroke:#000000;stroke-linecap:square;stroke-width:1.2;"/>
    </g>
    <g id="text_5">
     <!-- 0 -->
     <g transform="translate(246.08128 265.965193)scale(0.24 -0.24)">
      <use xlink:href="#ArialUnicodeMS-48"/>
     </g>
    </g>
   </g>
   <g id="xtick_6">
    <g id="line2d_8">
     <path d="M 262.351926 203.793065 
L 266.242233 204.947623 
" style="fill:none;stroke:#000000;stroke-linecap:square;stroke-width:1.2;"/>
    </g>
    <g id="text_6">
     <!-- 20 -->
     <g transform="translate(266.050505 237.678221)scale(0.24 -0.24)">
      <use xlink:href="#ArialUnicodeMS-50"/>
      <use x="55.615234" xlink:href="#ArialUnicodeMS-48"/>
     </g>
    </g>
   </g>
  </g>
  <g id="axis3d_3">
   <g id="line2d_9">
    <path d="M 278.606284 188.82637 
L 284.052497 69.89499 
" style="fill:none;stroke:#000000;stroke-linecap:square;stroke-width:2;"/>
   </g>
   <g id="Line3DCollection_3">
    <path d="M 278.710628 186.547777 
L 125.968092 142.260563 
L 30.774126 221.855562 
" style="fill:none;stroke:#b0b0b0;stroke-width:0.8;"/>
    <path d="M 280.82742 140.322447 
L 125.453616 97.520335 
L 28.493489 174.496647 
" style="fill:none;stroke:#b0b0b0;stroke-width:0.8;"/>
    <path d="M 283.019166 92.460313 
L 124.92181 51.273204 
L 26.128944 125.395344 
" style="fill:none;stroke:#b0b0b0;stroke-width:0.8;"/>
   </g>
   <g id="xtick_7">
    <g id="line2d_10">
     <path d="M 277.428645 186.17607 
L 281.277643 187.292075 
" style="fill:none;stroke:#000000;stroke-linecap:square;stroke-width:1.2;"/>
    </g>
    <g id="text_7">
     <!-- 0 -->
     <g transform="translate(295.845405 200.336125)scale(0.24 -0.24)">
      <use xlink:href="#ArialUnicodeMS-48"/>
     </g>
    </g>
   </g>
   <g id="xtick_8">
    <g id="line2d_11">
     <path d="M 279.522291 139.962913 
L 283.440838 141.042387 
" style="fill:none;stroke:#000000;stroke-linecap:square;stroke-width:1.2;"/>
    </g>
    <g id="text_8">
     <!-- 20 -->
     <g transform="translate(291.693943 154.222003)scale(0.24 -0.24)">
      <use xlink:href="#ArialUnicodeMS-50"/>
      <use x="55.615234" xlink:href="#ArialUnicodeMS-48"/>
     </g>
    </g>
   </g>
   <g id="xtick_9">
    <g id="line2d_12">
     <path d="M 281.69004 92.114053 
L 285.680692 93.153687 
" style="fill:none;stroke:#000000;stroke-linecap:square;stroke-width:1.2;"/>
    </g>
    <g id="text_9">
     <!-- 40 -->
     <g transform="translate(294.304562 106.481123)scale(0.24 -0.24)">
      <defs>
       <path d="M 50.984375 17.09375 
L 41.3125 17.09375 
L 41.3125 0 
L 32.515625 0 
L 32.515625 17.09375 
L 1.515625 17.09375 
L 1.515625 25.203125 
L 34.078125 71.578125 
L 41.3125 71.578125 
L 41.3125 25.203125 
L 50.984375 25.203125 
z
M 32.515625 25.203125 
L 32.515625 57.515625 
L 32.328125 57.515625 
L 10.109375 25.203125 
z
" id="ArialUnicodeMS-52"/>
      </defs>
      <use xlink:href="#ArialUnicodeMS-52"/>
      <use x="55.615234" xlink:href="#ArialUnicodeMS-48"/>
     </g>
    </g>
   </g>
  </g>
  <g id="axes_1">
   <g id="line2d_13">
    <path clip-path="url(#p2a164cf2e9)" d="M 158.270489 205.546978 
L 158.485478 204.82388 
L 158.923057 204.235197 
L 159.575191 203.717135 
L 161.571957 202.702956 
L 176.302059 196.588596 
L 180.836224 194.416095 
L 186.242629 191.591556 
L 192.700977 187.910086 
L 200.300367 183.132517 
L 209.033015 176.983331 
L 218.800796 169.145153 
L 229.37184 159.332055 
L 240.12224 147.521634 
L 250.0524 134.094903 
L 257.764102 120.089024 
L 261.563394 107.211487 
L 260.098126 97.735138 
L 252.848293 93.374189 
L 240.421124 94.720425 
L 224.703728 100.665954 
L 207.875467 109.083193 
L 177.567548 125.557384 
L 165.605802 131.562013 
L 155.8143 135.923176 
L 147.893185 138.983371 
L 141.548129 141.09705 
L 132.423782 143.648236 
L 124.338672 145.749469 
L 115.822024 148.151135 
L 113.592049 148.331462 
L 112.517765 148.252709 
L 111.469453 148.052544 
L 110.453062 147.728428 
L 109.489095 147.279068 
L 108.599926 146.707571 
L 107.80622 146.023243 
L 107.126922 145.241608 
L 106.579245 144.384426 
L 106.178333 143.476605 
L 105.939295 142.545469 
L 105.874601 141.626917 
L 105.989042 140.753986 
L 106.279607 139.956368 
L 106.735487 139.260402 
L 107.338082 138.689053 
L 108.061069 138.261876 
L 108.877326 137.991236 
L 109.759942 137.883848 
L 110.680027 137.942159 
L 111.609435 138.162476 
L 112.520764 138.53498 
L 113.387359 139.043747 
L 114.183311 139.666765 
L 114.883448 140.375948 
L 115.473109 141.143096 
L 115.945949 141.952007 
L 116.289354 142.786287 
L 116.494766 143.628438 
L 116.557711 144.459861 
L 116.477797 145.260842 
L 116.258704 146.010538 
L 115.908195 146.686965 
L 115.438125 147.267046 
L 114.863017 147.745701 
L 114.191302 148.117743 
L 113.432253 148.367498 
L 112.599282 148.483233 
L 111.709954 148.457154 
L 110.786005 148.285418 
L 109.853357 147.968136 
L 108.942128 147.509398 
L 108.086154 146.917138 
L 107.305775 146.200178 
L 106.627534 145.37761 
L 106.080447 144.473985 
L 105.687307 143.516035 
L 105.464656 142.532665 
L 105.422755 141.554935 
L 105.565574 140.616039 
L 105.890782 139.751274 
L 106.3894 138.995828 
L 107.04155 138.377415 
L 107.821656 137.9172 
L 108.702469 137.629255 
L 109.655101 137.520554 
L 110.649042 137.590995 
L 111.652178 137.833418 
L 112.630792 138.233636 
L 113.552102 138.769978 
L 114.396024 139.418728 
L 115.141422 140.162471 
L 115.770354 140.982062 
L 116.269129 141.855958 
L 116.628291 142.760211 
L 116.842607 143.668452 
L 116.911064 144.551886 
L 116.83752 145.385784 
L 116.626584 146.164821 
L 116.27938 146.872424 
L 115.800511 147.492305 
L 115.198416 148.009799 
L 114.485373 148.411854 
L 113.677512 148.687033 
L 112.794831 148.825508 
L 111.858499 148.823865 
L 110.887803 148.681243 
L 109.908076 148.386173 
L 108.945613 147.934043 
L 108.02743 147.327721 
L 107.181254 146.577582 
L 106.435522 145.701522 
L 105.819359 144.724977 
L 105.362563 143.680931 
L 105.095582 142.609911 
L 105.037284 141.545247 
L 105.179633 140.521698 
L 105.512266 139.58542 
L 106.020988 138.773482 
L 106.68778 138.113827 
L 107.490811 137.625274 
L 108.40446 137.317534 
L 109.399325 137.191222 
L 110.442241 137.237908 
L 111.498544 137.452378 
L 112.53506 137.832778 
L 113.521339 138.367561 
L 114.430704 139.039754 
L 115.240244 139.826971 
L 115.930795 140.70142 
L 116.486927 141.629899 
L 116.897037 142.574088 
L 117.159721 143.514897 
L 117.272675 144.440554 
L 117.232672 145.331622 
L 117.0402 146.169499 
L 116.699461 146.936397 
L 116.218376 147.615336 
L 115.608588 148.190135 
L 114.885593 148.645948 
L 114.068547 148.981233 
L 113.169537 149.180977 
L 112.202119 149.227406 
L 111.184482 149.108933 
L 110.139465 148.820164 
L 109.094574 148.361922 
L 108.081996 147.741266 
L 107.138611 146.971517 
L 106.305994 146.072281 
L 105.625766 145.066888 
L 105.110347 143.976171 
L 104.781168 142.844476 
L 104.655607 141.716098 
L 104.74227 140.631325 
L 105.04098 139.626406 
L 105.542774 138.73352 
L 106.229918 137.98075 
L 107.076107 137.392437 
L 108.049815 136.993664 
L 109.114927 136.797904 
L 110.235053 136.808622 
L 111.374725 137.021532 
L 112.499412 137.424631 
L 113.575522 137.998224 
L 114.570399 138.714957 
L 115.452835 139.539965 
L 116.208923 140.441481 
L 116.825753 141.400093 
L 117.289322 142.396055 
L 117.590222 143.408153 
L 117.723634 144.413683 
L 117.689311 145.388439 
L 117.491581 146.306692 
L 117.139352 147.141176 
L 116.646135 147.869588 
L 116.022633 148.493711 
L 115.274517 148.996986 
L 114.411902 149.363006 
L 113.449879 149.578517 
L 112.408532 149.633409 
L 111.312961 149.520733 
L 110.193299 149.2367 
L 109.084346 148.780722 
L 108.011007 148.156501 
L 107.008038 147.372688 
L 106.114334 146.444161 
L 105.363993 145.392549 
L 104.786283 144.246242 
L 104.405597 143.040385 
L 104.241417 141.81687 
L 104.308286 140.624193 
L 104.610976 139.507908 
L 105.133551 138.512728 
L 105.852725 137.678645 
L 106.74122 137.035448 
L 107.767798 136.602738 
L 108.897291 136.389951 
L 110.090621 136.39639 
L 111.304842 136.611257 
L 112.500084 137.015977 
L 113.64197 137.594206 
L 114.698578 138.327142 
L 115.643229 139.191189 
L 116.45446 140.157967 
L 117.116009 141.194303 
L 117.616788 142.262227 
L 117.951694 143.324611 
L 118.120858 144.371382 
L 118.121494 145.383704 
L 117.953707 146.341347 
L 117.621156 147.225155 
L 117.13105 148.017035 
L 116.494162 148.699949 
L 115.724852 149.257955 
L 114.844381 149.68724 
L 113.866 149.972836 
L 112.80125 150.092483 
L 111.667592 150.030565 
L 110.488435 149.778132 
L 109.293159 149.332911 
L 108.117134 148.699339 
L 107.001744 147.888591 
L 105.994395 146.918613 
L 105.147093 145.813415 
L 104.481253 144.593577 
L 104.020705 143.305602 
L 103.790378 142.001471 
L 103.804558 140.729235 
L 104.066859 139.532963 
L 104.570217 138.452696 
L 105.296898 137.524401 
L 106.218825 136.780638 
L 107.300509 136.254948 
L 108.499227 135.964378 
L 109.771933 135.914049 
L 111.076575 136.099719 
L 112.372108 136.507818 
L 113.618501 137.115494 
L 114.776728 137.890654 
L 115.812448 138.792811 
L 116.710976 139.789504 
L 117.453748 140.859158 
L 118.025629 141.978751 
L 118.4166 143.123301 
L 118.62174 144.265858 
L 118.641215 145.377472 
L 118.480279 146.427177 
L 118.149312 147.382504 
L 117.66087 148.237352 
L 117.019359 148.983284 
L 116.231173 149.601422 
L 115.307698 150.075089 
L 114.265329 150.389798 
L 113.125485 150.533249 
L 111.914636 150.495331 
L 110.664026 150.268285 
L 109.399032 149.85091 
L 108.155499 149.239023 
L 106.97482 148.433718 
L 105.896892 147.446034 
L 104.960095 146.296991 
L 104.201257 145.017625 
L 103.655613 143.648992 
L 103.356759 142.242133 
L 103.329404 140.843477 
L 103.570397 139.511733 
L 104.065469 138.309124 
L 104.794164 137.284496 
L 105.729877 136.473319 
L 106.839891 135.897705 
L 108.085404 135.566429 
L 109.421561 135.474967 
L 110.799754 135.615883 
L 112.1732 135.987135 
L 113.498871 136.573518 
L 114.739388 137.352212 
L 115.863009 138.292839 
L 116.843599 139.357476 
L 117.660611 140.500659 
L 118.300114 141.674129 
L 118.758921 142.862685 
L 119.031698 144.045879 
L 119.115478 145.200276 
L 119.010932 146.303442 
L 118.722372 147.333931 
L 118.257746 148.271267 
L 117.628657 149.095947 
L 116.85473 149.799255 
L 115.945157 150.365745 
L 114.905321 150.771828 
L 113.74786 150.998539 
L 112.492694 151.031538 
L 111.167058 150.861117 
L 109.805533 150.482213 
L 108.450078 149.894435 
L 107.150069 149.102088 
L 105.954212 148.113168 
L 104.889018 146.944269 
L 104.003323 145.629834 
L 103.339411 144.210027 
L 102.929252 142.729782 
L 102.794427 141.238765 
L 102.946078 139.791317 
L 103.384881 138.446379 
L 104.100364 137.264667 
L 105.059157 136.295045 
L 106.218312 135.572454 
L 107.532566 135.119028 
L 108.954383 134.944144 
L 110.433994 135.044482 
L 111.91941 135.404088 
L 113.357956 135.994105 
L 114.710565 136.778915 
L 115.942739 137.73009 
L 117.025526 138.817219 
L 117.936967 140.00659 
L 118.662059 141.261169 
L 119.192735 142.540581 
L 119.527816 143.803358 
L 119.66887 145.034561 
L 119.615208 146.216408 
L 119.368757 147.327444 
L 118.934661 148.347461 
L 118.321281 149.257493 
L 117.540201 150.039802 
L 116.606495 150.678492 
L 115.539013 151.164618 
L 114.350089 151.475877 
L 113.056114 151.59063 
L 111.680465 151.493259 
L 110.253542 151.174181 
L 108.812811 150.629876 
L 107.402836 149.862918 
L 106.075315 148.882018 
L 104.880126 147.69967 
L 103.853728 146.340046 
L 103.048292 144.848736 
L 102.505222 143.275512 
L 102.253407 141.673517 
L 102.309141 140.099199 
L 102.676081 138.612234 
L 103.345436 137.275568 
L 104.294101 136.151988 
L 105.476581 135.285429 
L 106.842262 134.704009 
L 108.338977 134.422024 
L 109.913058 134.440016 
L 111.509356 134.744849 
L 113.071253 135.309784 
L 114.548198 136.094688 
L 115.905435 137.062623 
L 117.110535 138.181784 
L 118.13847 139.417645 
L 118.971665 140.732895 
L 119.599966 142.087415 
L 120.020626 143.438249 
L 120.236739 144.753709 
L 120.248885 146.023621 
L 120.058205 147.226041 
L 119.668924 148.340017 
L 119.088362 149.345829 
L 118.326927 150.224982 
L 117.398124 150.960192 
L 116.320151 151.539541 
L 115.108407 151.94658 
L 113.776456 152.155787 
L 112.345377 152.147553 
L 110.843908 151.908391 
L 109.30849 151.430957 
L 107.783313 150.71408 
L 106.320357 149.76281 
L 104.977096 148.58777 
L 103.793246 147.205502 
L 102.824516 145.658413 
L 102.121658 143.99762 
L 101.721966 142.278893 
L 101.649178 140.562593 
L 101.913403 138.913577 
L 102.511109 137.401108 
L 103.424842 136.09735 
L 104.610208 135.057669 
L 106.012815 134.318312 
L 107.576403 133.899933 
L 109.242905 133.80768 
L 110.952479 134.031282 
L 112.643524 134.545138 
L 114.258377 135.308239 
L 115.75661 136.279591 
L 117.101466 137.424514 
L 118.264328 138.705445 
L 119.224954 140.081735 
L 119.971445 141.509617 
L 120.500219 142.942178 
L 120.813543 144.346884 
L 120.911269 145.711911 
L 120.794736 147.014148 
L 120.46809 148.231804 
L 119.938278 149.344468 
L 119.215053 150.333098 
L 118.310999 151.180054 
L 117.244191 151.873715 
L 116.02524 152.392645 
L 114.665892 152.711888 
L 113.186056 152.8112 
L 111.613847 152.675044 
L 109.985636 152.292609 
L 108.346101 151.657834 
L 106.748277 150.769447 
L 105.244555 149.630748 
L 103.881175 148.258015 
L 102.724363 146.684868 
L 101.830383 144.955323 
L 101.243905 143.123559 
L 100.997886 141.253869 
L 101.113474 139.420578 
L 101.600339 137.706873 
L 102.443703 136.192096 
L 103.596696 134.942494 
L 105.006149 134.006142 
L 106.614774 133.412345 
L 108.361237 133.171724 
L 110.180199 133.276329 
L 112.002795 133.699704 
L 113.768548 134.403488 
L 115.42603 135.352817 
L 116.932102 136.509244 
L 118.25362 137.82905 
L 119.367386 139.263228 
L 120.2601 140.757455 
L 120.927448 142.261204 
L 121.366929 143.75905 
L 121.577674 145.22602 
L 121.561563 146.637073 
L 121.32315 147.969086 
L 120.869665 149.200839 
L 120.211013 150.313005 
L 119.362788 151.291529 
L 118.332462 152.117236 
L 117.125546 152.766315 
L 115.755179 153.217225 
L 114.242145 153.45068 
L 112.614914 153.449642 
L 110.909687 153.199329 
L 109.170438 152.687221 
L 107.440159 151.905959 
L 105.764982 150.853726 
L 104.211802 149.534791 
L 102.843658 147.969648 
L 101.719048 146.195301 
L 100.891821 144.265313 
L 100.411067 142.249819 
L 100.321187 140.232465 
L 100.641682 138.294723 
L 101.346907 136.537047 
L 102.399569 135.04256 
L 103.754371 133.87057 
L 105.35811 133.056634 
L 107.149744 132.612644 
L 109.060435 132.526981 
L 111.015147 132.784964 
L 112.941922 133.371757 
L 114.779091 134.254794 
L 116.475943 135.391176 
L 117.992657 136.727689 
L 119.300234 138.200805 
L 120.380536 139.740487 
L 121.22541 141.318908 
L 121.830155 142.910139 
L 122.193011 144.48388 
L 122.315474 146.012258 
L 122.202293 147.469811 
L 121.861472 148.83347 
L 121.307255 150.085305 
L 120.551594 151.211639 
L 119.592446 152.189452 
L 118.434291 152.996294 
L 117.089067 153.610873 
L 115.576187 154.013034 
L 113.922567 154.183759 
L 112.162657 154.105149 
L 110.338478 153.760428 
L 108.484815 153.141458 
L 106.646877 152.235839 
L 104.892069 151.032279 
L 103.286115 149.538712 
L 101.892948 147.782439 
L 100.774624 145.810213 
L 99.991206 143.688289 
L 99.60064 141.502424 
L 99.655273 139.345639 
L 100.153714 137.309212 
L 101.053284 135.503381 
L 102.3051 134.012079 
L 103.854856 132.89105 
L 105.642904 132.167957 
L 107.604296 131.842521 
L 109.668549 131.887884 
L 111.753665 132.292515 
L 113.782719 133.036591 
L 115.693233 134.079523 
L 117.43533 135.370536 
L 118.971645 136.848679 
L 120.277256 138.44281 
L 121.338969 140.088174 
L 122.150414 141.765398 
L 122.708958 143.442627 
L 123.015056 145.089523 
L 123.072217 146.678653 
L 122.887009 148.185473 
L 122.469577 149.588649 
L 121.837263 150.874716 
L 120.990182 152.023801 
L 119.928794 153.013346 
L 118.66068 153.821377 
L 117.20055 154.426493 
L 115.570264 154.807849 
L 113.798848 154.945145 
L 111.922531 154.81861 
L 109.979213 154.413199 
L 108.002946 153.71606 
L 106.055764 152.700461 
L 104.203837 151.358492 
L 102.515205 149.703459 
L 101.059731 147.770014 
L 99.909024 145.61427 
L 99.136323 143.313871 
L 98.816053 140.959424 
L 98.981171 138.637724 
L 99.60062 136.488128 
L 100.632608 134.624867 
L 102.028515 133.127277 
L 103.733003 132.0399 
L 105.684068 131.372621 
L 107.813059 131.100807 
L 110.035947 131.21297 
L 112.257803 131.723215 
L 114.401579 132.594893 
L 116.403997 133.77782 
L 118.215429 135.208472 
L 119.799797 136.809993 
L 121.134552 138.50014 
L 122.209298 140.249068 
L 123.019245 142.023924 
L 123.563121 143.79011 
L 123.843187 145.516486 
L 123.865236 147.175347 
L 123.638626 148.742424 
L 123.178592 150.201587 
L 122.48871 151.536061 
L 121.569679 152.724859 
L 120.427638 153.746941 
L 119.074165 154.581197 
L 117.52628 155.206436 
L 115.80645 155.601364 
L 113.942607 155.744567 
L 111.962483 155.623098 
L 109.900103 155.204278 
L 107.803464 154.451735 
L 105.729735 153.347763 
L 103.745333 151.893453 
L 101.925975 150.108852 
L 100.356686 148.033124 
L 99.131758 145.724711 
L 98.332351 143.244274 
L 98.000642 140.703556 
L 98.164479 138.242726 
L 98.826885 135.978961 
L 99.966039 134.00617 
L 101.535383 132.39484 
L 103.463839 131.192469 
L 105.658862 130.454166 
L 108.016379 130.204884 
L 110.4385 130.430754 
L 112.837012 131.09603 
L 115.133339 132.143254 
L 117.258472 133.493396 
L 119.155923 135.052782 
L 120.800079 136.766601 
L 122.173135 138.588027 
L 123.263264 140.470677 
L 124.065939 142.371041 
L 124.583925 144.248434 
L 124.827277 146.06495 
L 124.810085 147.796053 
L 124.537904 149.431372 
L 124.015177 150.951376 
L 123.248474 152.336768 
L 122.246487 153.568573 
L 121.020015 154.628125 
L 119.581956 155.497063 
L 117.951777 156.161446 
L 116.140174 156.590054 
L 114.159946 156.745039 
L 112.037667 156.595047 
L 109.813796 156.115223 
L 107.542798 155.287248 
L 105.293274 154.099407 
L 103.148084 152.546696 
L 101.191238 150.632276 
L 99.504601 148.392922 
L 98.19203 145.898024 
L 97.335838 143.233315 
L 96.994917 140.50047 
L 97.204461 137.816874 
L 97.976193 135.315385 
L 99.290094 133.135157 
L 101.064137 131.382355 
L 103.202098 130.127153 
L 105.604592 129.406326 
L 108.169212 129.223561 
L 110.790571 129.549751 
L 113.364674 130.324071 
L 115.808137 131.47721 
L 118.053105 132.944542 
L 120.049593 134.656708 
L 121.765669 136.539277 
L 123.187354 138.512666 
L 124.313609 140.510567 
L 125.143196 142.511206 
L 125.681216 144.482014 
L 125.934496 146.393957 
L 125.911397 148.222357 
L 125.621816 149.946884 
L 125.079662 151.551966 
L 124.291857 153.021641 
L 123.258068 154.336319 
L 121.982846 155.475257 
L 120.475733 156.416566 
L 118.751255 157.137199 
L 116.828915 157.612916 
L 114.733055 157.819246 
L 112.489689 157.73464 
L 110.133017 157.309999 
L 107.711964 156.504606 
L 105.290235 155.295696 
L 102.946471 153.67862 
L 100.774384 151.667048 
L 98.882828 149.293224 
L 97.382919 146.601411 
L 96.359878 143.683892 
L 95.895314 140.690974 
L 96.036415 137.764845 
L 96.794046 135.036955 
L 98.14271 132.627577 
L 100.021198 130.648273 
L 102.331849 129.213518 
L 104.947433 128.370302 
L 107.743774 128.1235 
L 110.603636 128.446076 
L 113.416708 129.27944 
L 116.079809 130.533725 
L 118.520841 132.105113 
L 120.694826 133.922396 
L 122.566032 135.921841 
L 124.113384 138.039445 
L 125.330385 140.210829 
L 126.225081 142.371133 
L 126.817209 144.464202 
L 127.115624 146.488098 
L 127.128455 148.42602 
L 126.864809 150.258162 
L 126.333728 151.966774 
L 125.544178 153.536172 
L 124.506223 154.952752 
L 123.23104 156.200525 
L 121.714775 157.255513 
L 119.959601 158.091272 
L 117.977061 158.679488 
L 115.788097 158.989938 
L 113.423094 158.990452 
L 110.921945 158.646882 
L 108.3286 157.933363 
L 105.701151 156.821646 
L 103.131193 155.263281 
L 100.71677 153.243769 
L 98.561282 150.784883 
L 96.773393 147.944997 
L 95.466831 144.81934 
L 94.760109 141.540096 
L 94.763205 138.233014 
L 95.455698 135.097562 
L 96.762949 132.344535 
L 98.604943 130.118519 
L 100.896578 128.498198 
L 103.547768 127.496765 
L 106.463407 127.06231 
L 109.515139 127.179575 
L 112.55235 127.866516 
L 115.462748 129.054325 
L 118.159472 130.654218 
L 120.580824 132.557464 
L 122.689818 134.637641 
L 124.467435 136.824402 
L 125.908907 139.074019 
L 127.016418 141.337163 
L 127.796805 143.572257 
L 128.261576 145.745441 
L 128.427099 147.831292 
L 128.308412 149.815172 
L 127.911695 151.681462 
L 127.243006 153.41403 
L 126.309117 154.996912 
L 125.117493 156.414322 
L 123.676256 157.650646 
L 121.995501 158.689807 
L 120.079945 159.50429 
L 117.92913 160.056994 
L 115.55661 160.310283 
L 112.99088 160.226174 
L 110.275505 159.766304 
L 107.469292 158.891927 
L 104.645618 157.564732 
L 101.883975 155.764385 
L 99.308276 153.477402 
L 97.050185 150.723221 
L 95.23516 147.5648 
L 93.982064 144.108893 
L 93.402695 140.506106 
L 93.590355 136.92482 
L 94.534699 133.586719 
L 96.171547 130.700993 
L 98.414315 128.413276 
L 101.154453 126.805864 
L 104.261767 125.898105 
L 107.581563 125.674036 
L 110.947552 126.119691 
L 114.221701 127.164755 
L 117.295698 128.71191 
L 120.090485 130.637863 
L 122.555793 132.795482 
L 124.665347 135.096142 
L 126.411937 137.486295 
L 127.7972 139.907357 
L 128.829209 142.310553 
L 129.522508 144.656865 
L 129.89752 146.918577 
L 129.97065 149.081168 
L 129.752103 151.129375 
L 129.251185 153.048723 
L 128.476452 154.825949 
L 127.435679 156.449009 
L 126.136167 157.906929 
L 124.584626 159.182829 
L 122.77306 160.251142 
L 120.699102 161.082229 
L 118.37124 161.642125 
L 115.808854 161.892475 
L 113.04228 161.790469 
L 110.112905 161.288776 
L 107.07011 160.350027 
L 103.993227 158.917926 
L 100.989909 156.938612 
L 98.182225 154.401308 
L 95.706735 151.338903 
L 93.714418 147.828519 
L 92.369578 143.98964 
L 91.801874 139.965107 
L 92.064597 136.017876 
L 93.162409 132.396583 
L 95.051327 129.292737 
L 97.639126 126.840257 
L 100.785791 125.119727 
L 104.30424 124.213403 
L 108.000445 124.122354 
L 111.705386 124.785834 
L 115.276168 126.09942 
L 118.59568 127.915427 
L 121.576031 130.059306 
L 124.179831 132.435366 
L 126.389455 134.960106 
L 128.199432 137.556752 
L 129.617416 140.159804 
L 130.664215 142.714915 
L 131.366146 145.189766 
L 131.740887 147.571149 
L 131.805295 149.842431 
L 131.574106 151.990189 
L 131.059933 154.00425 
L 130.273436 155.877682 
L 129.227849 157.602494 
L 127.915938 159.164505 
L 126.327214 160.545204 
L 124.457708 161.721457 
L 122.309929 162.66549 
L 119.892833 163.34484 
L 117.221781 163.722297 
L 114.318542 163.758064 
L 111.21005 163.405076 
L 107.938144 162.575551 
L 104.573486 161.199215 
L 101.216968 159.232303 
L 98.000184 156.657975 
L 95.085813 153.486891 
L 92.663986 149.755951 
L 90.901793 145.558187 
L 89.963404 141.121423 
L 89.959593 136.688648 
L 90.931571 132.496245 
L 92.850676 128.772572 
L 95.618691 125.748957 
L 99.050483 123.615898 
L 102.923854 122.431574 
L 107.028838 122.185651 
L 111.16885 122.803855 
L 115.160817 124.148989 
L 118.869484 126.046775 
L 122.212004 128.355225 
L 125.13276 130.947306 
L 127.608509 133.703811 
L 129.648203 136.513023 
L 131.274863 139.301797 
L 132.507276 142.042621 
L 133.371542 144.703115 
L 133.892216 147.259696 
L 134.092349 149.69762 
L 133.994807 152.010107 
L 133.614493 154.191021 
L 132.956509 156.232807 
L 132.024793 158.127616 
L 130.822229 159.867338 
L 129.350592 161.443619 
L 127.609529 162.844948 
L 125.587322 164.046122 
L 123.271449 165.01771 
L 120.658962 165.721933 
L 117.756684 166.112016 
L 114.581256 166.132071 
L 111.160774 165.723304 
L 107.546838 164.824141 
L 103.816176 163.325202 
L 100.079798 161.150169 
L 96.48489 158.265449 
L 93.215354 154.681015 
L 90.4921 150.451442 
L 88.545503 145.670323 
L 87.554325 140.578556 
L 87.651684 135.509998 
L 88.883084 130.768298 
L 91.205104 126.623335 
L 94.486094 123.317483 
L 98.498154 121.07403 
L 102.966826 119.94994 
L 107.638606 119.90731 
L 112.284972 120.831636 
L 116.702296 122.533263 
L 120.752554 124.793041 
L 124.359356 127.453562 
L 127.474212 130.376993 
L 130.084026 133.435436 
L 132.210944 136.5105 
L 133.900963 139.513346 
L 135.180045 142.434136 
L 136.081498 145.249395 
L 136.636727 147.941375 
L 136.873993 150.500864 
L 136.819145 152.92637 
L 136.489567 155.216465 
L 135.892065 157.368195 
L 135.03104 159.378742 
L 133.908705 161.245461 
L 132.525021 162.965867 
L 130.872518 164.529702 
L 128.933088 165.918998 
L 126.691182 167.11025 
L 124.135176 168.070461 
L 121.257318 168.757049 
L 118.058442 169.121916 
L 114.563678 169.114136 
L 110.772658 168.621815 
L 106.722784 167.539121 
L 102.501214 165.777528 
L 98.245835 163.266108 
L 94.146299 159.95216 
L 90.444928 155.802203 
L 87.415329 150.819549 
L 85.312026 145.203883 
L 84.38598 139.282988 
L 84.785281 133.406456 
L 86.54743 127.941239 
L 89.599572 123.275991 
L 93.720122 119.773998 
L 98.578155 117.585781 
L 103.854864 116.733734 
L 109.25158 117.128999 
L 114.492122 118.573748 
L 119.375715 120.806186 
L 123.774039 123.602219 
L 127.615724 126.758124 
L 130.888862 130.084595 
L 133.619967 133.439396 
L 135.837537 136.76204 
L 137.58559 139.997331 
L 138.908794 143.108765 
L 139.852929 146.078723 
L 140.462419 148.902146 
L 140.767917 151.576463 
L 140.795052 154.102778 
L 140.566028 156.486193 
L 140.099606 158.735861 
L 139.40634 160.8596 
L 138.481115 162.857116 
L 137.31533 164.727469 
L 135.898105 166.467421 
L 134.216218 168.071448 
L 132.253851 169.530185 
L 129.985938 170.821373 
L 127.381682 171.918179 
L 124.417193 172.779913 
L 121.076164 173.350122 
L 117.34983 173.556394 
L 113.242517 173.315706 
L 108.787441 172.523326 
L 104.036831 171.024233 
L 99.106244 168.684419 
L 94.180212 165.397287 
L 89.513908 161.084801 
L 85.423807 155.702895 
L 82.257036 149.36071 
L 80.397197 142.371159 
L 80.111333 135.141039 
L 81.529998 128.160659 
L 84.64579 122.004022 
L 89.210847 117.199368 
L 94.799353 114.013483 
L 100.999543 112.527301 
L 107.422057 112.648439 
L 113.704436 114.117015 
L 119.567248 116.597161 
L 124.836668 119.781465 
L 129.434676 123.376756 
L 133.363334 127.12794 
L 136.645717 130.907503 
L 139.333436 134.617236 
L 141.486908 138.191285 
L 143.173461 141.596929 
L 144.457416 144.821362 
L 145.394956 147.862089 
L 146.036293 150.724104 
L 146.426048 153.419572 
L 146.596824 155.960224 
L 146.568864 158.355139 
L 146.359469 160.61592 
L 145.983359 162.756902 
L 145.449157 164.791939 
L 144.751063 166.726293 
L 143.880563 168.565728 
L 142.825756 170.31527 
L 141.571098 171.978873 
L 140.094185 173.555207 
L 138.365906 175.040849 
L 136.353533 176.426021 
L 134.020544 177.692608 
L 131.32648 178.814127 
L 128.23608 179.749455 
L 124.703831 180.44374 
L 120.668559 180.832762 
L 116.1041 180.817001 
L 111.020991 180.260311 
L 105.467048 178.989258 
L 99.528214 176.792419 
L 93.350845 173.463649 
L 87.238874 168.783386 
L 81.600437 162.586215 
L 76.919362 154.913416 
L 73.754386 146.021003 
L 72.648664 136.369324 
L 73.877613 126.867869 
L 77.451551 118.424867 
L 83.122413 111.720422 
L 90.379739 107.243029 
L 98.505526 105.221794 
L 106.854031 105.466141 
L 114.909023 107.557543 
L 122.286447 110.887738 
L 128.810763 114.961022 
L 134.423908 119.405634 
L 139.148494 123.930092 
L 143.070027 128.34396 
L 146.281512 132.55682 
L 148.886409 136.515672 
L 150.985803 140.201228 
L 152.6766 143.617732 
L 154.038789 146.776254 
L 156.059881 152.389077 
L 159.989972 164.876664 
L 160.669119 166.451628 
L 161.419905 167.899918 
L 162.262412 169.220693 
L 163.218903 170.411014 
L 164.315039 171.466493 
L 165.579328 172.379894 
L 167.040446 173.137144 
L 168.730847 173.718888 
L 170.68864 174.100308 
L 172.957589 174.251138 
L 175.58256 174.134465 
L 178.614672 173.697099 
L 182.111877 172.87103 
L 186.119557 171.576891 
L 190.670677 169.7238 
L 195.786512 167.208981 
L 201.464169 163.927574 
L 207.634443 159.771012 
L 214.179495 154.630001 
L 220.851941 148.519492 
L 227.266252 141.585848 
L 232.897607 134.105525 
L 237.151056 126.54257 
L 239.359701 119.690971 
L 239.041073 114.280382 
L 235.978305 110.893041 
L 230.274852 109.958213 
L 222.546342 111.240654 
L 213.565802 114.190258 
L 204.096919 118.265312 
L 194.851141 122.868034 
L 186.336925 127.3732 
L 172.399499 135.110509 
L 167.013365 138.273823 
L 162.573871 141.058349 
L 158.951803 143.561775 
L 156.007746 145.869786 
L 153.614113 148.047509 
L 151.653951 150.142331 
L 150.020592 152.183236 
L 147.37639 156.149168 
L 142.833106 163.645322 
L 141.570902 165.398246 
L 140.180387 167.087262 
L 138.622698 168.700309 
L 136.864257 170.226819 
L 134.870925 171.652676 
L 132.605262 172.955491 
L 130.026554 174.104489 
L 127.099525 175.059137 
L 123.785914 175.771918 
L 120.05727 176.176048 
L 115.904173 176.180897 
L 111.336407 175.671618 
L 106.386059 174.516079 
L 101.143747 172.57943 
L 95.761473 169.645563 
L 90.467528 165.566091 
L 85.573004 160.286889 
L 81.473297 153.85146 
L 78.622579 146.399873 
L 77.395501 138.354682 
L 78.046202 130.380699 
L 80.632172 123.089855 
L 85.008559 117.022007 
L 90.815434 112.686032 
L 97.518074 110.308988 
L 104.610193 109.827644 
L 111.651384 111.003534 
L 118.272481 113.435702 
L 124.261801 116.710166 
L 129.513707 120.49664 
L 134.000053 124.518973 
L 137.764705 128.563962 
L 140.865856 132.522489 
L 143.378554 136.324462 
L 145.380139 139.928569 
L 146.948498 143.321724 
L 148.153863 146.504155 
L 149.05588 149.482964 
L 149.708082 152.270982 
L 150.156828 154.885504 
L 150.43476 157.340679 
L 150.567102 159.650123 
L 150.476023 163.891839 
L 149.978114 167.710543 
L 149.58423 169.486587 
L 149.091167 171.186429 
L 148.490397 172.816486 
L 147.770386 174.382748 
L 146.916598 175.890838 
L 145.910916 177.345207 
L 144.729777 178.748006 
L 143.345746 180.101235 
L 141.725892 181.402384 
L 139.831546 182.644125 
L 137.618204 183.814314 
L 135.04442 184.880737 
L 132.048242 185.819655 
L 128.553541 186.609133 
L 124.499835 187.18522 
L 119.842234 187.44133 
L 114.551336 187.227606 
L 108.613203 186.350045 
L 102.040384 184.581331 
L 94.969012 181.660632 
L 87.639025 177.207312 
L 80.45319 170.950877 
L 73.996275 162.766009 
L 69.026089 152.680504 
L 66.308884 141.137675 
L 66.469505 129.196239 
L 69.749302 117.985161 
L 75.966319 108.629762 
L 84.447964 102.172331 
L 94.212308 98.917439 
L 104.378174 98.679753 
L 114.199419 100.897143 
L 123.169821 104.755113 
L 131.043659 109.556601 
L 137.759627 114.736902 
L 143.39547 119.892981 
L 148.055571 124.83704 
L 151.875253 129.452154 
L 154.996922 133.693334 
L 157.558504 137.558246 
L 159.674945 141.062495 
L 166.971661 154.012907 
L 168.265135 155.829511 
L 169.632428 157.422681 
L 171.117664 158.797155 
L 172.751853 159.941689 
L 174.569941 160.844584 
L 176.608912 161.491571 
L 178.905226 161.864536 
L 181.489476 161.930067 
L 184.389132 161.645636 
L 187.624118 160.966903 
L 191.206919 159.847658 
L 195.136873 158.244937 
L 199.378219 156.115174 
L 203.890771 153.382908 
L 208.579202 150.025609 
L 213.285794 146.082168 
L 217.789641 141.65275 
L 221.805082 136.899211 
L 225.016101 132.042356 
L 227.098712 127.444383 
L 227.76558 123.494645 
L 226.856088 120.505873 
L 224.342031 118.712352 
L 220.345953 118.261442 
L 215.206121 119.030595 
L 209.321315 120.773801 
L 203.084551 123.230997 
L 196.876126 126.129971 
L 191.005103 129.179158 
L 185.668547 132.189956 
L 180.980467 135.059051 
L 176.967286 137.739719 
L 173.603192 140.237645 
L 170.84561 142.577815 
L 168.634107 144.785795 
L 166.904672 146.888074 
L 165.590978 148.906567 
L 164.634707 150.852792 
L 163.986321 152.734509 
L 163.602231 154.553234 
L 163.445001 156.304551 
L 163.490925 157.984743 
L 163.726305 159.590231 
L 164.140222 161.113194 
L 164.724364 162.5415 
L 165.477255 163.861796 
L 166.41019 165.06533 
L 167.536786 166.139247 
L 168.874217 167.066209 
L 170.443224 167.824455 
L 172.270124 168.389406 
L 174.389013 168.732678 
L 176.835277 168.817276 
L 179.644584 168.597202 
L 182.85301 168.017466 
L 186.496148 167.014708 
L 190.593381 165.521135 
L 195.171239 163.439432 
L 200.21456 160.684176 
L 205.651848 157.192765 
L 211.356242 152.924156 
L 217.14799 147.865633 
L 222.726367 142.118301 
L 227.673559 135.918242 
L 231.549373 129.619746 
L 233.88778 123.703747 
L 234.196653 118.806177 
L 232.313064 115.423077 
L 228.42449 113.717746 
L 222.811236 113.734944 
L 215.843826 115.395085 
L 208.046391 118.351561 
L 200.090133 121.997505 
L 192.468564 125.904976 
L 185.50591 129.703487 
L 179.369735 133.196879 
L 174.110918 136.368131 
L 169.707425 139.226654 
L 166.080806 141.830191 
L 163.130651 144.241496 
L 160.755837 146.510714 
L 158.858678 148.679735 
L 157.348483 150.778052 
L 156.144964 152.823593 
L 155.183092 154.826992 
L 153.760026 158.719391 
L 152.725151 162.451019 
L 150.928346 169.365865 
L 149.853399 172.534611 
L 148.481629 175.520362 
L 147.636855 176.947439 
L 146.658906 178.334114 
L 145.522753 179.681473 
L 144.198527 180.988326 
L 142.651625 182.250214 
L 140.843709 183.461949 
L 138.731181 184.619185 
L 136.264157 185.704971 
L 133.386288 186.688862 
L 130.034523 187.52683 
L 126.1602 188.149852 
L 121.698987 188.470986 
L 116.551129 188.391794 
L 110.685901 187.751545 
L 104.145478 186.324619 
L 97.046706 183.819125 
L 89.583588 179.875583 
L 82.066754 174.15416 
L 75.093695 166.411482 
L 69.397689 156.60023 
L 65.765071 145.085238 
L 64.998056 132.60968 
L 67.44762 120.511784 
L 72.930071 110.258675 
L 80.961109 102.757129 
L 90.748325 98.415327 
L 101.213547 97.345529 
L 111.491654 99.046274 
L 120.991359 102.680045 
L 129.398925 107.396432 
L 136.617352 112.628157 
L 142.672712 117.934725 
L 147.693019 123.031764 
L 151.814952 127.799676 
L 155.186925 132.183269 
L 157.949148 136.165765 
L 160.234509 139.765448 
L 163.817426 145.917854 
L 166.691578 150.854082 
L 168.047276 152.924295 
L 169.419109 154.744208 
L 170.857413 156.32312 
L 172.410874 157.668625 
L 174.116578 158.774429 
L 176.007377 159.626003 
L 178.117568 160.206586 
L 180.482856 160.497157 
L 183.132498 160.47222 
L 186.090858 160.08715 
L 189.37313 159.295207 
L 192.979946 158.052476 
L 196.89774 156.317608 
L 201.092659 154.057918 
L 205.485763 151.244225 
L 209.961873 147.857852 
L 214.355826 143.947501 
L 218.449903 139.632139 
L 221.971768 135.102215 
L 224.599815 130.618026 
L 226.060863 126.497198 
L 226.143356 123.092065 
L 224.747313 120.671024 
L 221.902658 119.401158 
L 217.774941 119.339217 
L 212.679111 120.365801 
L 207.000289 122.252068 
L 201.099509 124.743898 
L 195.303477 127.56612 
L 189.886298 130.450957 
L 184.997612 133.278055 
L 180.721378 135.97619 
L 177.084487 138.511058 
L 174.057169 140.888408 
L 171.592133 143.129979 
L 169.635557 145.255636 
L 168.129621 147.283998 
L 167.018961 149.230052 
L 166.249873 151.102394 
L 165.779785 152.904128 
L 165.576734 154.636583 
L 165.612816 156.29553 
L 165.864093 157.87116 
L 166.315157 159.351515 
L 166.965315 160.729352 
L 167.817729 161.994065 
L 168.878577 163.130277 
L 170.157018 164.11787 
L 171.669151 164.93519 
L 173.44031 165.560737 
L 175.497431 165.965895 
L 177.868943 166.114578 
L 180.584821 165.963253 
L 183.667762 165.46733 
L 187.141184 164.57189 
L 191.051855 163.189418 
L 195.406225 161.245734 
L 200.167675 158.682043 
L 205.257344 155.454169 
L 210.554848 151.53153 
L 215.897875 146.901948 
L 221.020921 141.66438 
L 225.547763 136.041506 
L 229.090323 130.347624 
L 231.25048 124.996394 
L 231.631975 120.510936 
L 230.075011 117.322049 
L 226.665985 115.632411 
L 221.623915 115.512716 
L 215.303826 116.893954 
L 208.219217 119.426312 
L 200.927995 122.653552 
L 193.870426 126.20584 
L 187.357972 129.735367 
L 181.568505 133.037796 
L 176.567311 136.087914 
L 172.352295 138.877041 
L 168.866346 141.442211 
L 166.029608 143.829491 
L 163.755488 146.080711 
L 161.958788 148.231175 
L 160.558239 150.30679 
L 159.483725 152.323602 
L 158.67589 154.291178 
L 158.082139 156.212389 
L 157.659732 158.086048 
L 157.210334 161.683669 
L 157.143521 165.056592 
L 157.363482 168.179063 
L 157.834228 171.029138 
L 158.568314 173.58864 
L 159.048616 174.752656 
L 159.617891 175.835684 
L 160.289352 176.833029 
L 161.078846 177.738368 
L 162.006615 178.543979 
L 163.095108 179.240858 
L 164.371587 179.815534 
L 165.869136 180.249558 
L 167.626632 180.519537 
L 169.688714 180.597164 
L 172.096954 180.447069 
L 174.913233 180.020359 
L 178.21496 179.252435 
L 182.067261 178.061446 
L 186.52339 176.348233 
L 191.625495 173.996077 
L 197.405653 170.870128 
L 203.883102 166.819512 
L 210.971023 161.713348 
L 218.498861 155.408965 
L 226.140204 147.921917 
L 233.376121 139.465767 
L 239.498585 130.448288 
L 243.69889 121.594466 
L 245.14397 113.992164 
L 243.316515 108.561056 
L 238.087265 106.003693 
L 229.911063 106.548581 
L 219.777178 109.508798 
L 208.708501 114.102821 
L 197.676158 119.547774 
L 178.38684 129.796868 
L 158.92647 140.333401 
L 154.610254 142.856335 
L 151.094857 145.108223 
L 148.219092 147.182297 
L 145.839593 149.146703 
L 143.824664 151.044355 
L 140.435806 154.701239 
L 137.380101 158.180715 
L 135.812317 159.832082 
L 134.142356 161.402068 
L 132.333923 162.873268 
L 130.350977 164.2237 
L 128.157716 165.424972 
L 125.720836 166.442458 
L 123.018472 167.236432 
L 120.035468 167.758188 
L 116.769962 167.947826 
L 113.234197 167.734069 
L 109.455503 167.038829 
L 105.49567 165.802176 
L 101.4571 163.891386 
L 97.478087 161.210493 
L 93.734653 157.728373 
L 90.441064 153.480003 
L 87.849949 148.567907 
L 86.237703 143.152308 
L 85.779887 137.513828 
L 86.556662 132.089527 
L 88.558686 127.245096 
L 91.683857 123.256545 
L 95.738357 120.313547 
L 100.43192 118.586365 
L 105.4485 118.09035 
L 110.514501 118.724975 
L 115.401112 120.308928 
L 119.923602 122.58218 
L 123.972516 125.308615 
L 127.504433 128.336825 
L 130.500844 131.527867 
L 132.972193 134.765548 
L 134.957722 137.956301 
L 136.502533 141.052875 
L 137.644146 144.036205 
L 138.42126 146.888295 
L 138.86856 149.599633 
L 139.016862 152.169237 
L 138.892169 154.600402 
L 138.506952 156.893666 
L 137.868443 159.049773 
L 136.981109 161.070191 
L 135.846609 162.957146 
L 134.460392 164.7091 
L 132.805067 166.315307 
L 130.862271 167.761781 
L 128.613962 169.026568 
L 126.04231 170.079622 
L 123.134495 170.8834 
L 119.886234 171.385973 
L 116.269655 171.509901 
L 112.290637 171.167589 
L 107.995855 170.26256 
L 103.473501 168.689299 
L 98.854174 166.333266 
L 94.311056 163.072741 
L 90.062569 158.853098 
L 86.433755 153.695309 
L 83.743575 147.726901 
L 82.270126 141.209813 
L 82.248401 134.539002 
L 83.820809 128.196029 
L 86.842151 122.721294 
L 91.066183 118.514618 
L 96.205986 115.781876 
L 101.935358 114.539049 
L 107.872343 114.695645 
L 113.67056 116.073906 
L 119.086929 118.414393 
L 123.972156 121.405376 
L 128.258317 124.74025 
L 131.925236 128.268408 
L 134.990658 131.852537 
L 137.492294 135.390168 
L 139.48649 138.815782 
L 141.031501 142.097991 
L 142.180873 145.22109 
L 142.983635 148.178202 
L 143.483668 150.971447 
L 143.719311 153.61002 
L 143.715617 156.101077 
L 143.489507 158.451994 
L 143.054435 160.672198 
L 142.420306 162.773124 
L 141.587196 164.762044 
L 140.544823 166.641157 
L 139.279815 168.411287 
L 137.775231 170.070733 
L 136.010584 171.614523 
L 133.958892 173.028684 
L 131.584917 174.296934 
L 128.854977 175.390012 
L 125.737976 176.263148 
L 122.205271 176.855913 
L 118.233155 177.092712 
L 113.818761 176.875857 
L 108.966882 176.06747 
L 103.739436 174.516664 
L 98.265415 172.06342 
L 92.742679 168.538771 
L 87.429159 163.806481 
L 82.727843 157.812246 
L 79.092536 150.643805 
L 76.932545 142.600656 
L 76.60748 134.195083 
L 78.386514 126.089502 
L 82.075927 119.076423 
L 87.302122 113.754113 
L 93.670743 110.399874 
L 100.766822 108.980486 
L 108.06685 109.350699 
L 115.100902 111.239337 
L 121.574059 114.246859 
L 127.33293 117.914897 
L 132.320627 121.913895 
L 136.544437 126.038706 
L 140.050457 130.125233 
L 142.914688 134.069816 
L 145.221786 137.821987 
L 147.052938 141.359079 
L 148.48467 144.674007 
L 149.587189 147.773712 
L 150.41949 150.670104 
L 151.030878 153.377443 
L 151.46427 155.912766 
L 151.921342 160.529693 
L 151.973263 164.635075 
L 151.717492 168.325025 
L 151.187988 171.677753 
L 150.366272 174.754381 
L 149.192158 177.607403 
L 148.441246 178.963326 
L 147.557562 180.277807 
L 146.518858 181.554046 
L 145.298857 182.792513 
L 143.865089 183.984723 
L 142.181384 185.141258 
L 140.205458 186.263861 
L 137.888145 187.339584 
L 135.173231 188.340749 
L 131.997223 189.224872 
L 128.289062 189.934528 
L 123.975746 190.395416 
L 119.017376 190.496114 
L 113.318371 190.093665 
L 106.852867 188.984719 
L 99.69561 186.897243 
L 92.024896 183.488992 
L 84.126113 178.350929 
L 76.464823 171.166092 
L 69.814005 161.728098 
L 65.018299 150.215433 
L 62.937384 137.300981 
L 64.291898 124.094004 
L 69.018715 112.316869 
L 76.640252 103.285102 
L 86.436611 97.589599 
L 97.358053 95.38362 
L 108.315 96.353708 
L 118.580677 99.688043 
L 127.741282 104.382258 
L 135.648198 109.745373 
L 142.303886 115.264991 
L 147.82522 120.598201 
L 152.362921 125.58131 
L 156.077332 130.15046 
L 159.12145 134.282335 
L 163.7566 141.312488 
L 168.726951 149.220186 
L 170.207053 151.264504 
L 171.700876 153.03825 
L 173.258426 154.548306 
L 174.929446 155.801301 
L 176.757706 156.797561 
L 178.77418 157.520415 
L 181.008075 157.949592 
L 183.487517 158.063472 
L 186.238659 157.839355 
L 189.273343 157.246384 
L 192.597588 156.234682 
L 196.196592 154.764522 
L 200.030442 152.810445 
L 204.034397 150.360875 
L 208.119031 147.418698 
L 212.137513 144.02116 
L 215.888671 140.26059 
L 219.155314 136.28368 
L 221.703459 132.293241 
L 223.280122 128.551224 
L 223.659192 125.365752 
L 222.780778 122.957379 
L 220.677024 121.464446 
L 217.452564 120.956292 
L 213.286706 121.429624 
L 208.440492 122.766116 
L 203.251263 124.715616 
L 198.022613 127.103007 
L 192.999022 129.740641 
L 188.363336 132.42423 
L 184.233271 134.971559 
L 180.653153 137.400166 
L 177.627992 139.703903 
L 175.141394 141.88028 
L 173.156422 143.943788 
L 171.62183 145.914813 
L 170.492343 147.797456 
L 169.725615 149.598497 
L 169.283857 151.319866 
L 169.133913 152.958349 
L 169.247541 154.505502 
L 169.610066 155.954651 
L 170.214748 157.297618 
L 171.057468 158.520496 
L 172.136674 159.603663 
L 173.454961 160.523277 
L 175.02853 161.25959 
L 176.876818 161.788162 
L 179.019031 162.077743 
L 181.474444 162.090579 
L 184.260889 161.783818 
L 187.38 161.123061 
L 190.864496 160.036687 
L 194.724298 158.457906 
L 198.929519 156.33941 
L 203.410981 153.652847 
L 208.060646 150.388191 
L 212.731803 146.553014 
L 217.239008 142.192941 
L 221.295165 137.484621 
L 224.574443 132.678767 
L 226.774683 128.073896 
L 227.615301 124.020878 
L 226.860599 120.929028 
L 224.524836 119.015202 
L 220.781013 118.320622 
L 215.877999 118.820461 
L 210.140915 120.419653 
L 203.976472 122.825747 
L 197.795617 125.682335 
L 191.911863 128.74244 
L 186.53518 131.784488 
L 181.77751 134.655147 
L 177.681508 137.349779 
L 174.239466 139.863339 
L 171.414039 142.212083 
L 169.14217 144.431502 
L 167.3579 146.544341 
L 165.998289 148.569447 
L 165.005159 150.52064 
L 164.325865 152.40488 
L 163.915149 154.223312 
L 163.742139 155.976259 
L 163.781958 157.660389 
L 164.013676 159.267822 
L 164.422025 160.787375 
L 165.005071 162.21147 
L 165.766233 163.531235 
L 166.71218 164.733953 
L 167.852944 165.803128 
L 169.205354 166.720868 
L 170.793641 167.46896 
L 172.645125 168.022864 
L 174.790293 168.351014 
L 177.262813 168.414856 
L 180.082435 168.179105 
L 183.290973 167.587422 
L 186.954566 166.554782 
L 191.102595 165.002899 
L 195.727838 162.860237 
L 200.787409 160.061386 
L 206.203768 156.546119 
L 211.865662 152.258069 
L 217.606301 147.174002 
L 223.090192 141.426181 
L 227.907913 135.255944 
L 231.618261 129.029819 
L 233.741161 123.250136 
L 233.859087 118.513831 
L 231.843505 115.271477 
L 227.769448 113.780361 
L 221.90551 114.101986 
L 214.731684 116.031394 
L 206.899513 119.070874 
L 198.992099 122.781233 
L 191.466905 126.715498 
L 184.642994 130.444614 
L 178.663638 133.862247 
L 173.561626 136.960742 
L 169.306665 139.755532 
L 165.810009 142.311547 
L 162.971629 144.687171 
L 160.692033 146.929926 
L 158.87529 149.079033 
L 157.432347 151.161417 
L 156.286637 153.193311 
L 155.375065 155.184174 
L 154.036594 159.050423 
L 153.080416 162.753329 
L 151.469388 169.600359 
L 150.524854 172.731744 
L 149.324895 175.679087 
L 148.58708 177.087889 
L 147.733157 178.457482 
L 146.740599 179.789655 
L 145.582669 181.084636 
L 144.228441 182.340119 
L 142.644139 183.556197 
L 140.790552 184.730132 
L 138.62133 185.8502 
L 136.082833 186.895654 
L 133.115092 187.835673 
L 129.669332 188.612926 
L 125.654338 189.185059 
L 120.991516 189.472721 
L 115.637759 189.33867 
L 109.585626 188.586772 
L 102.863804 186.960691 
L 95.54674 184.158432 
L 87.870102 179.856654 
L 80.247561 173.644291 
L 73.268834 165.31897 
L 67.710176 154.93447 
L 64.467241 142.823079 
L 64.244058 130.035228 
L 67.366047 117.952996 
L 73.679413 107.791877 
L 82.530838 100.625593 
L 92.844592 96.966795 
L 103.616474 96.599049 
L 114.026201 98.898201 
L 123.50636 102.941913 
L 131.808294 107.975813 
L 138.846525 113.420632 
L 144.71807 118.805531 
L 149.580041 123.888208 
L 153.564945 128.603061 
L 156.824143 132.904505 
L 159.502711 136.793798 
L 163.62358 143.430764 
L 166.781458 148.73291 
L 168.214238 150.952644 
L 169.628953 152.9046 
L 171.07963 154.599974 
L 172.61953 156.049898 
L 174.292423 157.255685 
L 176.131439 158.204784 
L 178.1702 158.882246 
L 180.443184 159.271248 
L 182.982358 159.352105 
L 185.809773 159.088304 
L 188.941929 158.434553 
L 192.380586 157.349684 
L 196.112615 155.796663 
L 200.109178 153.744419 
L 204.301594 151.180524 
L 208.582474 148.079737 
L 212.806374 144.469416 
L 216.785207 140.444407 
L 220.286304 136.168171 
L 223.030076 131.874766 
L 224.694181 127.869639 
L 225.065511 124.471179 
L 224.072424 121.929866 
L 221.731834 120.412954 
L 218.16124 119.997366 
L 213.58202 120.662499 
L 208.324942 122.20519 
L 202.757073 124.395426 
L 197.195515 127.016848 
L 191.897589 129.833707 
L 187.056552 132.600098 
L 182.774548 135.241004 
L 179.084892 137.749457 
L 175.989558 140.110218 
L 173.459367 142.332644 
L 171.438747 144.444915 
L 169.875465 146.459032 
L 168.718389 148.386831 
L 167.920073 150.236589 
L 167.437918 152.011184 
L 167.23429 153.707787 
L 167.284511 155.323078 
L 167.572309 156.85179 
L 168.084924 158.283622 
L 168.813053 159.60324 
L 169.756002 160.794301 
L 170.924675 161.843351 
L 172.332626 162.73183 
L 173.996285 163.435537 
L 175.934861 163.924728 
L 178.169667 164.167553 
L 180.733593 164.124634 
L 183.655354 163.749079 
L 186.954098 162.988706 
L 190.639692 161.785931 
L 194.71308 160.077561 
L 199.152713 157.808113 
L 203.904276 154.915677 
L 208.875037 151.354515 
L 213.901918 147.14807 
L 218.750255 142.389183 
L 223.112452 137.240142 
L 226.650783 131.93974 
L 228.971822 126.910056 
L 229.75126 122.574312 
L 228.798655 119.289746 
L 226.061941 117.352509 
L 221.692794 116.929362 
L 216.093234 117.819972 
L 209.700716 119.757286 
L 202.953668 122.466807 
L 196.27619 125.64622 
L 189.998644 128.934783 
L 184.335248 132.137682 
L 179.389703 135.145666 
L 175.167957 137.9234 
L 171.644659 140.493327 
L 168.7622 142.887037 
L 166.447934 145.141607 
L 164.624286 147.289165 
L 163.218439 149.353658 
L 162.16379 151.350983 
L 161.401241 153.289244 
L 160.886202 155.173214 
L 160.580742 157.003343 
L 160.451581 158.775223 
L 160.473866 160.482465 
L 160.635308 162.1217 
L 160.927313 163.687766 
L 161.34427 165.173183 
L 161.885433 166.569566 
L 162.558095 167.871011 
L 163.372963 169.069731 
L 164.343959 170.155067 
L 165.488552 171.113542 
L 166.83055 171.930663 
L 168.398192 172.589155 
L 170.224221 173.065001 
L 172.346089 173.327268 
L 174.805949 173.33815 
L 177.64097 173.055606 
L 180.906673 172.419042 
L 184.666985 171.34937 
L 188.960642 169.761005 
L 193.801811 167.56161 
L 199.181091 164.651495 
L 205.06669 160.922599 
L 211.371793 156.288568 
L 217.881348 150.70847 
L 224.282441 144.238504 
L 230.141563 137.109217 
L 234.896712 129.73064 
L 237.906938 122.684988 
L 238.644432 116.73633 
L 236.788209 112.565935 
L 232.323284 110.590082 
L 225.57276 110.928525 
L 217.233708 113.231246 
L 208.097577 116.887343 
L 198.886061 121.260855 
L 190.20875 125.731874 
L 182.409497 129.932768 
L 169.940202 137.014543 
L 165.195083 139.93181 
L 161.30532 142.540987 
L 158.142767 144.926115 
L 155.577919 147.16048 
L 153.488365 149.295291 
L 151.772351 151.365043 
L 150.33679 153.391418 
L 147.97879 157.340856 
L 144.880331 163.001969 
L 142.578845 166.542345 
L 141.251759 168.225401 
L 139.76089 169.83949 
L 138.068654 171.372131 
L 136.140032 172.810972 
L 133.939236 174.140287 
L 131.427605 175.333568 
L 128.563529 176.353233 
L 125.309521 177.149595 
L 121.631249 177.659551 
L 117.492623 177.800488 
L 112.892283 177.462503 
L 107.865408 176.507712 
L 102.484441 174.769756 
L 96.865241 172.073371 
L 91.232285 168.244119 
L 85.911678 163.116061 
L 81.292575 156.680107 
L 77.82643 149.095943 
L 76.011621 140.654553 
L 76.162668 131.998124 
L 78.33169 124.0144 
L 82.405352 117.340591 
L 88.110318 112.344597 
L 94.987928 109.250714 
L 102.416118 108.237108 
L 109.878896 109.093601 
L 116.97858 111.438007 
L 123.432325 114.739401 
L 129.112117 118.598001 
L 133.988369 122.739202 
L 138.084306 126.938169 
L 141.470164 131.046806 
L 144.226641 134.987305 
L 146.440369 138.715611 
L 148.195643 142.214121 
L 149.572262 145.484451 
L 150.636711 148.534883 
L 151.44797 151.378791 
L 152.058843 154.034351 
L 152.833039 158.846503 
L 153.193811 163.092996 
L 153.284945 166.877664 
L 153.184461 170.283665 
L 152.922686 173.375223 
L 152.498283 176.205601 
L 151.880631 178.818263 
L 151.013187 181.253244 
L 149.805922 183.546039 
L 149.035518 184.648956 
L 148.124543 185.722646 
L 147.050546 186.776234 
L 145.785328 187.816343 
L 144.293073 188.84349 
L 142.530275 189.852092 
L 140.445626 190.830465 
L 137.979873 191.760807 
L 135.067353 192.617257 
L 131.662257 193.333819 
L 127.650614 193.890489 
L 122.924552 194.229607 
L 117.415771 194.218503 
L 111.095566 193.648315 
L 103.975188 192.232312 
L 96.106608 189.60371 
L 87.644739 185.372362 
L 79.031039 179.067769 
L 70.919598 170.288928 
L 64.197735 158.980288 
L 59.960434 145.445982 
L 59.172029 130.744322 
L 62.331422 116.628614 
L 69.31695 104.676924 
L 79.356381 96.256004 
L 91.115016 92.044509 
L 103.344241 91.747209 
L 115.049892 94.534587 
L 125.597137 99.238539 
L 134.726437 104.944114 
L 142.390861 110.950705 
L 148.75784 116.728607 
L 153.995496 122.087074 
L 158.278698 126.953009 
L 161.784193 131.300188 
L 167.115461 138.55324 
L 171.04785 144.132193 
L 172.766049 146.387328 
L 174.430534 148.326078 
L 176.094805 149.958541 
L 177.811436 151.293872 
L 179.631853 152.342044 
L 181.599369 153.107376 
L 183.738351 153.573374 
L 186.068687 153.721713 
L 188.605144 153.536131 
L 191.357333 153.002435 
L 194.317928 152.106478 
L 197.463671 150.816763 
L 200.75152 149.116591 
L 204.112766 147.014012 
L 207.452935 144.541662 
L 210.652757 141.755615 
L 213.575381 138.732249 
L 216.029562 135.618455 
L 217.838438 132.579994 
L 218.85715 129.78675 
L 218.972794 127.413808 
L 218.104971 125.648261 
L 216.276335 124.609097 
L 213.62218 124.276689 
L 210.303215 124.608511 
L 206.501417 125.545064 
L 202.41882 127.009649 
L 198.268632 128.847126 
L 194.241508 130.887286 
L 190.484253 133.031259 
L 187.095765 135.19246 
L 184.126769 137.297092 
L 181.595959 139.314745 
L 179.504519 141.249229 
L 177.83706 143.093862 
L 176.572152 144.847239 
L 175.682596 146.51306 
L 175.136903 148.08966 
L 174.911407 149.571021 
L 174.988042 150.952429 
L 175.351258 152.224078 
L 175.98801 153.371058 
L 176.887692 154.373368 
L 178.04454 155.209585 
L 179.467432 155.862325 
L 181.165948 156.310127 
L 183.146013 156.526013 
L 185.409953 156.477481 
L 187.956565 156.12649 
L 190.778837 155.435227 
L 193.863814 154.378981 
L 197.200842 152.908587 
L 200.748562 150.995983 
L 204.431841 148.63977 
L 208.14172 145.864968 
L 211.735135 142.72288 
L 215.041117 139.289713 
L 217.872131 135.704985 
L 219.992885 132.18982 
L 221.211321 128.960249 
L 221.389221 126.22131 
L 220.443226 124.167989 
L 218.360037 122.987216 
L 215.296058 122.675304 
L 211.46871 123.141978 
L 207.108901 124.285828 
L 202.459169 125.994208 
L 197.767809 128.118017 
L 193.252823 130.433914 
L 189.076882 132.819335 
L 185.344206 135.184448 
L 182.100184 137.464103 
L 179.350824 139.633805 
L 177.087918 141.700841 
L 175.284397 143.666427 
L 173.908113 145.535944 
L 172.92207 147.318177 
L 172.287357 149.01327 
L 171.975438 150.620642 
L 171.962869 152.137312 
L 172.229574 153.554794 
L 172.758807 154.859088 
L 173.537863 156.031365 
L 174.567516 157.056644 
L 175.856965 157.920321 
L 177.415413 158.601075 
L 179.251901 159.070742 
L 181.375317 159.294333 
L 183.793656 159.233378 
L 186.520638 158.854754 
L 189.573936 158.109141 
L 192.950638 156.951238 
L 196.625842 155.342289 
L 200.552995 153.24977 
L 204.664236 150.647194 
L 208.860671 147.534903 
L 212.976459 143.956266 
L 216.809815 140.007729 
L 220.131386 135.847952 
L 222.681943 131.699838 
L 224.181302 127.850367 
L 224.441386 124.602828 
L 223.392532 122.195929 
L 221.054806 120.783951 
L 217.54177 120.432239 
L 213.063848 121.108031 
L 207.941836 122.616604 
L 202.5254 124.751568 
L 197.116202 127.30474 
L 191.961503 130.047956 
L 187.249544 132.745253 
L 183.078184 135.333024 
L 179.481882 137.79771 
L 176.464805 140.12251 
L 174.00031 142.314608 
L 172.035449 144.399895 
L 170.520938 146.388602 
L 169.408501 148.290871 
L 168.6532 150.113741 
L 168.214755 151.859151 
L 168.057411 153.523455 
L 168.157384 155.102122 
L 168.500379 156.589575 
L 169.075464 157.975043 
L 169.874959 159.242527 
L 170.897396 160.373152 
L 172.154609 161.351886 
L 173.661362 162.159112 
L 175.434654 162.769141 
L 177.493777 163.150288 
L 179.857513 163.267943 
L 182.553476 163.081517 
L 185.612793 162.538734 
L 189.05025 161.585971 
L 192.864299 160.168345 
L 197.037487 158.229426 
L 201.536327 155.71194 
L 206.284777 152.583503 
L 211.150696 148.822738 
L 215.945998 144.473527 
L 220.420361 139.664163 
L 224.258557 134.608839 
L 227.096946 129.602553 
L 228.611827 125.03717 
L 228.546991 121.328343 
L 226.792987 118.782394 
L 223.399372 117.586824 
L 218.588735 117.785857 
L 212.769572 119.181928 
L 206.383992 121.481483 
L 199.846477 124.369577 
L 193.534757 127.515446 
L 187.714275 130.664482 
L 182.529913 133.690074 
L 178.05229 136.5226 
L 174.272765 139.149528 
L 171.144026 141.59568 
L 168.607505 143.891189 
L 166.593894 146.066133 
L 165.032285 148.147331 
L 163.855741 150.152756 
L 163.006756 152.093803 
L 162.434869 153.975498 
L 162.096645 155.796771 
L 161.962749 157.556376 
L 162.011661 159.251288 
L 162.225175 160.874618 
L 162.589129 162.416142 
L 163.101244 163.86871 
L 163.765615 165.22563 
L 164.589204 166.476953 
L 165.58213 167.609576 
L 166.760174 168.608748 
L 168.146176 169.460013 
L 169.766688 170.143694 
L 171.652361 170.633847 
L 173.83794 170.898301 
L 176.350544 170.904705 
L 179.235523 170.606165 
L 182.560977 169.931239 
L 186.370829 168.805198 
L 190.684788 167.150189 
L 195.499143 164.884852 
L 200.787731 161.923648 
L 206.503021 158.175805 
L 212.555944 153.562036 
L 218.699865 148.092079 
L 224.59654 141.867958 
L 229.820912 135.145434 
L 233.850781 128.344007 
L 236.113636 122.032553 
L 236.207991 116.895914 
L 233.954781 113.476213 
L 229.409781 112.059766 
L 222.881728 112.658067 
L 214.989793 114.952695 
L 206.46019 118.429722 
L 197.923056 122.54347 
L 189.890866 126.734029 
L 182.682514 130.645478 
L 176.419197 134.199292 
L 171.127989 137.362558 
L 166.738045 140.184483 
L 163.134117 142.748776 
L 160.208958 145.118699 
L 157.848473 147.353035 
L 155.945184 149.496093 
L 154.401145 151.57669 
L 153.136193 153.612529 
L 151.16368 157.57932 
L 147.224199 166.841913 
L 146.329062 168.561 
L 145.332488 170.22987 
L 144.205013 171.844397 
L 142.919051 173.402493 
L 141.445194 174.901159 
L 139.748941 176.33271 
L 137.790638 177.684656 
L 135.528883 178.937603 
L 132.917844 180.073553 
L 129.909864 181.060312 
L 126.458236 181.844614 
L 122.517003 182.3519 
L 118.048859 182.488134 
L 113.048991 182.131626 
L 107.491746 181.101185 
L 101.43612 179.196622 
L 95.043216 176.203747 
L 88.579469 171.894676 
L 82.417363 166.033566 
L 77.034242 158.545402 
L 73.084534 149.608228 
L 71.135965 139.665294 
L 71.600929 129.450056 
L 74.710095 119.945916 
L 80.150991 112.147571 
L 87.310668 106.719239 
L 95.573336 103.900192 
L 104.315022 103.530215 
L 112.875464 105.208929 
L 120.798877 108.402242 
L 127.849402 112.525569 
L 133.953074 117.070246 
L 139.118033 121.747425 
L 143.411777 126.339199 
L 146.938199 130.717354 
L 149.811116 134.823516 
L 152.14085 138.638156 
L 154.029791 142.158295 
L 155.571784 145.396328 
L 157.930898 151.109859 
L 161.364116 160.015326 
L 162.203505 161.801843 
L 163.102585 163.431395 
L 164.087322 164.904649 
L 165.185159 166.220008 
L 166.426491 167.374463 
L 167.843129 168.361064 
L 169.465083 169.164039 
L 171.325802 169.762209 
L 173.46349 170.129334 
L 175.920948 170.234151 
L 178.737827 170.037061 
L 181.962733 169.478885 
L 185.637832 168.490849 
L 189.790273 166.997587 
L 194.432785 164.916848 
L 199.563404 162.160087 
L 205.125175 158.655509 
L 211.017684 154.306784 
L 217.054558 149.09989 
L 222.938889 143.138956 
L 228.260194 136.646796 
L 232.512346 129.961522 
L 235.178979 123.63192 
L 235.787457 118.325063 
L 234.08188 114.563394 
L 230.046922 112.710891 
L 223.974261 112.907 
L 216.480066 114.790845 
L 208.214304 117.889962 
L 199.801303 121.726064 
L 191.784216 125.802508 
L 184.498709 129.734152 
L 178.121974 133.342354 
L 172.682268 136.575728 
L 168.136456 139.470146 
L 164.397572 142.087762 
L 161.35904 144.498095 
L 158.904817 146.763235 
L 156.930725 148.927984 
L 155.34255 151.025189 
L 154.053902 153.07474 
L 152.986968 155.084349 
L 151.291209 158.998339 
L 148.466048 166.364365 
L 146.83705 169.775556 
L 145.879456 171.40793 
L 144.792524 172.989777 
L 143.546603 174.517363 
L 142.110923 175.986517 
L 140.453802 177.394383 
L 138.538256 178.731905 
L 136.321545 179.98274 
L 133.756104 181.122303 
L 130.795979 182.114006 
L 127.380746 182.921902 
L 123.459118 183.481839 
L 118.994439 183.695375 
L 113.964629 183.429259 
L 108.364062 182.517185 
L 102.252826 180.78064 
L 95.745516 177.925675 
L 89.07158 173.689604 
L 82.603981 167.889915 
L 76.86375 160.429079 
L 72.477771 151.330982 
L 70.08424 141.092022 
L 70.191483 130.534113 
L 72.99395 120.559849 
L 78.362833 112.146859 
L 85.747209 106.17269 
L 94.343733 102.920087 
L 103.420786 102.305741 
L 112.335048 103.931006 
L 120.60304 107.149095 
L 127.961297 111.355581 
L 134.315031 116.044638 
L 139.690152 120.845379 
L 144.160853 125.54841 
L 147.833263 130.019885 
L 150.829189 134.196895 
L 153.26629 138.061202 
L 155.250718 141.61563 
L 156.880593 144.871923 
L 159.423954 150.5779 
L 162.387615 157.426494 
L 163.346704 159.319664 
L 164.353056 161.032428 
L 165.440266 162.568826 
L 166.643019 163.931593 
L 167.992928 165.116535 
L 169.519383 166.111784 
L 171.25563 166.902011 
L 173.239122 167.468576 
L 175.508519 167.787357 
L 178.102152 167.81973 
L 181.05892 167.517595 
L 184.413418 166.825777 
L 188.196175 165.681948 
L 192.426703 164.022138 
L 197.080511 161.785955 
L 202.165614 158.84607 
L 207.619356 155.128563 
L 213.288778 150.631384 
L 218.930562 145.423272 
L 224.209856 139.64311 
L 228.713924 133.503548 
L 231.992196 127.434351 
L 233.571465 122.014979 
L 233.139151 117.740998 
L 230.564739 115.013835 
L 225.937128 114.1369 
L 219.705286 114.951955 
L 212.425944 117.094806 
L 204.654817 120.197998 
L 196.928635 123.873678 
L 189.670828 127.650805 
L 183.145188 131.26713 
L 177.468173 134.59209 
L 172.641739 137.601644 
L 168.622576 140.334239 
L 165.330034 142.840569 
L 162.667984 145.178947 
L 160.535169 147.396757 
L 158.840982 149.528505 
L 157.502996 151.598703 
L 156.446358 153.620816 
L 155.606755 155.600033 
L 154.392562 159.440125 
L 153.547859 163.109721 
L 151.834846 171.435179 
L 150.985813 174.418794 
L 149.887153 177.223824 
L 149.205772 178.564597 
L 148.41362 179.868664 
L 147.490144 181.139103 
L 146.410323 182.377395 
L 145.144633 183.583323 
L 143.65907 184.753387 
L 141.915692 185.888764 
L 139.869838 186.983984 
L 137.469328 188.022693 
L 134.654275 188.977624 
L 131.358343 189.809394 
L 127.537051 190.442639 
L 123.083118 190.821391 
L 117.907539 190.847742 
L 111.977405 190.353158 
L 105.316577 189.097141 
L 98.006917 186.765543 
L 90.192292 182.975709 
L 82.200778 177.383811 
L 74.625294 169.613953 
L 68.214134 159.572562 
L 63.865924 147.548888 
L 62.508514 134.201405 
L 64.569314 121.138625 
L 69.998869 109.88493 
L 78.34226 101.415217 
L 88.689206 96.363532 
L 99.833326 94.938612 
L 110.827349 96.593695 
L 120.988087 100.402797 
L 129.948186 105.371936 
L 137.619904 110.875169 
L 144.035078 116.42951 
L 149.342208 121.721525 
L 153.697079 126.626588 
L 157.260663 131.098952 
L 160.185917 135.127083 
L 164.674344 141.95285 
L 168.078174 147.342371 
L 169.604143 149.573021 
L 171.108715 151.524353 
L 172.641904 153.203347 
L 174.253077 154.616011 
L 175.991231 155.768001 
L 177.897238 156.656296 
L 180.000483 157.261777 
L 182.328435 157.562924 
L 184.906743 157.537229 
L 187.75756 157.161686 
L 190.886835 156.403687 
L 194.293694 155.21379 
L 197.953078 153.557047 
L 201.812524 151.416062 
L 205.792382 148.790603 
L 209.78713 145.697351 
L 213.632165 142.195972 
L 217.111673 138.407281 
L 220.004834 134.49938 
L 222.085271 130.689205 
L 223.119304 127.246826 
L 222.93047 124.464962 
L 221.511363 122.510853 
L 218.934565 121.47778 
L 215.340576 121.39842 
L 210.939091 122.241898 
L 206.014966 123.832256 
L 200.89056 125.933441 
L 195.838492 128.386605 
L 191.070763 131.016132 
L 186.736425 133.631312 
L 182.920302 136.087793 
L 179.647317 138.429163 
L 176.911611 140.64962 
L 174.690158 142.750967 
L 172.943657 144.748797 
L 171.623128 146.658373 
L 170.686143 148.482231 
L 170.094351 150.224811 
L 169.813923 151.885436 
L 169.815526 153.458282 
L 170.074853 154.932524 
L 170.58165 156.300237 
L 171.333033 157.551857 
L 172.3283 158.671739 
L 173.568898 159.638178 
L 175.059126 160.424306 
L 176.815783 161.007088 
L 178.860574 161.359101 
L 181.212615 161.445943 
L 183.888766 161.227026 
L 186.903743 160.655546 
L 190.255987 159.692778 
L 193.950818 158.278263 
L 197.987224 156.339942 
L 202.316252 153.837823 
L 206.841198 150.763592 
L 211.417744 147.14004 
L 215.853696 143.020554 
L 219.922781 138.501929 
L 223.31726 133.828023 
L 225.710823 129.307821 
L 226.841045 125.254501 
L 226.509712 121.98847 
L 224.596076 119.851626 
L 221.232784 118.945596 
L 216.702152 119.167071 
L 211.319322 120.391242 
L 205.428925 122.471761 
L 199.401163 125.147164 
L 193.575881 128.066245 
L 188.192443 131.037103 
L 183.389462 133.914704 
L 179.216027 136.614932 
L 175.681501 139.144457 
L 172.755632 141.513697 
L 170.390969 143.743349 
L 168.526021 145.863246 
L 167.097796 147.891302 
L 166.050116 149.841163 
L 165.332432 151.721262 
L 164.899869 153.533532 
L 164.714752 155.274791 
L 164.754094 156.942881 
L 165.001241 158.532749 
L 165.442914 160.034848 
L 166.069638 161.435451 
L 166.883723 162.723054 
L 167.895187 163.886772 
L 169.117031 164.910948 
L 170.565672 165.775212 
L 172.261214 166.454995 
L 174.231923 166.924155 
L 176.510792 167.150248 
L 179.130188 167.092343 
L 182.121814 166.701063 
L 185.516863 165.918562 
L 189.339307 164.682219 
L 193.60489 162.914529 
L 198.312071 160.53085 
L 203.408814 157.467723 
L 208.792563 153.682533 
L 214.314161 149.154859 
L 219.73502 143.943522 
L 224.688921 138.22968 
L 228.78487 132.297886 
L 231.609789 126.541329 
L 232.723808 121.472348 
L 231.808322 117.653004 
L 228.901074 115.358872 
L 224.198904 114.697272 
L 218.031418 115.64103 
L 210.872183 117.968047 
L 203.325298 121.151453 
L 195.902853 124.77405 
L 188.973793 128.465747 
L 182.761293 131.938035 
L 177.360721 135.139085 
L 172.784385 138.054122 
L 168.98746 140.7105 
L 165.881467 143.168702 
L 163.376749 145.473145 
L 161.381374 147.66493 
L 159.808749 149.775105 
L 158.5794 151.823876 
L 157.628191 153.823441 
L 156.898665 155.779874 
L 156.341015 157.693188 
L 155.598765 161.38426 
L 155.182515 164.877882 
L 154.879961 169.704485 
L 154.718537 176.60643 
L 154.46204 190.275789 
L 154.21687 192.669502 
L 153.87594 194.249252 
L 153.290572 195.702223 
L 152.678192 196.631764 
L 151.79312 197.554926 
L 150.51576 198.50405 
L 148.661196 199.509323 
L 145.967901 200.585263 
L 142.061874 201.741381 
L 139.489016 202.353647 
L 136.392355 202.955339 
L 132.674298 203.495606 
L 128.224766 203.902713 
L 122.931876 204.075135 
L 116.688267 203.844795 
L 109.335093 202.997762 
L 100.839055 201.184683 
L 91.315214 197.905709 
L 81.032762 192.506069 
L 70.510557 184.322817 
L 60.792061 172.701303 
L 53.231922 157.540851 
L 49.418557 139.573309 
L 50.721112 120.545218 
L 57.206838 103.616459 
L 68.189187 90.972898 
L 82.345031 83.540603 
L 97.615074 81.705735 
L 112.373018 84.423681 
L 125.644497 89.922852 
L 137.054713 96.719856 
L 146.576192 103.772398 
L 154.410497 110.422251 
L 160.794359 116.409735 
L 165.977368 121.642134 
L 173.630869 129.951338 
L 180.943429 138.137967 
L 182.807859 139.996135 
L 184.532189 141.498203 
L 186.170711 142.670228 
L 187.774724 143.540548 
L 189.392032 144.13943 
L 191.04703 144.482637 
L 192.743166 144.570713 
L 194.479665 144.410553 
L 196.249964 144.015874 
L 198.041713 143.407002 
L 199.83041 142.602104 
L 201.571888 141.617707 
L 203.217998 140.480804 
L 204.718993 139.229141 
L 206.023392 137.911332 
L 207.077853 136.587003 
L 207.831056 135.317521 
L 208.242114 134.160089 
L 208.28475 133.168147 
L 207.949924 132.384388 
L 207.246106 131.840582 
L 206.199493 131.557392 
L 204.854169 131.544201 
L 203.269927 131.793396 
L 201.512021 132.268272 
L 199.653626 132.946744 
L 197.763992 133.801152 
L 195.906994 134.795202 
L 192.518357 137.014612 
L 191.082573 138.137735 
L 189.853317 139.254111 
L 188.847218 140.344524 
L 188.076016 141.389025 
L 187.545633 142.371032 
L 187.256241 143.27731 
L 187.202328 144.097952 
L 187.372655 144.825026 
L 187.75718 145.442157 
L 188.353754 145.935128 
L 189.156952 146.291276 
L 190.157039 146.4983 
L 191.339993 146.54423 
L 192.687527 146.417414 
L 194.177102 146.106481 
L 195.783431 145.607096 
L 197.480505 144.91909 
L 199.235658 144.041996 
L 201.008654 142.985426 
L 202.751585 141.769134 
L 204.408732 140.423059 
L 205.9164 138.987432 
L 207.202747 137.512913 
L 208.190291 136.06043 
L 208.834544 134.696128 
L 209.100351 133.484715 
L 208.964839 132.480179 
L 208.424395 131.724254 
L 207.49497 131.246194 
L 206.212319 131.062555 
L 204.631911 131.176032 
L 202.822561 131.554057 
L 200.864345 132.168264 
L 198.835568 132.991128 
L 196.808851 133.985451 
L 194.850875 135.104477 
L 191.376047 137.486141 
L 189.941957 138.676109 
L 188.738373 139.848805 
L 187.779865 140.98227 
L 187.074566 142.05836 
L 186.624243 143.062732 
L 186.424375 143.984825 
L 186.464218 144.817318 
L 186.732252 145.544925 
L 187.22557 146.152453 
L 187.939419 146.626908 
L 188.865383 146.955039 
L 189.991413 147.123314 
L 191.30185 147.117899 
L 192.777438 146.924631 
L 194.394454 146.536996 
L 196.131379 145.948736 
L 197.962387 145.152706 
L 199.851553 144.15245 
L 201.752772 142.962186 
L 203.60964 141.606833 
L 205.355303 140.122074 
L 206.912275 138.554474 
L 208.198017 136.960784 
L 209.160658 135.408876 
L 209.740819 133.977202 
L 209.895535 132.733684 
L 209.604569 131.733605 
L 208.870756 131.019441 
L 207.720348 130.620641 
L 206.201625 130.54916 
L 204.384494 130.78573 
L 202.355591 131.305291 
L 200.200047 132.073742 
L 198.000266 133.047001 
L 195.835607 134.171137 
L 193.782069 135.382562 
L 191.900163 136.632408 
L 190.22451 137.903121 
L 188.785883 139.166447 
L 187.605445 140.398377 
L 186.694768 141.579262 
L 186.055916 142.693817 
L 185.681557 143.731105 
L 185.558096 144.68164 
L 185.680084 145.530725 
L 186.042989 146.265564 
L 186.640054 146.872764 
L 187.462391 147.338161 
L 188.499 147.646798 
L 189.736727 147.782947 
L 191.153273 147.736385 
L 192.738906 147.49122 
L 194.484339 147.031701 
L 196.368075 146.350161 
L 198.356419 145.446955 
L 200.40344 144.330428 
L 202.450908 143.016897 
L 204.428176 141.53067 
L 206.254288 139.904129 
L 207.870133 138.18995 
L 209.192407 136.468904 
L 210.142716 134.819854 
L 210.662375 133.316126 
L 210.712544 132.025609 
L 210.274491 131.010774 
L 209.349144 130.329289 
L 207.975066 130.008809 
L 206.228985 130.035079 
L 204.193822 130.383903 
L 201.956969 131.0227 
L 199.609989 131.910498 
L 197.248213 132.998052 
L 194.960018 134.22165 
L 192.812818 135.526593 
L 190.863066 136.875839 
L 189.151999 138.235907 
L 187.705643 139.576944 
L 186.534891 140.872773 
L 185.639711 142.106185 
L 185.020516 143.270645 
L 184.673087 144.352933 
L 184.591381 145.340127 
L 184.767704 146.219804 
L 185.192747 146.980013 
L 185.853652 147.607747 
L 186.739885 148.085334 
L 187.851262 148.397765 
L 189.181886 148.530398 
L 190.719368 148.468641 
L 192.444855 148.197914 
L 194.333066 147.703618 
L 196.352298 146.971091 
L 198.470241 145.997368 
L 200.645056 144.792379 
L 202.818349 143.368665 
L 204.92419 141.753595 
L 206.888864 139.989512 
L 208.630572 138.133933 
L 210.059128 136.259821 
L 211.076437 134.455909 
L 211.611425 132.819479 
L 211.632132 131.431497 
L 211.127456 130.354551 
L 210.110733 129.633523 
L 208.620228 129.295122 
L 206.719441 129.34747 
L 204.496512 129.773805 
L 202.057433 130.504322 
L 199.513701 131.496368 
L 196.966399 132.704628 
L 194.504241 134.071879 
L 192.20318 135.529264 
L 190.12612 136.996594 
L 188.31571 138.427796 
L 186.788136 139.834239 
L 185.554488 141.193938 
L 184.619313 142.48928 
L 183.98068 143.707411 
L 183.630297 144.840194 
L 183.553783 145.88153 
L 183.739459 146.813602 
L 184.182767 147.623652 
L 184.877625 148.298393 
L 185.815909 148.822382 
L 186.987476 149.17801 
L 188.380176 149.34548 
L 189.978441 149.305761 
L 191.767055 149.047015 
L 193.738278 148.547653 
L 195.87185 147.793724 
L 198.133401 146.78089 
L 200.474446 145.514352 
L 202.83232 144.008816 
L 205.130068 142.288476 
L 207.283694 140.387476 
L 209.212141 138.371457 
L 210.80426 136.333873 
L 211.965002 134.36738 
L 212.619561 132.562892 
L 212.713474 131.009849 
L 212.212679 129.796868 
L 211.113572 129.006378 
L 209.484117 128.646327 
L 207.414675 128.697396 
L 205.004438 129.131107 
L 202.361165 129.909648 
L 199.600681 130.9859 
L 196.841029 132.287051 
L 194.182566 133.721962 
L 191.708539 135.239661 
L 189.480856 136.794262 
L 187.53981 138.343995 
L 185.904137 139.851325 
L 184.579923 141.299129 
L 183.568369 142.68278 
L 182.863686 143.989247 
L 182.457865 145.207068 
L 182.340769 146.326302 
L 182.499771 147.338026 
L 182.91616 148.224014 
L 183.58806 148.971292 
L 184.515584 149.568325 
L 185.694348 150.000159 
L 187.115512 150.248408 
L 188.765806 150.291238 
L 190.627549 150.103346 
L 192.678794 149.656905 
L 194.900062 148.947216 
L 197.269255 147.96137 
L 199.747972 146.690401 
L 202.281112 145.142248 
L 204.796737 143.341726 
L 207.205845 141.330576 
L 209.402069 139.167601 
L 211.27596 136.926149 
L 212.726267 134.713018 
L 213.643386 132.653204 
L 213.951457 130.855299 
L 213.610123 129.410815 
L 212.615235 128.393978 
L 210.998487 127.860967 
L 208.841619 127.820352 
L 206.270955 128.229749 
L 203.416176 129.033199 
L 200.407348 130.163096 
L 197.374162 131.540419 
L 194.442341 133.076119 
L 191.702407 134.69577 
L 189.221873 136.350583 
L 187.049224 138.000985 
L 185.211838 139.615893 
L 183.71617 141.172738 
L 182.552614 142.658494 
L 181.715214 144.067341 
L 181.192429 145.389869 
L 180.971973 146.615908 
L 181.041496 147.734755 
L 181.388622 148.735142 
L 181.99852 149.60149 
L 182.865137 150.316635 
L 183.989075 150.866304 
L 185.366912 151.232949 
L 186.991191 151.395694 
L 188.850455 151.330322 
L 190.929279 151.009249 
L 193.208211 150.411141 
L 195.668116 149.524636 
L 198.28013 148.329148 
L 200.996257 146.821318 
L 203.749159 145.01581 
L 206.45198 142.945288 
L 208.998075 140.660476 
L 211.269863 138.22799 
L 213.150936 135.751036 
L 214.50377 133.369034 
L 215.223277 131.209911 
L 215.240855 129.388052 
L 214.525038 128.004336 
L 213.081396 127.147926 
L 210.980822 126.854676 
L 208.35688 127.081424 
L 205.350993 127.770309 
L 202.10898 128.85259 
L 198.780147 130.248821 
L 195.511745 131.864162 
L 192.417409 133.594404 
L 189.585275 135.377587 
L 187.076809 137.164887 
L 184.925726 138.917546 
L 183.138344 140.607049 
L 181.71062 142.224279 
L 180.634569 143.764754 
L 179.895898 145.219915 
L 179.479542 146.581786 
L 179.369754 147.842914 
L 179.548809 148.99347 
L 180.002576 150.017174 
L 180.728288 150.903641 
L 181.722329 151.638446 
L 182.979566 152.202311 
L 184.493356 152.571102 
L 186.255557 152.715828 
L 188.256697 152.610206 
L 190.495029 152.234795 
L 192.964868 151.559638 
L 195.643439 150.563566 
L 198.490769 149.234777 
L 201.44975 147.570695 
L 204.446126 145.57783 
L 207.395686 143.276932 
L 210.17882 140.732309 
L 212.649685 138.037279 
L 214.669643 135.303754 
L 216.106763 132.663096 
L 216.835367 130.267061 
L 216.754557 128.277344 
L 215.83544 126.820745 
L 215.83544 126.820745 
" style="fill:none;stroke:#000000;stroke-linecap:square;stroke-width:0.5;"/>
   </g>
  </g>
 </g>
 <defs>
  <clipPath id="p2a164cf2e9">
   <rect height="288" width="288" x="9.140483" y="7.2"/>
  </clipPath>
 </defs>
</svg>
