<?xml version="1.0" encoding="utf-8" standalone="no"?>
<!DOCTYPE svg PUBLIC "-//W3C//DTD SVG 1.1//EN"
  "http://www.w3.org/Graphics/SVG/1.1/DTD/svg11.dtd">
<!-- Created with matplotlib (https://matplotlib.org/) -->
<svg height="260.8pt" version="1.1" viewBox="0 0 383.56375 260.8" width="383.56375pt" xmlns="http://www.w3.org/2000/svg" xmlns:xlink="http://www.w3.org/1999/xlink">
 <metadata>
  <rdf:RDF xmlns:cc="http://creativecommons.org/ns#" xmlns:dc="http://purl.org/dc/elements/1.1/" xmlns:rdf="http://www.w3.org/1999/02/22-rdf-syntax-ns#">
   <cc:Work>
    <dc:type rdf:resource="http://purl.org/dc/dcmitype/StillImage"/>
    <dc:date>2021-06-25T12:39:46.337576</dc:date>
    <dc:format>image/svg+xml</dc:format>
    <dc:creator>
     <cc:Agent>
      <dc:title>Matplotlib v3.3.4, https://matplotlib.org/</dc:title>
     </cc:Agent>
    </dc:creator>
   </cc:Work>
  </rdf:RDF>
 </metadata>
 <defs>
  <style type="text/css">*{stroke-linecap:butt;stroke-linejoin:round;}</style>
 </defs>
 <g id="figure_1">
  <g id="patch_1">
   <path d="M 0 260.8 
L 383.56375 260.8 
L 383.56375 0 
L 0 0 
z
" style="fill:none;"/>
  </g>
  <g id="axes_1">
   <g id="patch_2">
    <path d="M 41.56375 224.64 
L 376.36375 224.64 
L 376.36375 7.2 
L 41.56375 7.2 
z
" style="fill:#ffffff;"/>
   </g>
   <g id="matplotlib.axis_1">
    <g id="xtick_1">
     <g id="line2d_1">
      <defs>
       <path d="M 0 0 
L 0 -7.5 
" id="m1137f8a641" style="stroke:#000000;stroke-width:1.2;"/>
      </defs>
      <g>
       <use style="stroke:#000000;stroke-width:1.2;" x="56.597624" xlink:href="#m1137f8a641" y="224.64"/>
      </g>
     </g>
     <g id="line2d_2">
      <defs>
       <path d="M 0 0 
L 0 7.5 
" id="m34e331f13e" style="stroke:#000000;stroke-width:1.2;"/>
      </defs>
      <g>
       <use style="stroke:#000000;stroke-width:1.2;" x="56.597624" xlink:href="#m34e331f13e" y="7.2"/>
      </g>
     </g>
     <g id="text_1">
      <!-- −1 -->
      <g transform="translate(42.915749 248.81875)scale(0.24 -0.24)">
       <defs>
        <path d="M 52.875 31.203125 
L 5.515625 31.203125 
L 5.515625 39.40625 
L 52.875 39.40625 
z
" id="ArialUnicodeMS-8722"/>
        <path d="M 37.5 0 
L 28.71875 0 
L 28.71875 56 
Q 22.125 49.75 11.078125 45.40625 
L 11.078125 53.90625 
Q 26.265625 61.1875 31.78125 71.921875 
L 37.5 71.921875 
z
" id="ArialUnicodeMS-49"/>
       </defs>
       <use xlink:href="#ArialUnicodeMS-8722"/>
       <use x="58.398438" xlink:href="#ArialUnicodeMS-49"/>
      </g>
     </g>
    </g>
    <g id="xtick_2">
     <g id="line2d_3">
      <g>
       <use style="stroke:#000000;stroke-width:1.2;" x="208.871596" xlink:href="#m1137f8a641" y="224.64"/>
      </g>
     </g>
     <g id="line2d_4">
      <g>
       <use style="stroke:#000000;stroke-width:1.2;" x="208.871596" xlink:href="#m34e331f13e" y="7.2"/>
      </g>
     </g>
     <g id="text_2">
      <!-- 0 -->
      <g transform="translate(202.198471 248.81875)scale(0.24 -0.24)">
       <defs>
        <path d="M 27.78125 71.921875 
Q 51.125 71.921875 51.125 35.296875 
Q 51.125 16.796875 45.09375 7.78125 
Q 39.0625 -1.21875 27.78125 -1.21875 
Q 4.5 -1.21875 4.5 35.296875 
Q 4.5 53.8125 10.515625 62.859375 
Q 16.546875 71.921875 27.78125 71.921875 
z
M 27.78125 6 
Q 34.859375 6 38.46875 12.859375 
Q 42.09375 19.734375 42.09375 35.296875 
Q 42.09375 46.140625 40.5 52.359375 
Q 38.921875 58.59375 35.71875 61.640625 
Q 32.515625 64.703125 27.6875 64.703125 
Q 20.609375 64.703125 17.046875 57.71875 
Q 13.484375 50.734375 13.484375 35.296875 
Q 13.484375 24.609375 15.09375 18.359375 
Q 16.703125 12.109375 19.875 9.046875 
Q 23.046875 6 27.78125 6 
z
" id="ArialUnicodeMS-48"/>
       </defs>
       <use xlink:href="#ArialUnicodeMS-48"/>
      </g>
     </g>
    </g>
    <g id="xtick_3">
     <g id="line2d_5">
      <g>
       <use style="stroke:#000000;stroke-width:1.2;" x="361.145568" xlink:href="#m1137f8a641" y="224.64"/>
      </g>
     </g>
     <g id="line2d_6">
      <g>
       <use style="stroke:#000000;stroke-width:1.2;" x="361.145568" xlink:href="#m34e331f13e" y="7.2"/>
      </g>
     </g>
     <g id="text_3">
      <!-- 1 -->
      <g transform="translate(354.472443 248.81875)scale(0.24 -0.24)">
       <use xlink:href="#ArialUnicodeMS-49"/>
      </g>
     </g>
    </g>
   </g>
   <g id="matplotlib.axis_2">
    <g id="ytick_1">
     <g id="line2d_7">
      <defs>
       <path d="M 0 0 
L 7.5 0 
" id="m533353df57" style="stroke:#000000;stroke-width:1.2;"/>
      </defs>
      <g>
       <use style="stroke:#000000;stroke-width:1.2;" x="41.56375" xlink:href="#m533353df57" y="214.967948"/>
      </g>
     </g>
     <g id="line2d_8">
      <defs>
       <path d="M 0 0 
L -7.5 0 
" id="me637ca4109" style="stroke:#000000;stroke-width:1.2;"/>
      </defs>
      <g>
       <use style="stroke:#000000;stroke-width:1.2;" x="376.36375" xlink:href="#me637ca4109" y="214.967948"/>
      </g>
     </g>
     <g id="text_4">
      <!-- −1 -->
      <g transform="translate(7.2 223.557323)scale(0.24 -0.24)">
       <use xlink:href="#ArialUnicodeMS-8722"/>
       <use x="58.398438" xlink:href="#ArialUnicodeMS-49"/>
      </g>
     </g>
    </g>
    <g id="ytick_2">
     <g id="line2d_9">
      <g>
       <use style="stroke:#000000;stroke-width:1.2;" x="41.56375" xlink:href="#m533353df57" y="116.022681"/>
      </g>
     </g>
     <g id="line2d_10">
      <g>
       <use style="stroke:#000000;stroke-width:1.2;" x="376.36375" xlink:href="#me637ca4109" y="116.022681"/>
      </g>
     </g>
     <g id="text_5">
      <!-- 0 -->
      <g transform="translate(21.2175 124.612056)scale(0.24 -0.24)">
       <use xlink:href="#ArialUnicodeMS-48"/>
      </g>
     </g>
    </g>
    <g id="ytick_3">
     <g id="line2d_11">
      <g>
       <use style="stroke:#000000;stroke-width:1.2;" x="41.56375" xlink:href="#m533353df57" y="17.077415"/>
      </g>
     </g>
     <g id="line2d_12">
      <g>
       <use style="stroke:#000000;stroke-width:1.2;" x="376.36375" xlink:href="#me637ca4109" y="17.077415"/>
      </g>
     </g>
     <g id="text_6">
      <!-- 1 -->
      <g transform="translate(21.2175 25.66679)scale(0.24 -0.24)">
       <use xlink:href="#ArialUnicodeMS-49"/>
      </g>
     </g>
    </g>
   </g>
   <g id="line2d_13">
    <path clip-path="url(#pfc52eb3e45)" d="M 361.145568 116.022681 
L 358.049641 96.16825 
L 348.88839 77.120186 
L 334.025975 59.658526 
L 314.072189 44.486946 
L 289.847131 32.206441 
L 262.331567 23.34371 
L 232.624543 18.270788 
L 201.933296 17.181277 
L 171.537265 20.092772 
L 142.649879 26.889506 
L 116.476056 37.324609 
L 94.072525 50.988849 
L 76.33469 67.309616 
L 63.970645 85.586352 
L 57.48004 105.097253 
L 57.17819 125.049815 
L 63.086727 144.644967 
L 74.929076 163.081073 
L 92.179952 179.599289 
L 114.169654 193.53324 
L 140.0267 204.297979 
L 168.708602 211.463336 
L 199.012319 214.756364 
L 229.720049 214.058298 
L 259.567165 209.365102 
L 287.345927 200.846022 
L 311.941739 188.855215 
L 332.344306 173.923513 
L 347.748066 156.650104 
L 357.483768 137.726085 
L 361.139303 117.907747 
L 358.589099 98.001611 
L 349.982846 78.837453 
L 335.658266 61.17907 
L 316.158894 45.765931 
L 292.256955 33.220628 
L 264.952666 24.041429 
L 235.39896 18.586091 
L 204.769576 17.083636 
L 174.3133 19.627833 
L 145.250396 26.120158 
L 118.770388 36.268982 
L 95.953095 49.6356 
L 77.727445 65.698288 
L 64.864994 83.817238 
L 57.877288 103.262165 
L 57.014735 123.218645 
L 62.291109 142.886732 
L 73.538637 161.453179 
L 90.333929 178.163471 
L 111.984967 192.348863 
L 137.54458 203.432344 
L 165.987952 210.97875 
L 196.169806 214.650888 
L 226.881333 214.285681 
L 256.87764 209.912019 
L 284.908501 201.741275 
L 309.857403 190.096598 
L 330.676549 175.431616 
L 346.522592 158.330367 
L 356.772588 139.504613 
L 361.041616 119.735357 
L 359.132002 99.817154 
L 351.073608 80.563991 
L 337.188074 62.74733 
L 318.088936 47.095918 
L 294.585868 34.240952 
L 267.602519 24.712947 
L 238.217685 18.919997 
L 207.615309 17.09035 
L 177.075064 19.272835 
L 147.818683 25.367381 
L 121.060311 35.153808 
L 97.89168 48.25519 
L 79.237427 64.133782 
L 65.846028 82.102489 
L 58.240817 101.443467 
L 56.781932 121.372226 
L 61.551825 141.089192 
L 72.334659 159.796655 
L 88.635194 176.716816 
L 109.809006 191.175644 
L 135.019865 202.562932 
L 163.260141 210.416713 
L 193.35786 214.433547 
L 224.079842 214.472715 
L 254.17873 210.511888 
L 282.422059 202.683011 
L 307.678431 191.301157 
L 328.91786 176.864291 
L 345.293951 159.975054 
L 356.118242 141.30222 
L 360.917664 121.594571 
L 359.507938 101.645754 
L 351.990638 82.289006 
L 338.67627 64.30314 
L 320.076121 48.430395 
L 296.929407 35.315752 
L 270.197027 25.481724 
" style="fill:none;stroke:#0000ff;stroke-linecap:square;stroke-width:3;"/>
    <defs>
     <path d="M -0.49999 0.49999 
L 0.50001 0.49999 
L 0.50001 -0.50001 
L -0.49999 -0.50001 
z
" id="m10ad75dd23"/>
    </defs>
    <g clip-path="url(#pfc52eb3e45)">
     <use style="fill:#0000ff;" x="361.145568" xlink:href="#m10ad75dd23" y="116.022681"/>
     <use style="fill:#0000ff;" x="358.049641" xlink:href="#m10ad75dd23" y="96.16825"/>
     <use style="fill:#0000ff;" x="348.88839" xlink:href="#m10ad75dd23" y="77.120186"/>
     <use style="fill:#0000ff;" x="334.025975" xlink:href="#m10ad75dd23" y="59.658526"/>
     <use style="fill:#0000ff;" x="314.072189" xlink:href="#m10ad75dd23" y="44.486946"/>
     <use style="fill:#0000ff;" x="289.847131" xlink:href="#m10ad75dd23" y="32.206441"/>
     <use style="fill:#0000ff;" x="262.331567" xlink:href="#m10ad75dd23" y="23.34371"/>
     <use style="fill:#0000ff;" x="232.624543" xlink:href="#m10ad75dd23" y="18.270788"/>
     <use style="fill:#0000ff;" x="201.933296" xlink:href="#m10ad75dd23" y="17.181277"/>
     <use style="fill:#0000ff;" x="171.537265" xlink:href="#m10ad75dd23" y="20.092772"/>
     <use style="fill:#0000ff;" x="142.649879" xlink:href="#m10ad75dd23" y="26.889506"/>
     <use style="fill:#0000ff;" x="116.476056" xlink:href="#m10ad75dd23" y="37.324609"/>
     <use style="fill:#0000ff;" x="94.072525" xlink:href="#m10ad75dd23" y="50.988849"/>
     <use style="fill:#0000ff;" x="76.33469" xlink:href="#m10ad75dd23" y="67.309616"/>
     <use style="fill:#0000ff;" x="63.970645" xlink:href="#m10ad75dd23" y="85.586352"/>
     <use style="fill:#0000ff;" x="57.48004" xlink:href="#m10ad75dd23" y="105.097253"/>
     <use style="fill:#0000ff;" x="57.17819" xlink:href="#m10ad75dd23" y="125.049815"/>
     <use style="fill:#0000ff;" x="63.086727" xlink:href="#m10ad75dd23" y="144.644967"/>
     <use style="fill:#0000ff;" x="74.929076" xlink:href="#m10ad75dd23" y="163.081073"/>
     <use style="fill:#0000ff;" x="92.179952" xlink:href="#m10ad75dd23" y="179.599289"/>
     <use style="fill:#0000ff;" x="114.169654" xlink:href="#m10ad75dd23" y="193.53324"/>
     <use style="fill:#0000ff;" x="140.0267" xlink:href="#m10ad75dd23" y="204.297979"/>
     <use style="fill:#0000ff;" x="168.708602" xlink:href="#m10ad75dd23" y="211.463336"/>
     <use style="fill:#0000ff;" x="199.012319" xlink:href="#m10ad75dd23" y="214.756364"/>
     <use style="fill:#0000ff;" x="229.720049" xlink:href="#m10ad75dd23" y="214.058298"/>
     <use style="fill:#0000ff;" x="259.567165" xlink:href="#m10ad75dd23" y="209.365102"/>
     <use style="fill:#0000ff;" x="287.345927" xlink:href="#m10ad75dd23" y="200.846022"/>
     <use style="fill:#0000ff;" x="311.941739" xlink:href="#m10ad75dd23" y="188.855215"/>
     <use style="fill:#0000ff;" x="332.344306" xlink:href="#m10ad75dd23" y="173.923513"/>
     <use style="fill:#0000ff;" x="347.748066" xlink:href="#m10ad75dd23" y="156.650104"/>
     <use style="fill:#0000ff;" x="357.483768" xlink:href="#m10ad75dd23" y="137.726085"/>
     <use style="fill:#0000ff;" x="361.139303" xlink:href="#m10ad75dd23" y="117.907747"/>
     <use style="fill:#0000ff;" x="358.589099" xlink:href="#m10ad75dd23" y="98.001611"/>
     <use style="fill:#0000ff;" x="349.982846" xlink:href="#m10ad75dd23" y="78.837453"/>
     <use style="fill:#0000ff;" x="335.658266" xlink:href="#m10ad75dd23" y="61.17907"/>
     <use style="fill:#0000ff;" x="316.158894" xlink:href="#m10ad75dd23" y="45.765931"/>
     <use style="fill:#0000ff;" x="292.256955" xlink:href="#m10ad75dd23" y="33.220628"/>
     <use style="fill:#0000ff;" x="264.952666" xlink:href="#m10ad75dd23" y="24.041429"/>
     <use style="fill:#0000ff;" x="235.39896" xlink:href="#m10ad75dd23" y="18.586091"/>
     <use style="fill:#0000ff;" x="204.769576" xlink:href="#m10ad75dd23" y="17.083636"/>
     <use style="fill:#0000ff;" x="174.3133" xlink:href="#m10ad75dd23" y="19.627833"/>
     <use style="fill:#0000ff;" x="145.250396" xlink:href="#m10ad75dd23" y="26.120158"/>
     <use style="fill:#0000ff;" x="118.770388" xlink:href="#m10ad75dd23" y="36.268982"/>
     <use style="fill:#0000ff;" x="95.953095" xlink:href="#m10ad75dd23" y="49.6356"/>
     <use style="fill:#0000ff;" x="77.727445" xlink:href="#m10ad75dd23" y="65.698288"/>
     <use style="fill:#0000ff;" x="64.864994" xlink:href="#m10ad75dd23" y="83.817238"/>
     <use style="fill:#0000ff;" x="57.877288" xlink:href="#m10ad75dd23" y="103.262165"/>
     <use style="fill:#0000ff;" x="57.014735" xlink:href="#m10ad75dd23" y="123.218645"/>
     <use style="fill:#0000ff;" x="62.291109" xlink:href="#m10ad75dd23" y="142.886732"/>
     <use style="fill:#0000ff;" x="73.538637" xlink:href="#m10ad75dd23" y="161.453179"/>
     <use style="fill:#0000ff;" x="90.333929" xlink:href="#m10ad75dd23" y="178.163471"/>
     <use style="fill:#0000ff;" x="111.984967" xlink:href="#m10ad75dd23" y="192.348863"/>
     <use style="fill:#0000ff;" x="137.54458" xlink:href="#m10ad75dd23" y="203.432344"/>
     <use style="fill:#0000ff;" x="165.987952" xlink:href="#m10ad75dd23" y="210.97875"/>
     <use style="fill:#0000ff;" x="196.169806" xlink:href="#m10ad75dd23" y="214.650888"/>
     <use style="fill:#0000ff;" x="226.881333" xlink:href="#m10ad75dd23" y="214.285681"/>
     <use style="fill:#0000ff;" x="256.87764" xlink:href="#m10ad75dd23" y="209.912019"/>
     <use style="fill:#0000ff;" x="284.908501" xlink:href="#m10ad75dd23" y="201.741275"/>
     <use style="fill:#0000ff;" x="309.857403" xlink:href="#m10ad75dd23" y="190.096598"/>
     <use style="fill:#0000ff;" x="330.676549" xlink:href="#m10ad75dd23" y="175.431616"/>
     <use style="fill:#0000ff;" x="346.522592" xlink:href="#m10ad75dd23" y="158.330367"/>
     <use style="fill:#0000ff;" x="356.772588" xlink:href="#m10ad75dd23" y="139.504613"/>
     <use style="fill:#0000ff;" x="361.041616" xlink:href="#m10ad75dd23" y="119.735357"/>
     <use style="fill:#0000ff;" x="359.132002" xlink:href="#m10ad75dd23" y="99.817154"/>
     <use style="fill:#0000ff;" x="351.073608" xlink:href="#m10ad75dd23" y="80.563991"/>
     <use style="fill:#0000ff;" x="337.188074" xlink:href="#m10ad75dd23" y="62.74733"/>
     <use style="fill:#0000ff;" x="318.088936" xlink:href="#m10ad75dd23" y="47.095918"/>
     <use style="fill:#0000ff;" x="294.585868" xlink:href="#m10ad75dd23" y="34.240952"/>
     <use style="fill:#0000ff;" x="267.602519" xlink:href="#m10ad75dd23" y="24.712947"/>
     <use style="fill:#0000ff;" x="238.217685" xlink:href="#m10ad75dd23" y="18.919997"/>
     <use style="fill:#0000ff;" x="207.615309" xlink:href="#m10ad75dd23" y="17.09035"/>
     <use style="fill:#0000ff;" x="177.075064" xlink:href="#m10ad75dd23" y="19.272835"/>
     <use style="fill:#0000ff;" x="147.818683" xlink:href="#m10ad75dd23" y="25.367381"/>
     <use style="fill:#0000ff;" x="121.060311" xlink:href="#m10ad75dd23" y="35.153808"/>
     <use style="fill:#0000ff;" x="97.89168" xlink:href="#m10ad75dd23" y="48.25519"/>
     <use style="fill:#0000ff;" x="79.237427" xlink:href="#m10ad75dd23" y="64.133782"/>
     <use style="fill:#0000ff;" x="65.846028" xlink:href="#m10ad75dd23" y="82.102489"/>
     <use style="fill:#0000ff;" x="58.240817" xlink:href="#m10ad75dd23" y="101.443467"/>
     <use style="fill:#0000ff;" x="56.781932" xlink:href="#m10ad75dd23" y="121.372226"/>
     <use style="fill:#0000ff;" x="61.551825" xlink:href="#m10ad75dd23" y="141.089192"/>
     <use style="fill:#0000ff;" x="72.334659" xlink:href="#m10ad75dd23" y="159.796655"/>
     <use style="fill:#0000ff;" x="88.635194" xlink:href="#m10ad75dd23" y="176.716816"/>
     <use style="fill:#0000ff;" x="109.809006" xlink:href="#m10ad75dd23" y="191.175644"/>
     <use style="fill:#0000ff;" x="135.019865" xlink:href="#m10ad75dd23" y="202.562932"/>
     <use style="fill:#0000ff;" x="163.260141" xlink:href="#m10ad75dd23" y="210.416713"/>
     <use style="fill:#0000ff;" x="193.35786" xlink:href="#m10ad75dd23" y="214.433547"/>
     <use style="fill:#0000ff;" x="224.079842" xlink:href="#m10ad75dd23" y="214.472715"/>
     <use style="fill:#0000ff;" x="254.17873" xlink:href="#m10ad75dd23" y="210.511888"/>
     <use style="fill:#0000ff;" x="282.422059" xlink:href="#m10ad75dd23" y="202.683011"/>
     <use style="fill:#0000ff;" x="307.678431" xlink:href="#m10ad75dd23" y="191.301157"/>
     <use style="fill:#0000ff;" x="328.91786" xlink:href="#m10ad75dd23" y="176.864291"/>
     <use style="fill:#0000ff;" x="345.293951" xlink:href="#m10ad75dd23" y="159.975054"/>
     <use style="fill:#0000ff;" x="356.118242" xlink:href="#m10ad75dd23" y="141.30222"/>
     <use style="fill:#0000ff;" x="360.917664" xlink:href="#m10ad75dd23" y="121.594571"/>
     <use style="fill:#0000ff;" x="359.507938" xlink:href="#m10ad75dd23" y="101.645754"/>
     <use style="fill:#0000ff;" x="351.990638" xlink:href="#m10ad75dd23" y="82.289006"/>
     <use style="fill:#0000ff;" x="338.67627" xlink:href="#m10ad75dd23" y="64.30314"/>
     <use style="fill:#0000ff;" x="320.076121" xlink:href="#m10ad75dd23" y="48.430395"/>
     <use style="fill:#0000ff;" x="296.929407" xlink:href="#m10ad75dd23" y="35.315752"/>
     <use style="fill:#0000ff;" x="270.197027" xlink:href="#m10ad75dd23" y="25.481724"/>
    </g>
   </g>
   <g id="patch_3">
    <path d="M 41.56375 224.64 
L 41.56375 7.2 
" style="fill:none;stroke:#000000;stroke-linecap:square;stroke-linejoin:miter;stroke-width:2;"/>
   </g>
   <g id="patch_4">
    <path d="M 376.36375 224.64 
L 376.36375 7.2 
" style="fill:none;stroke:#000000;stroke-linecap:square;stroke-linejoin:miter;stroke-width:2;"/>
   </g>
   <g id="patch_5">
    <path d="M 41.56375 224.64 
L 376.36375 224.64 
" style="fill:none;stroke:#000000;stroke-linecap:square;stroke-linejoin:miter;stroke-width:2;"/>
   </g>
   <g id="patch_6">
    <path d="M 41.56375 7.2 
L 376.36375 7.2 
" style="fill:none;stroke:#000000;stroke-linecap:square;stroke-linejoin:miter;stroke-width:2;"/>
   </g>
   <g id="legend_1">
    <g id="patch_7">
     <path d="M 295.904375 29.35 
L 371.36375 29.35 
L 371.36375 12.2 
L 295.904375 12.2 
z
" style="fill:#ffffff;stroke:#000000;stroke-linejoin:miter;"/>
    </g>
    <g id="line2d_14">
     <path d="M 299.904375 19.857812 
L 319.904375 19.857812 
" style="fill:none;stroke:#0000ff;stroke-linecap:square;stroke-width:3;"/>
    </g>
    <g id="line2d_15">
     <g>
      <use style="fill:#0000ff;" x="309.904375" xlink:href="#m10ad75dd23" y="19.857812"/>
     </g>
    </g>
    <g id="text_7">
     <!-- p,q-trace -->
     <g transform="translate(327.904375 23.357812)scale(0.1 -0.1)">
      <defs>
       <path d="M 14.984375 45.125 
Q 19.921875 52.984375 29.78125 52.984375 
Q 39.984375 52.984375 45.890625 45.578125 
Q 51.8125 38.1875 51.8125 26.3125 
Q 51.8125 13.671875 45.265625 6.21875 
Q 38.71875 -1.21875 29.203125 -1.21875 
Q 20.84375 -1.21875 15.828125 5.421875 
L 15.578125 5.421875 
L 15.578125 -19.921875 
L 6.78125 -19.921875 
L 6.78125 51.8125 
L 14.796875 51.8125 
L 14.796875 45.125 
z
M 28.609375 6 
Q 34.765625 6 38.796875 11.109375 
Q 42.828125 16.21875 42.828125 26.3125 
Q 42.828125 35.84375 38.9375 40.96875 
Q 35.0625 46.09375 29 46.09375 
Q 22.75 46.09375 18.71875 40.375 
Q 14.703125 34.671875 14.703125 25.59375 
Q 14.703125 15.96875 18.546875 10.984375 
Q 22.40625 6 28.609375 6 
z
" id="ArialUnicodeMS-112"/>
       <path d="M 19 0 
Q 19 -6.203125 16.625 -9.46875 
Q 14.265625 -12.75 10.796875 -14.109375 
L 8.40625 -10.40625 
Q 13.875 -8.0625 13.921875 0 
L 8.984375 0 
L 8.984375 10.015625 
L 19 10.015625 
z
" id="ArialUnicodeMS-44"/>
       <path d="M 48.78125 -19.921875 
L 39.984375 -19.921875 
L 39.984375 5.421875 
L 39.796875 5.421875 
Q 34.71875 -1.21875 26.421875 -1.21875 
Q 16.84375 -1.21875 10.328125 6.21875 
Q 3.8125 13.671875 3.8125 26.3125 
Q 3.8125 38.1875 9.71875 45.578125 
Q 15.625 52.984375 25.78125 52.984375 
Q 35.640625 52.984375 40.578125 45.125 
L 40.828125 45.125 
L 40.828125 51.8125 
L 48.78125 51.8125 
z
M 27 6 
Q 33.203125 6 37.0625 10.984375 
Q 40.921875 15.96875 40.921875 25.59375 
Q 40.921875 34.671875 36.90625 40.375 
Q 32.90625 46.09375 26.609375 46.09375 
Q 20.5625 46.09375 16.671875 40.96875 
Q 12.796875 35.84375 12.796875 26.3125 
Q 12.796875 19.625 14.59375 15.078125 
Q 16.40625 10.546875 19.71875 8.265625 
Q 23.046875 6 27 6 
z
" id="ArialUnicodeMS-113"/>
       <path d="M 30.078125 21.484375 
L 3.21875 21.484375 
L 3.21875 30.328125 
L 30.078125 30.328125 
z
" id="ArialUnicodeMS-45"/>
       <path d="M 26.90625 0.09375 
Q 23 -0.6875 20.3125 -0.6875 
Q 14.546875 -0.6875 11.90625 1.34375 
Q 9.28125 3.375 8.6875 6.5 
Q 8.109375 9.625 8.109375 15.1875 
L 8.109375 45.015625 
L 1.703125 45.015625 
L 1.703125 51.8125 
L 8.109375 51.8125 
L 8.109375 64.703125 
L 16.890625 70.015625 
L 16.890625 51.8125 
L 25.6875 51.8125 
L 25.6875 45.015625 
L 16.890625 45.015625 
L 16.890625 14.703125 
Q 16.890625 10.796875 17.6875 9.15625 
Q 18.5 7.515625 21.78125 7.515625 
Q 23.6875 7.515625 25.6875 7.90625 
z
" id="ArialUnicodeMS-116"/>
       <path d="M 34.625 50.203125 
L 31.59375 42.09375 
Q 28.328125 44 25.203125 44 
Q 20.265625 44 17.71875 39.578125 
Q 15.1875 35.15625 15.1875 27.203125 
L 15.1875 0 
L 6.390625 0 
L 6.390625 51.8125 
L 14.40625 51.8125 
L 14.40625 44 
L 14.59375 44 
Q 18.796875 52.984375 25.59375 52.984375 
Q 30.078125 52.984375 34.625 50.203125 
z
" id="ArialUnicodeMS-114"/>
       <path d="M 51.609375 0 
L 42.390625 0 
Q 41.109375 2.4375 40.578125 6.390625 
Q 31.734375 -1.21875 21.484375 -1.21875 
Q 13.28125 -1.21875 8.546875 2.875 
Q 3.8125 6.984375 3.8125 13.71875 
Q 3.8125 20.171875 8.375 24.34375 
Q 12.9375 28.515625 24.21875 29.890625 
L 32.421875 31.109375 
Q 37.015625 31.84375 39.984375 32.90625 
Q 39.984375 36.859375 39.734375 38.5 
Q 39.5 40.140625 38.296875 41.890625 
Q 37.109375 43.65625 34.46875 44.71875 
Q 31.84375 45.796875 27.390625 45.796875 
Q 21.734375 45.796875 18.4375 43.703125 
Q 15.140625 41.609375 13.921875 35.890625 
L 5.328125 37.015625 
Q 6.734375 44.96875 12.59375 48.96875 
Q 18.453125 52.984375 28.71875 52.984375 
Q 38.03125 52.984375 42.40625 50.21875 
Q 46.78125 47.46875 47.78125 43.5625 
Q 48.78125 39.65625 48.78125 33.5 
L 48.78125 21.6875 
Q 48.78125 10.890625 49.1875 7.203125 
Q 49.609375 3.515625 51.609375 0 
z
M 39.984375 22.796875 
L 39.984375 25.984375 
Q 33.109375 23.6875 23.140625 22.34375 
Q 13.1875 21 13.1875 13.921875 
Q 13.1875 10.359375 15.875 8.03125 
Q 18.5625 5.71875 23.578125 5.71875 
Q 30.078125 5.71875 35.03125 9.59375 
Q 39.984375 13.484375 39.984375 22.796875 
z
" id="ArialUnicodeMS-97"/>
       <path d="M 49.125 17.921875 
Q 47.40625 8.015625 41.296875 3.390625 
Q 35.203125 -1.21875 27.484375 -1.21875 
Q 16.21875 -1.21875 10.0625 6.171875 
Q 3.90625 13.578125 3.90625 25.78125 
Q 3.90625 35.890625 7.4375 41.96875 
Q 10.984375 48.046875 16.296875 50.515625 
Q 21.625 52.984375 27.484375 52.984375 
Q 35.5 52.984375 41.1875 48.828125 
Q 46.875 44.671875 48.1875 36.625 
L 39.703125 35.296875 
Q 38.375 40.53125 35.421875 43.15625 
Q 32.46875 45.796875 27.875 45.796875 
Q 20.515625 45.796875 16.703125 40.578125 
Q 12.890625 35.359375 12.890625 25.984375 
Q 12.890625 16.40625 16.625 11.203125 
Q 20.359375 6 27.390625 6 
Q 33.0625 6 36.296875 9.25 
Q 39.546875 12.5 40.375 19 
z
" id="ArialUnicodeMS-99"/>
       <path d="M 51.703125 23.6875 
L 12.890625 23.6875 
Q 13.421875 15.09375 17.796875 10.546875 
Q 22.171875 6 28.71875 6 
Q 33.734375 6 37.15625 8.65625 
Q 40.578125 11.328125 42.390625 16.703125 
L 51.421875 15.578125 
Q 49.21875 7.46875 43.359375 3.125 
Q 37.5 -1.21875 28.71875 -1.21875 
Q 17.046875 -1.21875 10.46875 5.9375 
Q 3.90625 13.09375 3.90625 25.484375 
Q 3.90625 37.75 10.28125 45.359375 
Q 16.65625 52.984375 28.21875 52.984375 
Q 33.890625 52.984375 39.140625 50.484375 
Q 44.390625 48 48.046875 42.015625 
Q 51.703125 36.03125 51.703125 23.6875 
z
M 42.671875 30.90625 
Q 42.140625 38.8125 37.765625 42.296875 
Q 33.40625 45.796875 28.21875 45.796875 
Q 22.015625 45.796875 18.015625 41.640625 
Q 14.015625 37.5 13.375 30.90625 
z
" id="ArialUnicodeMS-101"/>
      </defs>
      <use xlink:href="#ArialUnicodeMS-112"/>
      <use x="55.615234" xlink:href="#ArialUnicodeMS-44"/>
      <use x="83.398438" xlink:href="#ArialUnicodeMS-113"/>
      <use x="139.013672" xlink:href="#ArialUnicodeMS-45"/>
      <use x="172.314453" xlink:href="#ArialUnicodeMS-116"/>
      <use x="200.097656" xlink:href="#ArialUnicodeMS-114"/>
      <use x="233.398438" xlink:href="#ArialUnicodeMS-97"/>
      <use x="289.013672" xlink:href="#ArialUnicodeMS-99"/>
      <use x="339.013672" xlink:href="#ArialUnicodeMS-101"/>
     </g>
    </g>
   </g>
  </g>
 </g>
 <defs>
  <clipPath id="pfc52eb3e45">
   <rect height="217.44" width="334.8" x="41.56375" y="7.2"/>
  </clipPath>
 </defs>
</svg>
