<?xml version="1.0" encoding="utf-8" standalone="no"?>
<!DOCTYPE svg PUBLIC "-//W3C//DTD SVG 1.1//EN"
  "http://www.w3.org/Graphics/SVG/1.1/DTD/svg11.dtd">
<!-- Created with matplotlib (https://matplotlib.org/) -->
<svg height="260.8pt" version="1.1" viewBox="0 0 437.474323 260.8" width="437.474323pt" xmlns="http://www.w3.org/2000/svg" xmlns:xlink="http://www.w3.org/1999/xlink">
 <metadata>
  <rdf:RDF xmlns:cc="http://creativecommons.org/ns#" xmlns:dc="http://purl.org/dc/elements/1.1/" xmlns:rdf="http://www.w3.org/1999/02/22-rdf-syntax-ns#">
   <cc:Work>
    <dc:type rdf:resource="http://purl.org/dc/dcmitype/StillImage"/>
    <dc:date>2021-06-25T12:39:46.451439</dc:date>
    <dc:format>image/svg+xml</dc:format>
    <dc:creator>
     <cc:Agent>
      <dc:title>Matplotlib v3.3.4, https://matplotlib.org/</dc:title>
     </cc:Agent>
    </dc:creator>
   </cc:Work>
  </rdf:RDF>
 </metadata>
 <defs>
  <style type="text/css">*{stroke-linecap:butt;stroke-linejoin:round;}</style>
 </defs>
 <g id="figure_1">
  <g id="patch_1">
   <path d="M 0 260.8 
L 437.474323 260.8 
L 437.474323 0 
L 0 0 
z
" style="fill:none;"/>
  </g>
  <g id="axes_1">
   <g id="patch_2">
    <path d="M 87.59875 224.64 
L 422.39875 224.64 
L 422.39875 7.2 
L 87.59875 7.2 
z
" style="fill:#ffffff;"/>
   </g>
   <g id="matplotlib.axis_1">
    <g id="xtick_1">
     <g id="line2d_1">
      <defs>
       <path d="M 0 0 
L 0 -7.5 
" id="ma2f0dfd274" style="stroke:#000000;stroke-width:1.2;"/>
      </defs>
      <g>
       <use style="stroke:#000000;stroke-width:1.2;" x="102.816932" xlink:href="#ma2f0dfd274" y="224.64"/>
      </g>
     </g>
     <g id="line2d_2">
      <defs>
       <path d="M 0 0 
L 0 7.5 
" id="m397c5d676e" style="stroke:#000000;stroke-width:1.2;"/>
      </defs>
      <g>
       <use style="stroke:#000000;stroke-width:1.2;" x="102.816932" xlink:href="#m397c5d676e" y="7.2"/>
      </g>
     </g>
     <g id="text_1">
      <!-- 0 -->
      <g transform="translate(96.143807 248.81875)scale(0.24 -0.24)">
       <defs>
        <path d="M 27.78125 71.921875 
Q 51.125 71.921875 51.125 35.296875 
Q 51.125 16.796875 45.09375 7.78125 
Q 39.0625 -1.21875 27.78125 -1.21875 
Q 4.5 -1.21875 4.5 35.296875 
Q 4.5 53.8125 10.515625 62.859375 
Q 16.546875 71.921875 27.78125 71.921875 
z
M 27.78125 6 
Q 34.859375 6 38.46875 12.859375 
Q 42.09375 19.734375 42.09375 35.296875 
Q 42.09375 46.140625 40.5 52.359375 
Q 38.921875 58.59375 35.71875 61.640625 
Q 32.515625 64.703125 27.6875 64.703125 
Q 20.609375 64.703125 17.046875 57.71875 
Q 13.484375 50.734375 13.484375 35.296875 
Q 13.484375 24.609375 15.09375 18.359375 
Q 16.703125 12.109375 19.875 9.046875 
Q 23.046875 6 27.78125 6 
z
" id="ArialUnicodeMS-48"/>
       </defs>
       <use xlink:href="#ArialUnicodeMS-48"/>
      </g>
     </g>
    </g>
    <g id="xtick_2">
     <g id="line2d_3">
      <g>
       <use style="stroke:#000000;stroke-width:1.2;" x="256.53594" xlink:href="#ma2f0dfd274" y="224.64"/>
      </g>
     </g>
     <g id="line2d_4">
      <g>
       <use style="stroke:#000000;stroke-width:1.2;" x="256.53594" xlink:href="#m397c5d676e" y="7.2"/>
      </g>
     </g>
     <g id="text_2">
      <!-- 50 -->
      <g transform="translate(243.18969 248.81875)scale(0.24 -0.24)">
       <defs>
        <path d="M 15.828125 43.015625 
Q 22.359375 47.515625 29.390625 47.515625 
Q 38.328125 47.515625 44.96875 41.1875 
Q 51.609375 34.859375 51.609375 24.3125 
Q 51.609375 13.671875 44.875 6.21875 
Q 38.140625 -1.21875 27.203125 -1.21875 
Q 18.265625 -1.21875 11.71875 3.828125 
Q 5.171875 8.890625 4.203125 18.796875 
L 13.375 19.484375 
Q 14.5 12.703125 18.15625 9.34375 
Q 21.828125 6 27.203125 6 
Q 33.890625 6 38.03125 11.046875 
Q 42.1875 16.109375 42.1875 23.484375 
Q 42.1875 31 37.9375 35.34375 
Q 33.6875 39.703125 27 39.703125 
Q 18.5625 39.703125 14.015625 32.8125 
L 5.71875 33.796875 
L 12.703125 70.609375 
L 48.1875 70.609375 
L 48.1875 62.109375 
L 19.671875 62.109375 
z
" id="ArialUnicodeMS-53"/>
       </defs>
       <use xlink:href="#ArialUnicodeMS-53"/>
       <use x="55.615234" xlink:href="#ArialUnicodeMS-48"/>
      </g>
     </g>
    </g>
    <g id="xtick_3">
     <g id="line2d_5">
      <g>
       <use style="stroke:#000000;stroke-width:1.2;" x="410.254948" xlink:href="#ma2f0dfd274" y="224.64"/>
      </g>
     </g>
     <g id="line2d_6">
      <g>
       <use style="stroke:#000000;stroke-width:1.2;" x="410.254948" xlink:href="#m397c5d676e" y="7.2"/>
      </g>
     </g>
     <g id="text_3">
      <!-- 100 -->
      <g transform="translate(390.235573 248.81875)scale(0.24 -0.24)">
       <defs>
        <path d="M 37.5 0 
L 28.71875 0 
L 28.71875 56 
Q 22.125 49.75 11.078125 45.40625 
L 11.078125 53.90625 
Q 26.265625 61.1875 31.78125 71.921875 
L 37.5 71.921875 
z
" id="ArialUnicodeMS-49"/>
       </defs>
       <use xlink:href="#ArialUnicodeMS-49"/>
       <use x="55.615234" xlink:href="#ArialUnicodeMS-48"/>
       <use x="111.230469" xlink:href="#ArialUnicodeMS-48"/>
      </g>
     </g>
    </g>
   </g>
   <g id="matplotlib.axis_2">
    <g id="ytick_1">
     <g id="line2d_7">
      <defs>
       <path d="M 0 0 
L 7.5 0 
" id="me61668c135" style="stroke:#000000;stroke-width:1.2;"/>
      </defs>
      <g>
       <use style="stroke:#000000;stroke-width:1.2;" x="87.59875" xlink:href="#me61668c135" y="203.631358"/>
      </g>
     </g>
     <g id="line2d_8">
      <defs>
       <path d="M 0 0 
L -7.5 0 
" id="m73976f94d5" style="stroke:#000000;stroke-width:1.2;"/>
      </defs>
      <g>
       <use style="stroke:#000000;stroke-width:1.2;" x="422.39875" xlink:href="#m73976f94d5" y="203.631358"/>
      </g>
     </g>
     <g id="text_4">
      <!-- 0.4998 -->
      <g transform="translate(7.2 212.220733)scale(0.24 -0.24)">
       <defs>
        <path d="M 18.890625 0 
L 8.890625 0 
L 8.890625 10.015625 
L 18.890625 10.015625 
z
" id="ArialUnicodeMS-46"/>
        <path d="M 50.984375 17.09375 
L 41.3125 17.09375 
L 41.3125 0 
L 32.515625 0 
L 32.515625 17.09375 
L 1.515625 17.09375 
L 1.515625 25.203125 
L 34.078125 71.578125 
L 41.3125 71.578125 
L 41.3125 25.203125 
L 50.984375 25.203125 
z
M 32.515625 25.203125 
L 32.515625 57.515625 
L 32.328125 57.515625 
L 10.109375 25.203125 
z
" id="ArialUnicodeMS-52"/>
        <path d="M 42.390625 33.6875 
Q 39.796875 29.5 35.28125 26.90625 
Q 30.765625 24.3125 25.484375 24.3125 
Q 16.65625 24.3125 10.46875 30.78125 
Q 4.296875 37.25 4.296875 47.703125 
Q 4.296875 58.34375 10.59375 65.125 
Q 16.890625 71.921875 26.8125 71.921875 
Q 36.765625 71.921875 44.03125 64.15625 
Q 51.3125 56.390625 51.3125 37.3125 
Q 51.3125 17.921875 44.671875 8.34375 
Q 38.03125 -1.21875 25.6875 -1.21875 
Q 17.625 -1.21875 12.203125 3.203125 
Q 6.78125 7.625 5.609375 16.609375 
L 14.015625 17.28125 
Q 16.015625 6 25.875 6 
Q 33.984375 6 38.28125 13.390625 
Q 42.578125 20.796875 42.578125 33.6875 
z
M 27.59375 31.984375 
Q 34.03125 31.984375 37.8125 36.546875 
Q 41.609375 41.109375 41.609375 48.09375 
Q 41.609375 55.171875 37.71875 59.9375 
Q 33.84375 64.703125 27.78125 64.703125 
Q 21.6875 64.703125 17.484375 59.640625 
Q 13.28125 54.59375 13.28125 47.40625 
Q 13.28125 40.625 17.40625 36.296875 
Q 21.53125 31.984375 27.59375 31.984375 
z
" id="ArialUnicodeMS-57"/>
        <path d="M 37.890625 38.71875 
Q 51.3125 34.421875 51.3125 20.40625 
Q 51.3125 11.1875 44.71875 4.984375 
Q 38.140625 -1.21875 27.78125 -1.21875 
Q 17.328125 -1.21875 10.765625 5.03125 
Q 4.203125 11.28125 4.203125 20.703125 
Q 4.203125 27.484375 7.890625 32.5625 
Q 11.578125 37.640625 17.828125 38.71875 
L 17.828125 38.921875 
Q 7.078125 42.234375 7.078125 53.421875 
Q 7.078125 61.328125 12.734375 66.625 
Q 18.40625 71.921875 27.59375 71.921875 
Q 36.921875 71.921875 42.65625 66.453125 
Q 48.390625 60.984375 48.390625 53.21875 
Q 48.390625 42.671875 37.890625 38.921875 
z
M 27.78125 42.1875 
Q 32.71875 42.1875 36.0625 45.328125 
Q 39.40625 48.484375 39.40625 53.21875 
Q 39.40625 58.0625 36.015625 61.375 
Q 32.625 64.703125 27.6875 64.703125 
Q 22.65625 64.703125 19.375 61.421875 
Q 16.109375 58.15625 16.109375 53.71875 
Q 16.109375 48.390625 19.484375 45.28125 
Q 22.859375 42.1875 27.78125 42.1875 
z
M 27.78125 6 
Q 33.984375 6 38.125 10 
Q 42.28125 14.015625 42.28125 20.40625 
Q 42.28125 26.8125 38 30.90625 
Q 33.734375 35.015625 27.59375 35.015625 
Q 21.1875 35.015625 17.1875 30.78125 
Q 13.1875 26.5625 13.1875 20.609375 
Q 13.1875 14.40625 17.3125 10.203125 
Q 21.4375 6 27.78125 6 
z
" id="ArialUnicodeMS-56"/>
       </defs>
       <use xlink:href="#ArialUnicodeMS-48"/>
       <use x="55.615234" xlink:href="#ArialUnicodeMS-46"/>
       <use x="83.398438" xlink:href="#ArialUnicodeMS-52"/>
       <use x="139.013672" xlink:href="#ArialUnicodeMS-57"/>
       <use x="194.628906" xlink:href="#ArialUnicodeMS-57"/>
       <use x="250.244141" xlink:href="#ArialUnicodeMS-56"/>
      </g>
     </g>
    </g>
    <g id="ytick_2">
     <g id="line2d_9">
      <g>
       <use style="stroke:#000000;stroke-width:1.2;" x="87.59875" xlink:href="#me61668c135" y="141.086119"/>
      </g>
     </g>
     <g id="line2d_10">
      <g>
       <use style="stroke:#000000;stroke-width:1.2;" x="422.39875" xlink:href="#m73976f94d5" y="141.086119"/>
      </g>
     </g>
     <g id="text_5">
      <!-- 0.5000 -->
      <g transform="translate(7.2 149.675494)scale(0.24 -0.24)">
       <use xlink:href="#ArialUnicodeMS-48"/>
       <use x="55.615234" xlink:href="#ArialUnicodeMS-46"/>
       <use x="83.398438" xlink:href="#ArialUnicodeMS-53"/>
       <use x="139.013672" xlink:href="#ArialUnicodeMS-48"/>
       <use x="194.628906" xlink:href="#ArialUnicodeMS-48"/>
       <use x="250.244141" xlink:href="#ArialUnicodeMS-48"/>
      </g>
     </g>
    </g>
    <g id="ytick_3">
     <g id="line2d_11">
      <g>
       <use style="stroke:#000000;stroke-width:1.2;" x="87.59875" xlink:href="#me61668c135" y="78.540881"/>
      </g>
     </g>
     <g id="line2d_12">
      <g>
       <use style="stroke:#000000;stroke-width:1.2;" x="422.39875" xlink:href="#m73976f94d5" y="78.540881"/>
      </g>
     </g>
     <g id="text_6">
      <!-- 0.5002 -->
      <g transform="translate(7.2 87.130256)scale(0.24 -0.24)">
       <defs>
        <path d="M 50.484375 0 
L 3.078125 0 
Q 3.078125 6.0625 7.296875 12.25 
Q 11.53125 18.453125 23.09375 27.78125 
Q 30.171875 33.453125 35.734375 39.671875 
Q 41.3125 45.90625 41.3125 52.203125 
Q 41.3125 57.625 37.46875 61.15625 
Q 33.640625 64.703125 27.78125 64.703125 
Q 21.875 64.703125 17.875 61.0625 
Q 13.875 57.421875 13.8125 50.203125 
L 4.78125 51.21875 
Q 5.609375 61.28125 11.9375 66.59375 
Q 18.265625 71.921875 27.984375 71.921875 
Q 38.53125 71.921875 44.40625 66.078125 
Q 50.296875 60.25 50.296875 52 
Q 50.296875 45.125 45.328125 38.0625 
Q 40.375 31 25.59375 19.1875 
Q 17.828125 12.984375 15.28125 8.5 
L 50.484375 8.5 
z
" id="ArialUnicodeMS-50"/>
       </defs>
       <use xlink:href="#ArialUnicodeMS-48"/>
       <use x="55.615234" xlink:href="#ArialUnicodeMS-46"/>
       <use x="83.398438" xlink:href="#ArialUnicodeMS-53"/>
       <use x="139.013672" xlink:href="#ArialUnicodeMS-48"/>
       <use x="194.628906" xlink:href="#ArialUnicodeMS-48"/>
       <use x="250.244141" xlink:href="#ArialUnicodeMS-50"/>
      </g>
     </g>
    </g>
    <g id="ytick_4">
     <g id="line2d_13">
      <g>
       <use style="stroke:#000000;stroke-width:1.2;" x="87.59875" xlink:href="#me61668c135" y="15.995642"/>
      </g>
     </g>
     <g id="line2d_14">
      <g>
       <use style="stroke:#000000;stroke-width:1.2;" x="422.39875" xlink:href="#m73976f94d5" y="15.995642"/>
      </g>
     </g>
     <g id="text_7">
      <!-- 0.5004 -->
      <g transform="translate(7.2 24.585017)scale(0.24 -0.24)">
       <use xlink:href="#ArialUnicodeMS-48"/>
       <use x="55.615234" xlink:href="#ArialUnicodeMS-46"/>
       <use x="83.398438" xlink:href="#ArialUnicodeMS-53"/>
       <use x="139.013672" xlink:href="#ArialUnicodeMS-48"/>
       <use x="194.628906" xlink:href="#ArialUnicodeMS-48"/>
       <use x="250.244141" xlink:href="#ArialUnicodeMS-52"/>
      </g>
     </g>
    </g>
   </g>
   <g id="line2d_15">
    <path clip-path="url(#p772581c09a)" d="M 102.816932 141.086119 
L 105.891312 138.661297 
L 108.965692 129.365856 
L 112.040072 137.196125 
L 115.114452 141.521533 
L 118.188833 85.05953 
L 121.263213 46.58301 
L 124.337593 85.437098 
L 127.411973 144.549839 
L 130.486353 126.809509 
L 133.560733 43.266575 
L 136.635114 18.347534 
L 139.709494 83.646897 
L 142.783874 148.675421 
L 145.858254 121.060113 
L 148.932634 41.627844 
L 152.007014 29.626963 
L 155.081395 99.477686 
L 158.155775 153.796676 
L 161.230155 122.524707 
L 164.304535 71.095113 
L 167.378915 84.799883 
L 170.453295 143.937266 
L 173.527676 153.602506 
L 176.602056 71.807428 
L 179.676436 17.083636 
L 182.750816 61.921786 
L 185.825196 143.545059 
L 188.899576 152.295233 
L 191.973957 82.9637 
L 195.048337 47.77746 
L 198.122717 97.199363 
L 201.197097 160.38364 
L 204.271477 141.398932 
L 207.345857 64.719075 
L 210.420238 47.902902 
L 213.494618 112.99379 
L 216.568998 168.190148 
L 219.643378 127.671549 
L 222.717758 47.280954 
L 225.792138 44.491681 
L 228.866519 120.334758 
L 231.940899 170.410951 
L 235.015279 131.013775 
L 238.089659 76.411497 
L 241.164039 93.501616 
L 244.238419 157.455846 
L 247.3128 169.504175 
L 250.38718 89.01611 
L 253.46156 33.664996 
L 256.53594 77.214654 
L 259.61032 158.552962 
L 262.6847 167.512639 
L 265.759081 93.898246 
L 268.833461 53.619258 
L 271.907841 102.775061 
L 274.982221 171.725048 
L 278.056601 163.082606 
L 281.130981 99.015935 
L 284.205362 85.20809 
L 287.279742 142.504754 
L 290.354122 186.28029 
L 293.428502 134.350958 
L 296.502882 54.615305 
L 299.577262 60.662228 
L 302.651643 141.119712 
L 305.726023 186.570113 
L 308.800403 139.359244 
L 311.874783 82.408646 
L 314.949163 103.100279 
L 318.023543 171.324369 
L 321.097924 185.177314 
L 324.172304 108.749447 
L 327.246684 56.896978 
L 330.321064 100.261999 
L 333.395444 177.742009 
L 336.469824 181.396904 
L 339.544205 102.730565 
L 342.618585 62.306466 
L 345.692965 114.715627 
L 348.767345 186.448339 
L 351.841725 180.095508 
L 354.916105 121.705928 
L 357.990486 111.226693 
L 361.064866 165.750175 
L 364.139246 202.562174 
L 367.213626 142.70092 
L 370.288006 65.212533 
L 373.362386 78.517424 
L 376.436767 161.409052 
L 379.511147 201.920261 
L 382.585527 147.399913 
L 385.659907 88.675175 
L 388.734287 112.934878 
L 391.808667 184.980241 
L 394.883048 202.567194 
L 397.957428 159.689854 
L 401.031808 142.507749 
L 404.106188 182.438106 
L 407.180568 214.756364 
" style="fill:none;stroke:#ff0000;stroke-linecap:square;stroke-width:3;"/>
    <defs>
     <path d="M -0.49999 0.49999 
L 0.50001 0.49999 
L 0.50001 -0.50001 
L -0.49999 -0.50001 
z
" id="mde0b160ca5"/>
    </defs>
    <g clip-path="url(#p772581c09a)">
     <use style="fill:#ff0000;" x="102.816932" xlink:href="#mde0b160ca5" y="141.086119"/>
     <use style="fill:#ff0000;" x="105.891312" xlink:href="#mde0b160ca5" y="138.661297"/>
     <use style="fill:#ff0000;" x="108.965692" xlink:href="#mde0b160ca5" y="129.365856"/>
     <use style="fill:#ff0000;" x="112.040072" xlink:href="#mde0b160ca5" y="137.196125"/>
     <use style="fill:#ff0000;" x="115.114452" xlink:href="#mde0b160ca5" y="141.521533"/>
     <use style="fill:#ff0000;" x="118.188833" xlink:href="#mde0b160ca5" y="85.05953"/>
     <use style="fill:#ff0000;" x="121.263213" xlink:href="#mde0b160ca5" y="46.58301"/>
     <use style="fill:#ff0000;" x="124.337593" xlink:href="#mde0b160ca5" y="85.437098"/>
     <use style="fill:#ff0000;" x="127.411973" xlink:href="#mde0b160ca5" y="144.549839"/>
     <use style="fill:#ff0000;" x="130.486353" xlink:href="#mde0b160ca5" y="126.809509"/>
     <use style="fill:#ff0000;" x="133.560733" xlink:href="#mde0b160ca5" y="43.266575"/>
     <use style="fill:#ff0000;" x="136.635114" xlink:href="#mde0b160ca5" y="18.347534"/>
     <use style="fill:#ff0000;" x="139.709494" xlink:href="#mde0b160ca5" y="83.646897"/>
     <use style="fill:#ff0000;" x="142.783874" xlink:href="#mde0b160ca5" y="148.675421"/>
     <use style="fill:#ff0000;" x="145.858254" xlink:href="#mde0b160ca5" y="121.060113"/>
     <use style="fill:#ff0000;" x="148.932634" xlink:href="#mde0b160ca5" y="41.627844"/>
     <use style="fill:#ff0000;" x="152.007014" xlink:href="#mde0b160ca5" y="29.626963"/>
     <use style="fill:#ff0000;" x="155.081395" xlink:href="#mde0b160ca5" y="99.477686"/>
     <use style="fill:#ff0000;" x="158.155775" xlink:href="#mde0b160ca5" y="153.796676"/>
     <use style="fill:#ff0000;" x="161.230155" xlink:href="#mde0b160ca5" y="122.524707"/>
     <use style="fill:#ff0000;" x="164.304535" xlink:href="#mde0b160ca5" y="71.095113"/>
     <use style="fill:#ff0000;" x="167.378915" xlink:href="#mde0b160ca5" y="84.799883"/>
     <use style="fill:#ff0000;" x="170.453295" xlink:href="#mde0b160ca5" y="143.937266"/>
     <use style="fill:#ff0000;" x="173.527676" xlink:href="#mde0b160ca5" y="153.602506"/>
     <use style="fill:#ff0000;" x="176.602056" xlink:href="#mde0b160ca5" y="71.807428"/>
     <use style="fill:#ff0000;" x="179.676436" xlink:href="#mde0b160ca5" y="17.083636"/>
     <use style="fill:#ff0000;" x="182.750816" xlink:href="#mde0b160ca5" y="61.921786"/>
     <use style="fill:#ff0000;" x="185.825196" xlink:href="#mde0b160ca5" y="143.545059"/>
     <use style="fill:#ff0000;" x="188.899576" xlink:href="#mde0b160ca5" y="152.295233"/>
     <use style="fill:#ff0000;" x="191.973957" xlink:href="#mde0b160ca5" y="82.9637"/>
     <use style="fill:#ff0000;" x="195.048337" xlink:href="#mde0b160ca5" y="47.77746"/>
     <use style="fill:#ff0000;" x="198.122717" xlink:href="#mde0b160ca5" y="97.199363"/>
     <use style="fill:#ff0000;" x="201.197097" xlink:href="#mde0b160ca5" y="160.38364"/>
     <use style="fill:#ff0000;" x="204.271477" xlink:href="#mde0b160ca5" y="141.398932"/>
     <use style="fill:#ff0000;" x="207.345857" xlink:href="#mde0b160ca5" y="64.719075"/>
     <use style="fill:#ff0000;" x="210.420238" xlink:href="#mde0b160ca5" y="47.902902"/>
     <use style="fill:#ff0000;" x="213.494618" xlink:href="#mde0b160ca5" y="112.99379"/>
     <use style="fill:#ff0000;" x="216.568998" xlink:href="#mde0b160ca5" y="168.190148"/>
     <use style="fill:#ff0000;" x="219.643378" xlink:href="#mde0b160ca5" y="127.671549"/>
     <use style="fill:#ff0000;" x="222.717758" xlink:href="#mde0b160ca5" y="47.280954"/>
     <use style="fill:#ff0000;" x="225.792138" xlink:href="#mde0b160ca5" y="44.491681"/>
     <use style="fill:#ff0000;" x="228.866519" xlink:href="#mde0b160ca5" y="120.334758"/>
     <use style="fill:#ff0000;" x="231.940899" xlink:href="#mde0b160ca5" y="170.410951"/>
     <use style="fill:#ff0000;" x="235.015279" xlink:href="#mde0b160ca5" y="131.013775"/>
     <use style="fill:#ff0000;" x="238.089659" xlink:href="#mde0b160ca5" y="76.411497"/>
     <use style="fill:#ff0000;" x="241.164039" xlink:href="#mde0b160ca5" y="93.501616"/>
     <use style="fill:#ff0000;" x="244.238419" xlink:href="#mde0b160ca5" y="157.455846"/>
     <use style="fill:#ff0000;" x="247.3128" xlink:href="#mde0b160ca5" y="169.504175"/>
     <use style="fill:#ff0000;" x="250.38718" xlink:href="#mde0b160ca5" y="89.01611"/>
     <use style="fill:#ff0000;" x="253.46156" xlink:href="#mde0b160ca5" y="33.664996"/>
     <use style="fill:#ff0000;" x="256.53594" xlink:href="#mde0b160ca5" y="77.214654"/>
     <use style="fill:#ff0000;" x="259.61032" xlink:href="#mde0b160ca5" y="158.552962"/>
     <use style="fill:#ff0000;" x="262.6847" xlink:href="#mde0b160ca5" y="167.512639"/>
     <use style="fill:#ff0000;" x="265.759081" xlink:href="#mde0b160ca5" y="93.898246"/>
     <use style="fill:#ff0000;" x="268.833461" xlink:href="#mde0b160ca5" y="53.619258"/>
     <use style="fill:#ff0000;" x="271.907841" xlink:href="#mde0b160ca5" y="102.775061"/>
     <use style="fill:#ff0000;" x="274.982221" xlink:href="#mde0b160ca5" y="171.725048"/>
     <use style="fill:#ff0000;" x="278.056601" xlink:href="#mde0b160ca5" y="163.082606"/>
     <use style="fill:#ff0000;" x="281.130981" xlink:href="#mde0b160ca5" y="99.015935"/>
     <use style="fill:#ff0000;" x="284.205362" xlink:href="#mde0b160ca5" y="85.20809"/>
     <use style="fill:#ff0000;" x="287.279742" xlink:href="#mde0b160ca5" y="142.504754"/>
     <use style="fill:#ff0000;" x="290.354122" xlink:href="#mde0b160ca5" y="186.28029"/>
     <use style="fill:#ff0000;" x="293.428502" xlink:href="#mde0b160ca5" y="134.350958"/>
     <use style="fill:#ff0000;" x="296.502882" xlink:href="#mde0b160ca5" y="54.615305"/>
     <use style="fill:#ff0000;" x="299.577262" xlink:href="#mde0b160ca5" y="60.662228"/>
     <use style="fill:#ff0000;" x="302.651643" xlink:href="#mde0b160ca5" y="141.119712"/>
     <use style="fill:#ff0000;" x="305.726023" xlink:href="#mde0b160ca5" y="186.570113"/>
     <use style="fill:#ff0000;" x="308.800403" xlink:href="#mde0b160ca5" y="139.359244"/>
     <use style="fill:#ff0000;" x="311.874783" xlink:href="#mde0b160ca5" y="82.408646"/>
     <use style="fill:#ff0000;" x="314.949163" xlink:href="#mde0b160ca5" y="103.100279"/>
     <use style="fill:#ff0000;" x="318.023543" xlink:href="#mde0b160ca5" y="171.324369"/>
     <use style="fill:#ff0000;" x="321.097924" xlink:href="#mde0b160ca5" y="185.177314"/>
     <use style="fill:#ff0000;" x="324.172304" xlink:href="#mde0b160ca5" y="108.749447"/>
     <use style="fill:#ff0000;" x="327.246684" xlink:href="#mde0b160ca5" y="56.896978"/>
     <use style="fill:#ff0000;" x="330.321064" xlink:href="#mde0b160ca5" y="100.261999"/>
     <use style="fill:#ff0000;" x="333.395444" xlink:href="#mde0b160ca5" y="177.742009"/>
     <use style="fill:#ff0000;" x="336.469824" xlink:href="#mde0b160ca5" y="181.396904"/>
     <use style="fill:#ff0000;" x="339.544205" xlink:href="#mde0b160ca5" y="102.730565"/>
     <use style="fill:#ff0000;" x="342.618585" xlink:href="#mde0b160ca5" y="62.306466"/>
     <use style="fill:#ff0000;" x="345.692965" xlink:href="#mde0b160ca5" y="114.715627"/>
     <use style="fill:#ff0000;" x="348.767345" xlink:href="#mde0b160ca5" y="186.448339"/>
     <use style="fill:#ff0000;" x="351.841725" xlink:href="#mde0b160ca5" y="180.095508"/>
     <use style="fill:#ff0000;" x="354.916105" xlink:href="#mde0b160ca5" y="121.705928"/>
     <use style="fill:#ff0000;" x="357.990486" xlink:href="#mde0b160ca5" y="111.226693"/>
     <use style="fill:#ff0000;" x="361.064866" xlink:href="#mde0b160ca5" y="165.750175"/>
     <use style="fill:#ff0000;" x="364.139246" xlink:href="#mde0b160ca5" y="202.562174"/>
     <use style="fill:#ff0000;" x="367.213626" xlink:href="#mde0b160ca5" y="142.70092"/>
     <use style="fill:#ff0000;" x="370.288006" xlink:href="#mde0b160ca5" y="65.212533"/>
     <use style="fill:#ff0000;" x="373.362386" xlink:href="#mde0b160ca5" y="78.517424"/>
     <use style="fill:#ff0000;" x="376.436767" xlink:href="#mde0b160ca5" y="161.409052"/>
     <use style="fill:#ff0000;" x="379.511147" xlink:href="#mde0b160ca5" y="201.920261"/>
     <use style="fill:#ff0000;" x="382.585527" xlink:href="#mde0b160ca5" y="147.399913"/>
     <use style="fill:#ff0000;" x="385.659907" xlink:href="#mde0b160ca5" y="88.675175"/>
     <use style="fill:#ff0000;" x="388.734287" xlink:href="#mde0b160ca5" y="112.934878"/>
     <use style="fill:#ff0000;" x="391.808667" xlink:href="#mde0b160ca5" y="184.980241"/>
     <use style="fill:#ff0000;" x="394.883048" xlink:href="#mde0b160ca5" y="202.567194"/>
     <use style="fill:#ff0000;" x="397.957428" xlink:href="#mde0b160ca5" y="159.689854"/>
     <use style="fill:#ff0000;" x="401.031808" xlink:href="#mde0b160ca5" y="142.507749"/>
     <use style="fill:#ff0000;" x="404.106188" xlink:href="#mde0b160ca5" y="182.438106"/>
     <use style="fill:#ff0000;" x="407.180568" xlink:href="#mde0b160ca5" y="214.756364"/>
    </g>
   </g>
   <g id="patch_3">
    <path d="M 87.59875 224.64 
L 87.59875 7.2 
" style="fill:none;stroke:#000000;stroke-linecap:square;stroke-linejoin:miter;stroke-width:2;"/>
   </g>
   <g id="patch_4">
    <path d="M 422.39875 224.64 
L 422.39875 7.2 
" style="fill:none;stroke:#000000;stroke-linecap:square;stroke-linejoin:miter;stroke-width:2;"/>
   </g>
   <g id="patch_5">
    <path d="M 87.59875 224.64 
L 422.39875 224.64 
" style="fill:none;stroke:#000000;stroke-linecap:square;stroke-linejoin:miter;stroke-width:2;"/>
   </g>
   <g id="patch_6">
    <path d="M 87.59875 7.2 
L 422.39875 7.2 
" style="fill:none;stroke:#000000;stroke-linecap:square;stroke-linejoin:miter;stroke-width:2;"/>
   </g>
   <g id="legend_1">
    <g id="patch_7">
     <path d="M 328.59875 29.35 
L 417.39875 29.35 
L 417.39875 12.2 
L 328.59875 12.2 
z
" style="fill:#ffffff;stroke:#000000;stroke-linejoin:miter;"/>
    </g>
    <g id="line2d_16">
     <path d="M 332.59875 19.857813 
L 352.59875 19.857813 
" style="fill:none;stroke:#ff0000;stroke-linecap:square;stroke-width:3;"/>
    </g>
    <g id="line2d_17">
     <g>
      <use style="fill:#ff0000;" x="342.59875" xlink:href="#mde0b160ca5" y="19.857813"/>
     </g>
    </g>
    <g id="text_8">
     <!-- Hamiltonian -->
     <g transform="translate(360.59875 23.357813)scale(0.1 -0.1)">
      <defs>
       <path d="M 64.203125 0 
L 54.6875 0 
L 54.6875 33.6875 
L 17.484375 33.6875 
L 17.484375 0 
L 8.015625 0 
L 8.015625 71.578125 
L 17.484375 71.578125 
L 17.484375 42.1875 
L 54.6875 42.1875 
L 54.6875 71.578125 
L 64.203125 71.578125 
z
" id="ArialUnicodeMS-72"/>
       <path d="M 51.609375 0 
L 42.390625 0 
Q 41.109375 2.4375 40.578125 6.390625 
Q 31.734375 -1.21875 21.484375 -1.21875 
Q 13.28125 -1.21875 8.546875 2.875 
Q 3.8125 6.984375 3.8125 13.71875 
Q 3.8125 20.171875 8.375 24.34375 
Q 12.9375 28.515625 24.21875 29.890625 
L 32.421875 31.109375 
Q 37.015625 31.84375 39.984375 32.90625 
Q 39.984375 36.859375 39.734375 38.5 
Q 39.5 40.140625 38.296875 41.890625 
Q 37.109375 43.65625 34.46875 44.71875 
Q 31.84375 45.796875 27.390625 45.796875 
Q 21.734375 45.796875 18.4375 43.703125 
Q 15.140625 41.609375 13.921875 35.890625 
L 5.328125 37.015625 
Q 6.734375 44.96875 12.59375 48.96875 
Q 18.453125 52.984375 28.71875 52.984375 
Q 38.03125 52.984375 42.40625 50.21875 
Q 46.78125 47.46875 47.78125 43.5625 
Q 48.78125 39.65625 48.78125 33.5 
L 48.78125 21.6875 
Q 48.78125 10.890625 49.1875 7.203125 
Q 49.609375 3.515625 51.609375 0 
z
M 39.984375 22.796875 
L 39.984375 25.984375 
Q 33.109375 23.6875 23.140625 22.34375 
Q 13.1875 21 13.1875 13.921875 
Q 13.1875 10.359375 15.875 8.03125 
Q 18.5625 5.71875 23.578125 5.71875 
Q 30.078125 5.71875 35.03125 9.59375 
Q 39.984375 13.484375 39.984375 22.796875 
z
" id="ArialUnicodeMS-97"/>
       <path d="M 76.90625 0 
L 68.109375 0 
L 68.109375 32.71875 
Q 68.109375 36.328125 67.625 38.890625 
Q 67.140625 41.453125 65.109375 43.421875 
Q 63.09375 45.40625 58.796875 45.40625 
Q 53.609375 45.40625 49.84375 41.796875 
Q 46.09375 38.1875 46.09375 30.078125 
L 46.09375 0 
L 37.3125 0 
L 37.3125 33.6875 
Q 37.3125 40.4375 34.9375 42.921875 
Q 32.5625 45.40625 28.21875 45.40625 
Q 22.5625 45.40625 18.921875 41.5 
Q 15.28125 37.59375 15.28125 26.90625 
L 15.28125 0 
L 6.5 0 
L 6.5 51.8125 
L 14.40625 51.8125 
L 14.40625 44.578125 
L 14.59375 44.578125 
Q 19.875 52.984375 30.078125 52.984375 
Q 35.796875 52.984375 39.484375 50.703125 
Q 43.171875 48.4375 44.828125 43.890625 
Q 50.59375 52.984375 60.796875 52.984375 
Q 68.84375 52.984375 72.875 48.625 
Q 76.90625 44.28125 76.90625 35.59375 
z
" id="ArialUnicodeMS-109"/>
       <path d="M 15.484375 0 
L 6.6875 0 
L 6.6875 51.8125 
L 15.484375 51.8125 
z
M 15.484375 61.625 
L 6.6875 61.625 
L 6.6875 71.578125 
L 15.484375 71.578125 
z
" id="ArialUnicodeMS-105"/>
       <path d="M 15.484375 0 
L 6.6875 0 
L 6.6875 71.578125 
L 15.484375 71.578125 
z
" id="ArialUnicodeMS-108"/>
       <path d="M 26.90625 0.09375 
Q 23 -0.6875 20.3125 -0.6875 
Q 14.546875 -0.6875 11.90625 1.34375 
Q 9.28125 3.375 8.6875 6.5 
Q 8.109375 9.625 8.109375 15.1875 
L 8.109375 45.015625 
L 1.703125 45.015625 
L 1.703125 51.8125 
L 8.109375 51.8125 
L 8.109375 64.703125 
L 16.890625 70.015625 
L 16.890625 51.8125 
L 25.6875 51.8125 
L 25.6875 45.015625 
L 16.890625 45.015625 
L 16.890625 14.703125 
Q 16.890625 10.796875 17.6875 9.15625 
Q 18.5 7.515625 21.78125 7.515625 
Q 23.6875 7.515625 25.6875 7.90625 
z
" id="ArialUnicodeMS-116"/>
       <path d="M 27.78125 52.984375 
Q 38.28125 52.984375 45.1875 46.140625 
Q 52.09375 39.3125 52.09375 26.703125 
Q 52.09375 11.421875 44.625 5.09375 
Q 37.15625 -1.21875 27.78125 -1.21875 
Q 17.96875 -1.21875 10.734375 5.265625 
Q 3.515625 11.765625 3.515625 25.875 
Q 3.515625 39.546875 10.5 46.265625 
Q 17.484375 52.984375 27.78125 52.984375 
z
M 27.78125 6 
Q 35.296875 6 39.203125 11.5625 
Q 43.109375 17.140625 43.109375 26.21875 
Q 43.109375 35.9375 38.6875 40.859375 
Q 34.28125 45.796875 27.78125 45.796875 
Q 21.09375 45.796875 16.796875 40.796875 
Q 12.5 35.796875 12.5 25.875 
Q 12.5 16.015625 16.859375 11 
Q 21.234375 6 27.78125 6 
z
" id="ArialUnicodeMS-111"/>
       <path d="M 49.03125 0 
L 40.1875 0 
L 40.1875 31.5 
Q 40.1875 39.453125 37.328125 42.421875 
Q 34.46875 45.40625 29.390625 45.40625 
Q 25.484375 45.40625 21.984375 43.5 
Q 18.5 41.609375 17.03125 38.140625 
Q 15.578125 34.671875 15.578125 28.328125 
L 15.578125 0 
L 6.78125 0 
L 6.78125 51.8125 
L 14.703125 51.8125 
L 14.703125 44.484375 
L 14.890625 44.484375 
Q 17.671875 48.734375 21.75 50.859375 
Q 25.828125 52.984375 31.203125 52.984375 
Q 35.296875 52.984375 39.296875 51.515625 
Q 43.3125 50.046875 45.578125 47.109375 
Q 47.859375 44.1875 48.4375 40.859375 
Q 49.03125 37.546875 49.03125 31.890625 
z
" id="ArialUnicodeMS-110"/>
      </defs>
      <use xlink:href="#ArialUnicodeMS-72"/>
      <use x="72.216797" xlink:href="#ArialUnicodeMS-97"/>
      <use x="127.832031" xlink:href="#ArialUnicodeMS-109"/>
      <use x="211.132812" xlink:href="#ArialUnicodeMS-105"/>
      <use x="233.349609" xlink:href="#ArialUnicodeMS-108"/>
      <use x="255.566406" xlink:href="#ArialUnicodeMS-116"/>
      <use x="283.349609" xlink:href="#ArialUnicodeMS-111"/>
      <use x="338.964844" xlink:href="#ArialUnicodeMS-110"/>
      <use x="394.580078" xlink:href="#ArialUnicodeMS-105"/>
      <use x="416.796875" xlink:href="#ArialUnicodeMS-97"/>
      <use x="472.412109" xlink:href="#ArialUnicodeMS-110"/>
     </g>
    </g>
   </g>
  </g>
 </g>
 <defs>
  <clipPath id="p772581c09a">
   <rect height="217.44" width="334.8" x="87.59875" y="7.2"/>
  </clipPath>
 </defs>
</svg>
