<?xml version="1.0" encoding="utf-8" standalone="no"?>
<!DOCTYPE svg PUBLIC "-//W3C//DTD SVG 1.1//EN"
  "http://www.w3.org/Graphics/SVG/1.1/DTD/svg11.dtd">
<!-- Created with matplotlib (https://matplotlib.org/) -->
<svg height="260.8pt" version="1.1" viewBox="0 0 383.56375 260.8" width="383.56375pt" xmlns="http://www.w3.org/2000/svg" xmlns:xlink="http://www.w3.org/1999/xlink">
 <metadata>
  <rdf:RDF xmlns:cc="http://creativecommons.org/ns#" xmlns:dc="http://purl.org/dc/elements/1.1/" xmlns:rdf="http://www.w3.org/1999/02/22-rdf-syntax-ns#">
   <cc:Work>
    <dc:type rdf:resource="http://purl.org/dc/dcmitype/StillImage"/>
    <dc:date>2021-06-25T12:39:48.260308</dc:date>
    <dc:format>image/svg+xml</dc:format>
    <dc:creator>
     <cc:Agent>
      <dc:title>Matplotlib v3.3.4, https://matplotlib.org/</dc:title>
     </cc:Agent>
    </dc:creator>
   </cc:Work>
  </rdf:RDF>
 </metadata>
 <defs>
  <style type="text/css">*{stroke-linecap:butt;stroke-linejoin:round;}</style>
 </defs>
 <g id="figure_1">
  <g id="patch_1">
   <path d="M 0 260.8 
L 383.56375 260.8 
L 383.56375 0 
L 0 0 
z
" style="fill:none;"/>
  </g>
  <g id="axes_1">
   <g id="patch_2">
    <path d="M 41.56375 224.64 
L 376.36375 224.64 
L 376.36375 7.2 
L 41.56375 7.2 
z
" style="fill:#ffffff;"/>
   </g>
   <g id="matplotlib.axis_1">
    <g id="xtick_1">
     <g id="line2d_1">
      <defs>
       <path d="M 0 0 
L 0 -7.5 
" id="mf6a7e6af73" style="stroke:#000000;stroke-width:1.2;"/>
      </defs>
      <g>
       <use style="stroke:#000000;stroke-width:1.2;" x="56.781932" xlink:href="#mf6a7e6af73" y="224.64"/>
      </g>
     </g>
     <g id="line2d_2">
      <defs>
       <path d="M 0 0 
L 0 7.5 
" id="m8e12365fe5" style="stroke:#000000;stroke-width:1.2;"/>
      </defs>
      <g>
       <use style="stroke:#000000;stroke-width:1.2;" x="56.781932" xlink:href="#m8e12365fe5" y="7.2"/>
      </g>
     </g>
     <g id="text_1">
      <!-- 0 -->
      <g transform="translate(50.108807 248.81875)scale(0.24 -0.24)">
       <defs>
        <path d="M 27.78125 71.921875 
Q 51.125 71.921875 51.125 35.296875 
Q 51.125 16.796875 45.09375 7.78125 
Q 39.0625 -1.21875 27.78125 -1.21875 
Q 4.5 -1.21875 4.5 35.296875 
Q 4.5 53.8125 10.515625 62.859375 
Q 16.546875 71.921875 27.78125 71.921875 
z
M 27.78125 6 
Q 34.859375 6 38.46875 12.859375 
Q 42.09375 19.734375 42.09375 35.296875 
Q 42.09375 46.140625 40.5 52.359375 
Q 38.921875 58.59375 35.71875 61.640625 
Q 32.515625 64.703125 27.6875 64.703125 
Q 20.609375 64.703125 17.046875 57.71875 
Q 13.484375 50.734375 13.484375 35.296875 
Q 13.484375 24.609375 15.09375 18.359375 
Q 16.703125 12.109375 19.875 9.046875 
Q 23.046875 6 27.78125 6 
z
" id="ArialUnicodeMS-48"/>
       </defs>
       <use xlink:href="#ArialUnicodeMS-48"/>
      </g>
     </g>
    </g>
    <g id="xtick_2">
     <g id="line2d_3">
      <g>
       <use style="stroke:#000000;stroke-width:1.2;" x="208.96375" xlink:href="#mf6a7e6af73" y="224.64"/>
      </g>
     </g>
     <g id="line2d_4">
      <g>
       <use style="stroke:#000000;stroke-width:1.2;" x="208.96375" xlink:href="#m8e12365fe5" y="7.2"/>
      </g>
     </g>
     <g id="text_2">
      <!-- 10 -->
      <g transform="translate(195.6175 248.81875)scale(0.24 -0.24)">
       <defs>
        <path d="M 37.5 0 
L 28.71875 0 
L 28.71875 56 
Q 22.125 49.75 11.078125 45.40625 
L 11.078125 53.90625 
Q 26.265625 61.1875 31.78125 71.921875 
L 37.5 71.921875 
z
" id="ArialUnicodeMS-49"/>
       </defs>
       <use xlink:href="#ArialUnicodeMS-49"/>
       <use x="55.615234" xlink:href="#ArialUnicodeMS-48"/>
      </g>
     </g>
    </g>
    <g id="xtick_3">
     <g id="line2d_5">
      <g>
       <use style="stroke:#000000;stroke-width:1.2;" x="361.145568" xlink:href="#mf6a7e6af73" y="224.64"/>
      </g>
     </g>
     <g id="line2d_6">
      <g>
       <use style="stroke:#000000;stroke-width:1.2;" x="361.145568" xlink:href="#m8e12365fe5" y="7.2"/>
      </g>
     </g>
     <g id="text_3">
      <!-- 20 -->
      <g transform="translate(347.799318 248.81875)scale(0.24 -0.24)">
       <defs>
        <path d="M 50.484375 0 
L 3.078125 0 
Q 3.078125 6.0625 7.296875 12.25 
Q 11.53125 18.453125 23.09375 27.78125 
Q 30.171875 33.453125 35.734375 39.671875 
Q 41.3125 45.90625 41.3125 52.203125 
Q 41.3125 57.625 37.46875 61.15625 
Q 33.640625 64.703125 27.78125 64.703125 
Q 21.875 64.703125 17.875 61.0625 
Q 13.875 57.421875 13.8125 50.203125 
L 4.78125 51.21875 
Q 5.609375 61.28125 11.9375 66.59375 
Q 18.265625 71.921875 27.984375 71.921875 
Q 38.53125 71.921875 44.40625 66.078125 
Q 50.296875 60.25 50.296875 52 
Q 50.296875 45.125 45.328125 38.0625 
Q 40.375 31 25.59375 19.1875 
Q 17.828125 12.984375 15.28125 8.5 
L 50.484375 8.5 
z
" id="ArialUnicodeMS-50"/>
       </defs>
       <use xlink:href="#ArialUnicodeMS-50"/>
       <use x="55.615234" xlink:href="#ArialUnicodeMS-48"/>
      </g>
     </g>
    </g>
   </g>
   <g id="matplotlib.axis_2">
    <g id="ytick_1">
     <g id="line2d_7">
      <defs>
       <path d="M 0 0 
L 7.5 0 
" id="m263d7de870" style="stroke:#000000;stroke-width:1.2;"/>
      </defs>
      <g>
       <use style="stroke:#000000;stroke-width:1.2;" x="41.56375" xlink:href="#m263d7de870" y="214.876065"/>
      </g>
     </g>
     <g id="line2d_8">
      <defs>
       <path d="M 0 0 
L -7.5 0 
" id="m1fa45f5e8e" style="stroke:#000000;stroke-width:1.2;"/>
      </defs>
      <g>
       <use style="stroke:#000000;stroke-width:1.2;" x="376.36375" xlink:href="#m1fa45f5e8e" y="214.876065"/>
      </g>
     </g>
     <g id="text_4">
      <!-- −1 -->
      <g transform="translate(7.2 223.46544)scale(0.24 -0.24)">
       <defs>
        <path d="M 52.875 31.203125 
L 5.515625 31.203125 
L 5.515625 39.40625 
L 52.875 39.40625 
z
" id="ArialUnicodeMS-8722"/>
       </defs>
       <use xlink:href="#ArialUnicodeMS-8722"/>
       <use x="58.398438" xlink:href="#ArialUnicodeMS-49"/>
      </g>
     </g>
    </g>
    <g id="ytick_2">
     <g id="line2d_9">
      <g>
       <use style="stroke:#000000;stroke-width:1.2;" x="41.56375" xlink:href="#m263d7de870" y="115.97985"/>
      </g>
     </g>
     <g id="line2d_10">
      <g>
       <use style="stroke:#000000;stroke-width:1.2;" x="376.36375" xlink:href="#m1fa45f5e8e" y="115.97985"/>
      </g>
     </g>
     <g id="text_5">
      <!-- 0 -->
      <g transform="translate(21.2175 124.569225)scale(0.24 -0.24)">
       <use xlink:href="#ArialUnicodeMS-48"/>
      </g>
     </g>
    </g>
    <g id="ytick_3">
     <g id="line2d_11">
      <g>
       <use style="stroke:#000000;stroke-width:1.2;" x="41.56375" xlink:href="#m263d7de870" y="17.083636"/>
      </g>
     </g>
     <g id="line2d_12">
      <g>
       <use style="stroke:#000000;stroke-width:1.2;" x="376.36375" xlink:href="#m1fa45f5e8e" y="17.083636"/>
      </g>
     </g>
     <g id="text_6">
      <!-- 1 -->
      <g transform="translate(21.2175 25.673011)scale(0.24 -0.24)">
       <use xlink:href="#ArialUnicodeMS-49"/>
      </g>
     </g>
    </g>
   </g>
   <g id="line2d_13">
    <path clip-path="url(#p7b28c40fb2)" d="M 56.781932 17.083636 
L 59.856312 19.094324 
L 62.930692 25.044212 
L 66.005072 34.696792 
L 69.079452 47.656025 
L 72.153833 63.389288 
L 75.228213 81.259612 
L 78.302593 100.553205 
L 81.376973 120.486015 
L 84.451353 140.227093 
L 87.525733 158.988364 
L 90.600114 175.987277 
L 93.674494 190.537527 
L 96.748874 202.057583 
L 99.823254 210.087565 
L 102.897634 214.302969 
L 105.972014 214.499009 
L 109.046395 210.661637 
L 112.120775 202.970476 
L 115.195155 191.766682 
L 118.269535 177.485198 
L 121.343915 160.692019 
L 124.418295 142.064204 
L 127.492676 122.38308 
L 130.567056 102.439565 
L 133.641436 83.054987 
L 136.715816 65.013726 
L 139.790196 49.039671 
L 142.864576 35.788972 
L 145.938957 25.78481 
L 149.013337 19.461838 
L 152.087717 17.087706 
L 155.162097 18.743967 
L 158.236477 24.333405 
L 161.310857 33.63668 
L 164.385238 46.300788 
L 167.459618 61.824198 
L 170.533998 79.557306 
L 173.608378 98.751326 
L 176.682758 118.643958 
L 179.757138 138.424163 
L 182.831519 157.299425 
L 185.905899 174.497194 
L 188.980279 189.316167 
L 192.054659 201.153041 
L 195.129039 209.506719 
L 198.203419 214.044971 
L 201.2778 214.605167 
L 204.35218 211.17836 
L 207.42656 203.873514 
L 210.50094 192.965604 
L 213.57532 178.90407 
L 216.6497 162.304063 
L 219.724081 143.831163 
L 222.798461 124.229185 
L 225.872841 104.283204 
L 228.947221 84.801732 
L 232.021601 66.596743 
L 235.095981 50.393369 
L 238.170362 36.872118 
L 241.244742 26.580709 
L 244.319122 19.923722 
L 247.393502 17.151149 
L 250.467882 18.391372 
L 253.542262 23.624995 
L 256.616643 32.643127 
L 259.691023 45.047299 
L 262.765403 60.311656 
L 265.839783 77.836327 
L 268.914163 96.92067 
L 271.988543 116.795762 
L 275.062924 136.630501 
L 278.137304 155.63142 
L 281.211684 173.009976 
L 284.286064 188.057129 
L 287.360444 200.172365 
L 290.434824 208.869574 
L 293.509205 213.808872 
L 296.583585 214.756364 
L 299.657965 211.658498 
L 302.732345 204.655453 
L 305.806725 194.068868 
L 308.881105 180.317275 
L 311.955486 163.943771 
L 315.029866 145.602774 
L 318.104246 126.055438 
L 321.178626 106.102667 
L 324.253006 86.554572 
L 327.327386 68.211593 
L 330.401767 51.80853 
L 333.476147 38.01432 
L 336.550527 27.378665 
L 339.624907 20.348695 
L 342.699287 17.231651 
L 345.773667 18.147216 
L 348.848048 23.029419 
L 351.922428 31.6766 
L 354.996808 43.756697 
L 358.071188 58.789617 
L 361.145568 76.151291 
" style="fill:none;stroke:#0000ff;stroke-linecap:square;stroke-width:3;"/>
    <defs>
     <path d="M -0.49999 0.49999 
L 0.50001 0.49999 
L 0.50001 -0.50001 
L -0.49999 -0.50001 
z
" id="m639ce17e2a"/>
    </defs>
    <g clip-path="url(#p7b28c40fb2)">
     <use style="fill:#0000ff;" x="56.781932" xlink:href="#m639ce17e2a" y="17.083636"/>
     <use style="fill:#0000ff;" x="59.856312" xlink:href="#m639ce17e2a" y="19.094324"/>
     <use style="fill:#0000ff;" x="62.930692" xlink:href="#m639ce17e2a" y="25.044212"/>
     <use style="fill:#0000ff;" x="66.005072" xlink:href="#m639ce17e2a" y="34.696792"/>
     <use style="fill:#0000ff;" x="69.079452" xlink:href="#m639ce17e2a" y="47.656025"/>
     <use style="fill:#0000ff;" x="72.153833" xlink:href="#m639ce17e2a" y="63.389288"/>
     <use style="fill:#0000ff;" x="75.228213" xlink:href="#m639ce17e2a" y="81.259612"/>
     <use style="fill:#0000ff;" x="78.302593" xlink:href="#m639ce17e2a" y="100.553205"/>
     <use style="fill:#0000ff;" x="81.376973" xlink:href="#m639ce17e2a" y="120.486015"/>
     <use style="fill:#0000ff;" x="84.451353" xlink:href="#m639ce17e2a" y="140.227093"/>
     <use style="fill:#0000ff;" x="87.525733" xlink:href="#m639ce17e2a" y="158.988364"/>
     <use style="fill:#0000ff;" x="90.600114" xlink:href="#m639ce17e2a" y="175.987277"/>
     <use style="fill:#0000ff;" x="93.674494" xlink:href="#m639ce17e2a" y="190.537527"/>
     <use style="fill:#0000ff;" x="96.748874" xlink:href="#m639ce17e2a" y="202.057583"/>
     <use style="fill:#0000ff;" x="99.823254" xlink:href="#m639ce17e2a" y="210.087565"/>
     <use style="fill:#0000ff;" x="102.897634" xlink:href="#m639ce17e2a" y="214.302969"/>
     <use style="fill:#0000ff;" x="105.972014" xlink:href="#m639ce17e2a" y="214.499009"/>
     <use style="fill:#0000ff;" x="109.046395" xlink:href="#m639ce17e2a" y="210.661637"/>
     <use style="fill:#0000ff;" x="112.120775" xlink:href="#m639ce17e2a" y="202.970476"/>
     <use style="fill:#0000ff;" x="115.195155" xlink:href="#m639ce17e2a" y="191.766682"/>
     <use style="fill:#0000ff;" x="118.269535" xlink:href="#m639ce17e2a" y="177.485198"/>
     <use style="fill:#0000ff;" x="121.343915" xlink:href="#m639ce17e2a" y="160.692019"/>
     <use style="fill:#0000ff;" x="124.418295" xlink:href="#m639ce17e2a" y="142.064204"/>
     <use style="fill:#0000ff;" x="127.492676" xlink:href="#m639ce17e2a" y="122.38308"/>
     <use style="fill:#0000ff;" x="130.567056" xlink:href="#m639ce17e2a" y="102.439565"/>
     <use style="fill:#0000ff;" x="133.641436" xlink:href="#m639ce17e2a" y="83.054987"/>
     <use style="fill:#0000ff;" x="136.715816" xlink:href="#m639ce17e2a" y="65.013726"/>
     <use style="fill:#0000ff;" x="139.790196" xlink:href="#m639ce17e2a" y="49.039671"/>
     <use style="fill:#0000ff;" x="142.864576" xlink:href="#m639ce17e2a" y="35.788972"/>
     <use style="fill:#0000ff;" x="145.938957" xlink:href="#m639ce17e2a" y="25.78481"/>
     <use style="fill:#0000ff;" x="149.013337" xlink:href="#m639ce17e2a" y="19.461838"/>
     <use style="fill:#0000ff;" x="152.087717" xlink:href="#m639ce17e2a" y="17.087706"/>
     <use style="fill:#0000ff;" x="155.162097" xlink:href="#m639ce17e2a" y="18.743967"/>
     <use style="fill:#0000ff;" x="158.236477" xlink:href="#m639ce17e2a" y="24.333405"/>
     <use style="fill:#0000ff;" x="161.310857" xlink:href="#m639ce17e2a" y="33.63668"/>
     <use style="fill:#0000ff;" x="164.385238" xlink:href="#m639ce17e2a" y="46.300788"/>
     <use style="fill:#0000ff;" x="167.459618" xlink:href="#m639ce17e2a" y="61.824198"/>
     <use style="fill:#0000ff;" x="170.533998" xlink:href="#m639ce17e2a" y="79.557306"/>
     <use style="fill:#0000ff;" x="173.608378" xlink:href="#m639ce17e2a" y="98.751326"/>
     <use style="fill:#0000ff;" x="176.682758" xlink:href="#m639ce17e2a" y="118.643958"/>
     <use style="fill:#0000ff;" x="179.757138" xlink:href="#m639ce17e2a" y="138.424163"/>
     <use style="fill:#0000ff;" x="182.831519" xlink:href="#m639ce17e2a" y="157.299425"/>
     <use style="fill:#0000ff;" x="185.905899" xlink:href="#m639ce17e2a" y="174.497194"/>
     <use style="fill:#0000ff;" x="188.980279" xlink:href="#m639ce17e2a" y="189.316167"/>
     <use style="fill:#0000ff;" x="192.054659" xlink:href="#m639ce17e2a" y="201.153041"/>
     <use style="fill:#0000ff;" x="195.129039" xlink:href="#m639ce17e2a" y="209.506719"/>
     <use style="fill:#0000ff;" x="198.203419" xlink:href="#m639ce17e2a" y="214.044971"/>
     <use style="fill:#0000ff;" x="201.2778" xlink:href="#m639ce17e2a" y="214.605167"/>
     <use style="fill:#0000ff;" x="204.35218" xlink:href="#m639ce17e2a" y="211.17836"/>
     <use style="fill:#0000ff;" x="207.42656" xlink:href="#m639ce17e2a" y="203.873514"/>
     <use style="fill:#0000ff;" x="210.50094" xlink:href="#m639ce17e2a" y="192.965604"/>
     <use style="fill:#0000ff;" x="213.57532" xlink:href="#m639ce17e2a" y="178.90407"/>
     <use style="fill:#0000ff;" x="216.6497" xlink:href="#m639ce17e2a" y="162.304063"/>
     <use style="fill:#0000ff;" x="219.724081" xlink:href="#m639ce17e2a" y="143.831163"/>
     <use style="fill:#0000ff;" x="222.798461" xlink:href="#m639ce17e2a" y="124.229185"/>
     <use style="fill:#0000ff;" x="225.872841" xlink:href="#m639ce17e2a" y="104.283204"/>
     <use style="fill:#0000ff;" x="228.947221" xlink:href="#m639ce17e2a" y="84.801732"/>
     <use style="fill:#0000ff;" x="232.021601" xlink:href="#m639ce17e2a" y="66.596743"/>
     <use style="fill:#0000ff;" x="235.095981" xlink:href="#m639ce17e2a" y="50.393369"/>
     <use style="fill:#0000ff;" x="238.170362" xlink:href="#m639ce17e2a" y="36.872118"/>
     <use style="fill:#0000ff;" x="241.244742" xlink:href="#m639ce17e2a" y="26.580709"/>
     <use style="fill:#0000ff;" x="244.319122" xlink:href="#m639ce17e2a" y="19.923722"/>
     <use style="fill:#0000ff;" x="247.393502" xlink:href="#m639ce17e2a" y="17.151149"/>
     <use style="fill:#0000ff;" x="250.467882" xlink:href="#m639ce17e2a" y="18.391372"/>
     <use style="fill:#0000ff;" x="253.542262" xlink:href="#m639ce17e2a" y="23.624995"/>
     <use style="fill:#0000ff;" x="256.616643" xlink:href="#m639ce17e2a" y="32.643127"/>
     <use style="fill:#0000ff;" x="259.691023" xlink:href="#m639ce17e2a" y="45.047299"/>
     <use style="fill:#0000ff;" x="262.765403" xlink:href="#m639ce17e2a" y="60.311656"/>
     <use style="fill:#0000ff;" x="265.839783" xlink:href="#m639ce17e2a" y="77.836327"/>
     <use style="fill:#0000ff;" x="268.914163" xlink:href="#m639ce17e2a" y="96.92067"/>
     <use style="fill:#0000ff;" x="271.988543" xlink:href="#m639ce17e2a" y="116.795762"/>
     <use style="fill:#0000ff;" x="275.062924" xlink:href="#m639ce17e2a" y="136.630501"/>
     <use style="fill:#0000ff;" x="278.137304" xlink:href="#m639ce17e2a" y="155.63142"/>
     <use style="fill:#0000ff;" x="281.211684" xlink:href="#m639ce17e2a" y="173.009976"/>
     <use style="fill:#0000ff;" x="284.286064" xlink:href="#m639ce17e2a" y="188.057129"/>
     <use style="fill:#0000ff;" x="287.360444" xlink:href="#m639ce17e2a" y="200.172365"/>
     <use style="fill:#0000ff;" x="290.434824" xlink:href="#m639ce17e2a" y="208.869574"/>
     <use style="fill:#0000ff;" x="293.509205" xlink:href="#m639ce17e2a" y="213.808872"/>
     <use style="fill:#0000ff;" x="296.583585" xlink:href="#m639ce17e2a" y="214.756364"/>
     <use style="fill:#0000ff;" x="299.657965" xlink:href="#m639ce17e2a" y="211.658498"/>
     <use style="fill:#0000ff;" x="302.732345" xlink:href="#m639ce17e2a" y="204.655453"/>
     <use style="fill:#0000ff;" x="305.806725" xlink:href="#m639ce17e2a" y="194.068868"/>
     <use style="fill:#0000ff;" x="308.881105" xlink:href="#m639ce17e2a" y="180.317275"/>
     <use style="fill:#0000ff;" x="311.955486" xlink:href="#m639ce17e2a" y="163.943771"/>
     <use style="fill:#0000ff;" x="315.029866" xlink:href="#m639ce17e2a" y="145.602774"/>
     <use style="fill:#0000ff;" x="318.104246" xlink:href="#m639ce17e2a" y="126.055438"/>
     <use style="fill:#0000ff;" x="321.178626" xlink:href="#m639ce17e2a" y="106.102667"/>
     <use style="fill:#0000ff;" x="324.253006" xlink:href="#m639ce17e2a" y="86.554572"/>
     <use style="fill:#0000ff;" x="327.327386" xlink:href="#m639ce17e2a" y="68.211593"/>
     <use style="fill:#0000ff;" x="330.401767" xlink:href="#m639ce17e2a" y="51.80853"/>
     <use style="fill:#0000ff;" x="333.476147" xlink:href="#m639ce17e2a" y="38.01432"/>
     <use style="fill:#0000ff;" x="336.550527" xlink:href="#m639ce17e2a" y="27.378665"/>
     <use style="fill:#0000ff;" x="339.624907" xlink:href="#m639ce17e2a" y="20.348695"/>
     <use style="fill:#0000ff;" x="342.699287" xlink:href="#m639ce17e2a" y="17.231651"/>
     <use style="fill:#0000ff;" x="345.773667" xlink:href="#m639ce17e2a" y="18.147216"/>
     <use style="fill:#0000ff;" x="348.848048" xlink:href="#m639ce17e2a" y="23.029419"/>
     <use style="fill:#0000ff;" x="351.922428" xlink:href="#m639ce17e2a" y="31.6766"/>
     <use style="fill:#0000ff;" x="354.996808" xlink:href="#m639ce17e2a" y="43.756697"/>
     <use style="fill:#0000ff;" x="358.071188" xlink:href="#m639ce17e2a" y="58.789617"/>
     <use style="fill:#0000ff;" x="361.145568" xlink:href="#m639ce17e2a" y="76.151291"/>
    </g>
   </g>
   <g id="patch_3">
    <path d="M 41.56375 224.64 
L 41.56375 7.2 
" style="fill:none;stroke:#000000;stroke-linecap:square;stroke-linejoin:miter;stroke-width:2;"/>
   </g>
   <g id="patch_4">
    <path d="M 376.36375 224.64 
L 376.36375 7.2 
" style="fill:none;stroke:#000000;stroke-linecap:square;stroke-linejoin:miter;stroke-width:2;"/>
   </g>
   <g id="patch_5">
    <path d="M 41.56375 224.64 
L 376.36375 224.64 
" style="fill:none;stroke:#000000;stroke-linecap:square;stroke-linejoin:miter;stroke-width:2;"/>
   </g>
   <g id="patch_6">
    <path d="M 41.56375 7.2 
L 376.36375 7.2 
" style="fill:none;stroke:#000000;stroke-linecap:square;stroke-linejoin:miter;stroke-width:2;"/>
   </g>
   <g id="legend_1">
    <g id="patch_7">
     <path d="M 304.804375 219.64 
L 371.36375 219.64 
L 371.36375 202.49 
L 304.804375 202.49 
z
" style="fill:#ffffff;stroke:#000000;stroke-linejoin:miter;"/>
    </g>
    <g id="line2d_14">
     <path d="M 308.804375 210.147812 
L 328.804375 210.147812 
" style="fill:none;stroke:#0000ff;stroke-linecap:square;stroke-width:3;"/>
    </g>
    <g id="line2d_15">
     <g>
      <use style="fill:#0000ff;" x="318.804375" xlink:href="#m639ce17e2a" y="210.147812"/>
     </g>
    </g>
    <g id="text_7">
     <!-- x-trace -->
     <g transform="translate(336.804375 213.647812)scale(0.1 -0.1)">
      <defs>
       <path d="M 49.3125 0 
L 38.484375 0 
L 25 20.515625 
L 11.375 0 
L 0.6875 0 
L 19.671875 27 
L 2.203125 51.8125 
L 13.09375 51.8125 
Q 23.734375 35.75 24.703125 33.890625 
L 37.40625 51.8125 
L 47.90625 51.8125 
L 29.984375 27.484375 
z
" id="ArialUnicodeMS-120"/>
       <path d="M 30.078125 21.484375 
L 3.21875 21.484375 
L 3.21875 30.328125 
L 30.078125 30.328125 
z
" id="ArialUnicodeMS-45"/>
       <path d="M 26.90625 0.09375 
Q 23 -0.6875 20.3125 -0.6875 
Q 14.546875 -0.6875 11.90625 1.34375 
Q 9.28125 3.375 8.6875 6.5 
Q 8.109375 9.625 8.109375 15.1875 
L 8.109375 45.015625 
L 1.703125 45.015625 
L 1.703125 51.8125 
L 8.109375 51.8125 
L 8.109375 64.703125 
L 16.890625 70.015625 
L 16.890625 51.8125 
L 25.6875 51.8125 
L 25.6875 45.015625 
L 16.890625 45.015625 
L 16.890625 14.703125 
Q 16.890625 10.796875 17.6875 9.15625 
Q 18.5 7.515625 21.78125 7.515625 
Q 23.6875 7.515625 25.6875 7.90625 
z
" id="ArialUnicodeMS-116"/>
       <path d="M 34.625 50.203125 
L 31.59375 42.09375 
Q 28.328125 44 25.203125 44 
Q 20.265625 44 17.71875 39.578125 
Q 15.1875 35.15625 15.1875 27.203125 
L 15.1875 0 
L 6.390625 0 
L 6.390625 51.8125 
L 14.40625 51.8125 
L 14.40625 44 
L 14.59375 44 
Q 18.796875 52.984375 25.59375 52.984375 
Q 30.078125 52.984375 34.625 50.203125 
z
" id="ArialUnicodeMS-114"/>
       <path d="M 51.609375 0 
L 42.390625 0 
Q 41.109375 2.4375 40.578125 6.390625 
Q 31.734375 -1.21875 21.484375 -1.21875 
Q 13.28125 -1.21875 8.546875 2.875 
Q 3.8125 6.984375 3.8125 13.71875 
Q 3.8125 20.171875 8.375 24.34375 
Q 12.9375 28.515625 24.21875 29.890625 
L 32.421875 31.109375 
Q 37.015625 31.84375 39.984375 32.90625 
Q 39.984375 36.859375 39.734375 38.5 
Q 39.5 40.140625 38.296875 41.890625 
Q 37.109375 43.65625 34.46875 44.71875 
Q 31.84375 45.796875 27.390625 45.796875 
Q 21.734375 45.796875 18.4375 43.703125 
Q 15.140625 41.609375 13.921875 35.890625 
L 5.328125 37.015625 
Q 6.734375 44.96875 12.59375 48.96875 
Q 18.453125 52.984375 28.71875 52.984375 
Q 38.03125 52.984375 42.40625 50.21875 
Q 46.78125 47.46875 47.78125 43.5625 
Q 48.78125 39.65625 48.78125 33.5 
L 48.78125 21.6875 
Q 48.78125 10.890625 49.1875 7.203125 
Q 49.609375 3.515625 51.609375 0 
z
M 39.984375 22.796875 
L 39.984375 25.984375 
Q 33.109375 23.6875 23.140625 22.34375 
Q 13.1875 21 13.1875 13.921875 
Q 13.1875 10.359375 15.875 8.03125 
Q 18.5625 5.71875 23.578125 5.71875 
Q 30.078125 5.71875 35.03125 9.59375 
Q 39.984375 13.484375 39.984375 22.796875 
z
" id="ArialUnicodeMS-97"/>
       <path d="M 49.125 17.921875 
Q 47.40625 8.015625 41.296875 3.390625 
Q 35.203125 -1.21875 27.484375 -1.21875 
Q 16.21875 -1.21875 10.0625 6.171875 
Q 3.90625 13.578125 3.90625 25.78125 
Q 3.90625 35.890625 7.4375 41.96875 
Q 10.984375 48.046875 16.296875 50.515625 
Q 21.625 52.984375 27.484375 52.984375 
Q 35.5 52.984375 41.1875 48.828125 
Q 46.875 44.671875 48.1875 36.625 
L 39.703125 35.296875 
Q 38.375 40.53125 35.421875 43.15625 
Q 32.46875 45.796875 27.875 45.796875 
Q 20.515625 45.796875 16.703125 40.578125 
Q 12.890625 35.359375 12.890625 25.984375 
Q 12.890625 16.40625 16.625 11.203125 
Q 20.359375 6 27.390625 6 
Q 33.0625 6 36.296875 9.25 
Q 39.546875 12.5 40.375 19 
z
" id="ArialUnicodeMS-99"/>
       <path d="M 51.703125 23.6875 
L 12.890625 23.6875 
Q 13.421875 15.09375 17.796875 10.546875 
Q 22.171875 6 28.71875 6 
Q 33.734375 6 37.15625 8.65625 
Q 40.578125 11.328125 42.390625 16.703125 
L 51.421875 15.578125 
Q 49.21875 7.46875 43.359375 3.125 
Q 37.5 -1.21875 28.71875 -1.21875 
Q 17.046875 -1.21875 10.46875 5.9375 
Q 3.90625 13.09375 3.90625 25.484375 
Q 3.90625 37.75 10.28125 45.359375 
Q 16.65625 52.984375 28.21875 52.984375 
Q 33.890625 52.984375 39.140625 50.484375 
Q 44.390625 48 48.046875 42.015625 
Q 51.703125 36.03125 51.703125 23.6875 
z
M 42.671875 30.90625 
Q 42.140625 38.8125 37.765625 42.296875 
Q 33.40625 45.796875 28.21875 45.796875 
Q 22.015625 45.796875 18.015625 41.640625 
Q 14.015625 37.5 13.375 30.90625 
z
" id="ArialUnicodeMS-101"/>
      </defs>
      <use xlink:href="#ArialUnicodeMS-120"/>
      <use x="50" xlink:href="#ArialUnicodeMS-45"/>
      <use x="83.300781" xlink:href="#ArialUnicodeMS-116"/>
      <use x="111.083984" xlink:href="#ArialUnicodeMS-114"/>
      <use x="144.384766" xlink:href="#ArialUnicodeMS-97"/>
      <use x="200" xlink:href="#ArialUnicodeMS-99"/>
      <use x="250" xlink:href="#ArialUnicodeMS-101"/>
     </g>
    </g>
   </g>
  </g>
 </g>
 <defs>
  <clipPath id="p7b28c40fb2">
   <rect height="217.44" width="334.8" x="41.56375" y="7.2"/>
  </clipPath>
 </defs>
</svg>
