<?xml version="1.0" encoding="utf-8" standalone="no"?>
<!DOCTYPE svg PUBLIC "-//W3C//DTD SVG 1.1//EN"
  "http://www.w3.org/Graphics/SVG/1.1/DTD/svg11.dtd">
<!-- Created with matplotlib (https://matplotlib.org/) -->
<svg height="260.8pt" version="1.1" viewBox="0 0 398.68 260.8" width="398.68pt" xmlns="http://www.w3.org/2000/svg" xmlns:xlink="http://www.w3.org/1999/xlink">
 <metadata>
  <rdf:RDF xmlns:cc="http://creativecommons.org/ns#" xmlns:dc="http://purl.org/dc/elements/1.1/" xmlns:rdf="http://www.w3.org/1999/02/22-rdf-syntax-ns#">
   <cc:Work>
    <dc:type rdf:resource="http://purl.org/dc/dcmitype/StillImage"/>
    <dc:date>2021-06-25T12:39:44.075427</dc:date>
    <dc:format>image/svg+xml</dc:format>
    <dc:creator>
     <cc:Agent>
      <dc:title>Matplotlib v3.3.4, https://matplotlib.org/</dc:title>
     </cc:Agent>
    </dc:creator>
   </cc:Work>
  </rdf:RDF>
 </metadata>
 <defs>
  <style type="text/css">*{stroke-linecap:butt;stroke-linejoin:round;}</style>
 </defs>
 <g id="figure_1">
  <g id="patch_1">
   <path d="M 0 260.8 
L 398.68 260.8 
L 398.68 0 
L 0 0 
z
" style="fill:none;"/>
  </g>
  <g id="axes_1">
   <g id="patch_2">
    <path d="M 56.68 224.64 
L 391.48 224.64 
L 391.48 7.2 
L 56.68 7.2 
z
" style="fill:#ffffff;"/>
   </g>
   <g id="matplotlib.axis_1">
    <g id="xtick_1">
     <g id="line2d_1">
      <defs>
       <path d="M 0 0 
L 0 -7.5 
" id="m30121b5138" style="stroke:#000000;stroke-width:1.2;"/>
      </defs>
      <g>
       <use style="stroke:#000000;stroke-width:1.2;" x="71.898182" xlink:href="#m30121b5138" y="224.64"/>
      </g>
     </g>
     <g id="line2d_2">
      <defs>
       <path d="M 0 0 
L 0 7.5 
" id="m9c81477e69" style="stroke:#000000;stroke-width:1.2;"/>
      </defs>
      <g>
       <use style="stroke:#000000;stroke-width:1.2;" x="71.898182" xlink:href="#m9c81477e69" y="7.2"/>
      </g>
     </g>
     <g id="text_1">
      <!-- 0 -->
      <g transform="translate(65.225057 248.81875)scale(0.24 -0.24)">
       <defs>
        <path d="M 27.78125 71.921875 
Q 51.125 71.921875 51.125 35.296875 
Q 51.125 16.796875 45.09375 7.78125 
Q 39.0625 -1.21875 27.78125 -1.21875 
Q 4.5 -1.21875 4.5 35.296875 
Q 4.5 53.8125 10.515625 62.859375 
Q 16.546875 71.921875 27.78125 71.921875 
z
M 27.78125 6 
Q 34.859375 6 38.46875 12.859375 
Q 42.09375 19.734375 42.09375 35.296875 
Q 42.09375 46.140625 40.5 52.359375 
Q 38.921875 58.59375 35.71875 61.640625 
Q 32.515625 64.703125 27.6875 64.703125 
Q 20.609375 64.703125 17.046875 57.71875 
Q 13.484375 50.734375 13.484375 35.296875 
Q 13.484375 24.609375 15.09375 18.359375 
Q 16.703125 12.109375 19.875 9.046875 
Q 23.046875 6 27.78125 6 
z
" id="ArialUnicodeMS-48"/>
       </defs>
       <use xlink:href="#ArialUnicodeMS-48"/>
      </g>
     </g>
    </g>
    <g id="xtick_2">
     <g id="line2d_3">
      <g>
       <use style="stroke:#000000;stroke-width:1.2;" x="193.643636" xlink:href="#m30121b5138" y="224.64"/>
      </g>
     </g>
     <g id="line2d_4">
      <g>
       <use style="stroke:#000000;stroke-width:1.2;" x="193.643636" xlink:href="#m9c81477e69" y="7.2"/>
      </g>
     </g>
     <g id="text_2">
      <!-- 2 -->
      <g transform="translate(186.970511 248.81875)scale(0.24 -0.24)">
       <defs>
        <path d="M 50.484375 0 
L 3.078125 0 
Q 3.078125 6.0625 7.296875 12.25 
Q 11.53125 18.453125 23.09375 27.78125 
Q 30.171875 33.453125 35.734375 39.671875 
Q 41.3125 45.90625 41.3125 52.203125 
Q 41.3125 57.625 37.46875 61.15625 
Q 33.640625 64.703125 27.78125 64.703125 
Q 21.875 64.703125 17.875 61.0625 
Q 13.875 57.421875 13.8125 50.203125 
L 4.78125 51.21875 
Q 5.609375 61.28125 11.9375 66.59375 
Q 18.265625 71.921875 27.984375 71.921875 
Q 38.53125 71.921875 44.40625 66.078125 
Q 50.296875 60.25 50.296875 52 
Q 50.296875 45.125 45.328125 38.0625 
Q 40.375 31 25.59375 19.1875 
Q 17.828125 12.984375 15.28125 8.5 
L 50.484375 8.5 
z
" id="ArialUnicodeMS-50"/>
       </defs>
       <use xlink:href="#ArialUnicodeMS-50"/>
      </g>
     </g>
    </g>
    <g id="xtick_3">
     <g id="line2d_5">
      <g>
       <use style="stroke:#000000;stroke-width:1.2;" x="315.389091" xlink:href="#m30121b5138" y="224.64"/>
      </g>
     </g>
     <g id="line2d_6">
      <g>
       <use style="stroke:#000000;stroke-width:1.2;" x="315.389091" xlink:href="#m9c81477e69" y="7.2"/>
      </g>
     </g>
     <g id="text_3">
      <!-- 4 -->
      <g transform="translate(308.715966 248.81875)scale(0.24 -0.24)">
       <defs>
        <path d="M 50.984375 17.09375 
L 41.3125 17.09375 
L 41.3125 0 
L 32.515625 0 
L 32.515625 17.09375 
L 1.515625 17.09375 
L 1.515625 25.203125 
L 34.078125 71.578125 
L 41.3125 71.578125 
L 41.3125 25.203125 
L 50.984375 25.203125 
z
M 32.515625 25.203125 
L 32.515625 57.515625 
L 32.328125 57.515625 
L 10.109375 25.203125 
z
" id="ArialUnicodeMS-52"/>
       </defs>
       <use xlink:href="#ArialUnicodeMS-52"/>
      </g>
     </g>
    </g>
   </g>
   <g id="matplotlib.axis_2">
    <g id="ytick_1">
     <g id="line2d_7">
      <defs>
       <path d="M 0 0 
L 7.5 0 
" id="ma8131836d0" style="stroke:#000000;stroke-width:1.2;"/>
      </defs>
      <g>
       <use style="stroke:#000000;stroke-width:1.2;" x="56.68" xlink:href="#ma8131836d0" y="157.477238"/>
      </g>
     </g>
     <g id="line2d_8">
      <defs>
       <path d="M 0 0 
L -7.5 0 
" id="m53ee100bf6" style="stroke:#000000;stroke-width:1.2;"/>
      </defs>
      <g>
       <use style="stroke:#000000;stroke-width:1.2;" x="391.48" xlink:href="#m53ee100bf6" y="157.477238"/>
      </g>
     </g>
     <g id="text_4">
      <!-- $\mathdefault{10^{-7}}$ -->
      <g transform="translate(7.2 166.066613)scale(0.24 -0.24)">
       <defs>
        <path d="M 37.5 0 
L 28.71875 0 
L 28.71875 56 
Q 22.125 49.75 11.078125 45.40625 
L 11.078125 53.90625 
Q 26.265625 61.1875 31.78125 71.921875 
L 37.5 71.921875 
z
" id="ArialUnicodeMS-49"/>
        <path d="M 30.078125 21.484375 
L 3.21875 21.484375 
L 3.21875 30.328125 
L 30.078125 30.328125 
z
" id="ArialUnicodeMS-45"/>
        <path d="M 51.125 63.8125 
Q 40.578125 52.25 32.859375 35.203125 
Q 25.140625 18.171875 23.78125 0 
L 14.796875 0 
Q 15.140625 14.59375 22 32.046875 
Q 28.859375 49.515625 39.796875 62.109375 
L 4.78125 62.109375 
L 4.78125 70.609375 
L 51.125 70.609375 
z
" id="ArialUnicodeMS-55"/>
       </defs>
       <use transform="translate(0 0.304688)" xlink:href="#ArialUnicodeMS-49"/>
       <use transform="translate(55.615234 0.304688)" xlink:href="#ArialUnicodeMS-48"/>
       <use transform="translate(112.137187 36.573437)scale(0.7)" xlink:href="#ArialUnicodeMS-45"/>
       <use transform="translate(135.447734 36.573437)scale(0.7)" xlink:href="#ArialUnicodeMS-55"/>
      </g>
     </g>
    </g>
    <g id="ytick_2">
     <g id="line2d_9">
      <g>
       <use style="stroke:#000000;stroke-width:1.2;" x="56.68" xlink:href="#ma8131836d0" y="80.787204"/>
      </g>
     </g>
     <g id="line2d_10">
      <g>
       <use style="stroke:#000000;stroke-width:1.2;" x="391.48" xlink:href="#m53ee100bf6" y="80.787204"/>
      </g>
     </g>
     <g id="text_5">
      <!-- $\mathdefault{10^{-5}}$ -->
      <g transform="translate(7.2 89.376579)scale(0.24 -0.24)">
       <defs>
        <path d="M 15.828125 43.015625 
Q 22.359375 47.515625 29.390625 47.515625 
Q 38.328125 47.515625 44.96875 41.1875 
Q 51.609375 34.859375 51.609375 24.3125 
Q 51.609375 13.671875 44.875 6.21875 
Q 38.140625 -1.21875 27.203125 -1.21875 
Q 18.265625 -1.21875 11.71875 3.828125 
Q 5.171875 8.890625 4.203125 18.796875 
L 13.375 19.484375 
Q 14.5 12.703125 18.15625 9.34375 
Q 21.828125 6 27.203125 6 
Q 33.890625 6 38.03125 11.046875 
Q 42.1875 16.109375 42.1875 23.484375 
Q 42.1875 31 37.9375 35.34375 
Q 33.6875 39.703125 27 39.703125 
Q 18.5625 39.703125 14.015625 32.8125 
L 5.71875 33.796875 
L 12.703125 70.609375 
L 48.1875 70.609375 
L 48.1875 62.109375 
L 19.671875 62.109375 
z
" id="ArialUnicodeMS-53"/>
       </defs>
       <use transform="translate(0 0.304688)" xlink:href="#ArialUnicodeMS-49"/>
       <use transform="translate(55.615234 0.304688)" xlink:href="#ArialUnicodeMS-48"/>
       <use transform="translate(112.137187 36.573437)scale(0.7)" xlink:href="#ArialUnicodeMS-45"/>
       <use transform="translate(135.447734 36.573437)scale(0.7)" xlink:href="#ArialUnicodeMS-53"/>
      </g>
     </g>
    </g>
   </g>
   <g id="line2d_11">
    <path clip-path="url(#pe41547397d)" d="M 74.968758 261.8 
L 74.972562 214.756364 
L 78.046942 193.719635 
L 81.121322 64.0087 
L 84.195702 43.706912 
L 87.270083 32.929786 
L 90.344463 26.204312 
L 93.418843 21.822383 
L 96.493223 19.048279 
L 99.567603 17.524106 
L 102.641983 17.083636 
L 105.716364 17.68909 
L 108.790744 19.426497 
L 111.865124 22.562127 
L 114.939504 27.746577 
L 118.013884 36.866979 
L 121.088264 61.472612 
L 124.162645 47.695032 
L 127.237025 34.138332 
L 130.311405 28.419886 
L 133.385785 26.315534 
L 136.460165 27.03429 
L 139.534545 29.016609 
L 142.608926 31.902762 
L 145.683306 35.598112 
L 148.757686 40.001204 
L 151.832066 44.890134 
L 154.906446 49.720238 
L 157.980826 53.400025 
L 161.055207 54.569923 
L 164.129587 52.809341 
L 167.203967 49.146524 
L 170.278347 44.91734 
L 173.352727 40.942678 
L 176.427107 37.58551 
L 179.501488 34.993841 
L 182.575868 33.257229 
L 185.650248 32.497834 
L 188.724628 32.936959 
L 191.799008 34.270276 
L 194.873388 36.15551 
L 197.947769 38.461203 
L 201.022149 41.047446 
L 204.096529 43.732562 
L 207.170909 46.268257 
L 210.245289 48.342786 
L 213.319669 49.643229 
L 216.39405 49.977439 
L 219.46843 49.376522 
L 222.54281 48.079431 
L 225.61719 46.416312 
L 228.69157 44.697678 
L 231.76595 43.170027 
L 234.840331 42.025378 
L 237.914711 41.436069 
L 240.989091 41.604808 
L 244.063471 42.592202 
L 247.137851 44.02128 
L 250.212231 45.76798 
L 253.286612 47.720467 
L 256.360992 49.752966 
L 259.435372 51.716717 
L 262.509752 53.442868 
L 265.584132 54.763645 
L 268.658512 55.551763 
L 271.732893 55.762484 
L 274.807273 55.452174 
L 277.881653 54.759962 
L 280.956033 53.866675 
L 284.030413 52.957524 
L 287.104793 52.204329 
L 290.179174 51.76832 
L 293.253554 51.820025 
L 296.327934 52.539833 
L 299.402314 53.708091 
L 302.476694 55.156033 
L 305.551074 56.791078 
L 308.625455 58.516565 
L 311.699835 60.22567 
L 314.774215 61.801911 
L 317.848595 63.128461 
L 320.922975 64.106674 
L 323.997355 64.679017 
L 327.071736 64.846188 
L 330.146116 64.668972 
L 333.220496 64.254086 
L 336.294876 63.732888 
L 339.369256 63.243972 
L 342.443636 62.926165 
L 345.518017 62.923735 
L 348.592397 63.405409 
L 351.666777 64.256668 
L 354.741157 65.123388 
L 357.815537 65.987397 
L 360.889917 66.838423 
L 363.964298 67.672439 
L 367.038678 68.491261 
L 370.113058 69.301778 
L 373.187438 70.114783 
L 376.261818 70.943427 
" style="fill:none;stroke:#ff0000;stroke-linecap:square;stroke-width:3;"/>
   </g>
   <g id="patch_3">
    <path d="M 56.68 224.64 
L 56.68 7.2 
" style="fill:none;stroke:#000000;stroke-linecap:square;stroke-linejoin:miter;stroke-width:2;"/>
   </g>
   <g id="patch_4">
    <path d="M 391.48 224.64 
L 391.48 7.2 
" style="fill:none;stroke:#000000;stroke-linecap:square;stroke-linejoin:miter;stroke-width:2;"/>
   </g>
   <g id="patch_5">
    <path d="M 56.68 224.64 
L 391.48 224.64 
" style="fill:none;stroke:#000000;stroke-linecap:square;stroke-linejoin:miter;stroke-width:2;"/>
   </g>
   <g id="patch_6">
    <path d="M 56.68 7.2 
L 391.48 7.2 
" style="fill:none;stroke:#000000;stroke-linecap:square;stroke-linejoin:miter;stroke-width:2;"/>
   </g>
   <g id="legend_1">
    <g id="patch_7">
     <path d="M 310.469063 29.35 
L 386.48 29.35 
L 386.48 12.2 
L 310.469063 12.2 
z
" style="fill:#ffffff;stroke:#000000;stroke-linejoin:miter;"/>
    </g>
    <g id="line2d_12">
     <path d="M 314.469063 19.857812 
L 334.469063 19.857812 
" style="fill:none;stroke:#ff0000;stroke-linecap:square;stroke-width:3;"/>
    </g>
    <g id="line2d_13"/>
    <g id="text_6">
     <!-- abs error -->
     <g transform="translate(342.469063 23.357812)scale(0.1 -0.1)">
      <defs>
       <path d="M 51.609375 0 
L 42.390625 0 
Q 41.109375 2.4375 40.578125 6.390625 
Q 31.734375 -1.21875 21.484375 -1.21875 
Q 13.28125 -1.21875 8.546875 2.875 
Q 3.8125 6.984375 3.8125 13.71875 
Q 3.8125 20.171875 8.375 24.34375 
Q 12.9375 28.515625 24.21875 29.890625 
L 32.421875 31.109375 
Q 37.015625 31.84375 39.984375 32.90625 
Q 39.984375 36.859375 39.734375 38.5 
Q 39.5 40.140625 38.296875 41.890625 
Q 37.109375 43.65625 34.46875 44.71875 
Q 31.84375 45.796875 27.390625 45.796875 
Q 21.734375 45.796875 18.4375 43.703125 
Q 15.140625 41.609375 13.921875 35.890625 
L 5.328125 37.015625 
Q 6.734375 44.96875 12.59375 48.96875 
Q 18.453125 52.984375 28.71875 52.984375 
Q 38.03125 52.984375 42.40625 50.21875 
Q 46.78125 47.46875 47.78125 43.5625 
Q 48.78125 39.65625 48.78125 33.5 
L 48.78125 21.6875 
Q 48.78125 10.890625 49.1875 7.203125 
Q 49.609375 3.515625 51.609375 0 
z
M 39.984375 22.796875 
L 39.984375 25.984375 
Q 33.109375 23.6875 23.140625 22.34375 
Q 13.1875 21 13.1875 13.921875 
Q 13.1875 10.359375 15.875 8.03125 
Q 18.5625 5.71875 23.578125 5.71875 
Q 30.078125 5.71875 35.03125 9.59375 
Q 39.984375 13.484375 39.984375 22.796875 
z
" id="ArialUnicodeMS-97"/>
       <path d="M 15.71875 46 
Q 20.609375 52.984375 29.6875 52.984375 
Q 39.703125 52.984375 45.703125 45.703125 
Q 51.703125 38.421875 51.703125 26.703125 
Q 51.703125 13.1875 44.984375 5.984375 
Q 38.28125 -1.21875 29.296875 -1.21875 
Q 20.171875 -1.21875 15.09375 6.5 
L 14.890625 6.5 
L 14.890625 0 
L 6.6875 0 
L 6.6875 71.578125 
L 15.484375 71.578125 
L 15.484375 46 
z
M 28.609375 6 
Q 34.71875 6 38.6875 11.25 
Q 42.671875 16.5 42.671875 25.984375 
Q 42.671875 35.109375 39.015625 40.453125 
Q 35.359375 45.796875 28.90625 45.796875 
Q 22.5625 45.796875 18.671875 40.28125 
Q 14.796875 34.765625 14.796875 26.3125 
Q 14.796875 18.0625 16.40625 14.5625 
Q 18.015625 11.078125 21.265625 8.53125 
Q 24.515625 6 28.609375 6 
z
" id="ArialUnicodeMS-98"/>
       <path d="M 35.59375 37.3125 
Q 35.015625 41.546875 32.15625 43.671875 
Q 29.296875 45.796875 24.21875 45.796875 
Q 19.1875 45.796875 16.078125 44.09375 
Q 12.984375 42.390625 12.984375 39.109375 
Q 12.984375 36.03125 15.453125 34.71875 
Q 17.921875 33.40625 25.203125 31.5 
Q 33.40625 29.390625 37.46875 27.78125 
Q 41.546875 26.171875 43.8125 23.265625 
Q 46.09375 20.359375 46.09375 15.1875 
Q 46.09375 8.25 40.421875 3.515625 
Q 34.765625 -1.21875 25.296875 -1.21875 
Q 15.4375 -1.21875 9.890625 2.953125 
Q 4.34375 7.125 3.078125 15.484375 
L 11.8125 16.796875 
Q 12.5 11.375 15.84375 8.6875 
Q 19.1875 6 25.203125 6 
Q 30.953125 6 34.03125 8.421875 
Q 37.109375 10.84375 37.109375 14.3125 
Q 37.109375 16.65625 35.6875 18.0625 
Q 34.28125 19.484375 32.15625 20.1875 
Q 30.03125 20.90625 22.609375 22.703125 
Q 11.578125 25.34375 8.03125 29.09375 
Q 4.5 32.859375 4.5 38.09375 
Q 4.5 44.578125 9.671875 48.78125 
Q 14.84375 52.984375 23.578125 52.984375 
Q 32.859375 52.984375 38.015625 49.34375 
Q 43.171875 45.703125 44.1875 38.484375 
z
" id="ArialUnicodeMS-115"/>
       <path id="ArialUnicodeMS-32"/>
       <path d="M 51.703125 23.6875 
L 12.890625 23.6875 
Q 13.421875 15.09375 17.796875 10.546875 
Q 22.171875 6 28.71875 6 
Q 33.734375 6 37.15625 8.65625 
Q 40.578125 11.328125 42.390625 16.703125 
L 51.421875 15.578125 
Q 49.21875 7.46875 43.359375 3.125 
Q 37.5 -1.21875 28.71875 -1.21875 
Q 17.046875 -1.21875 10.46875 5.9375 
Q 3.90625 13.09375 3.90625 25.484375 
Q 3.90625 37.75 10.28125 45.359375 
Q 16.65625 52.984375 28.21875 52.984375 
Q 33.890625 52.984375 39.140625 50.484375 
Q 44.390625 48 48.046875 42.015625 
Q 51.703125 36.03125 51.703125 23.6875 
z
M 42.671875 30.90625 
Q 42.140625 38.8125 37.765625 42.296875 
Q 33.40625 45.796875 28.21875 45.796875 
Q 22.015625 45.796875 18.015625 41.640625 
Q 14.015625 37.5 13.375 30.90625 
z
" id="ArialUnicodeMS-101"/>
       <path d="M 34.625 50.203125 
L 31.59375 42.09375 
Q 28.328125 44 25.203125 44 
Q 20.265625 44 17.71875 39.578125 
Q 15.1875 35.15625 15.1875 27.203125 
L 15.1875 0 
L 6.390625 0 
L 6.390625 51.8125 
L 14.40625 51.8125 
L 14.40625 44 
L 14.59375 44 
Q 18.796875 52.984375 25.59375 52.984375 
Q 30.078125 52.984375 34.625 50.203125 
z
" id="ArialUnicodeMS-114"/>
       <path d="M 27.78125 52.984375 
Q 38.28125 52.984375 45.1875 46.140625 
Q 52.09375 39.3125 52.09375 26.703125 
Q 52.09375 11.421875 44.625 5.09375 
Q 37.15625 -1.21875 27.78125 -1.21875 
Q 17.96875 -1.21875 10.734375 5.265625 
Q 3.515625 11.765625 3.515625 25.875 
Q 3.515625 39.546875 10.5 46.265625 
Q 17.484375 52.984375 27.78125 52.984375 
z
M 27.78125 6 
Q 35.296875 6 39.203125 11.5625 
Q 43.109375 17.140625 43.109375 26.21875 
Q 43.109375 35.9375 38.6875 40.859375 
Q 34.28125 45.796875 27.78125 45.796875 
Q 21.09375 45.796875 16.796875 40.796875 
Q 12.5 35.796875 12.5 25.875 
Q 12.5 16.015625 16.859375 11 
Q 21.234375 6 27.78125 6 
z
" id="ArialUnicodeMS-111"/>
      </defs>
      <use xlink:href="#ArialUnicodeMS-97"/>
      <use x="55.615234" xlink:href="#ArialUnicodeMS-98"/>
      <use x="111.230469" xlink:href="#ArialUnicodeMS-115"/>
      <use x="161.230469" xlink:href="#ArialUnicodeMS-32"/>
      <use x="189.013672" xlink:href="#ArialUnicodeMS-101"/>
      <use x="244.628906" xlink:href="#ArialUnicodeMS-114"/>
      <use x="277.929688" xlink:href="#ArialUnicodeMS-114"/>
      <use x="311.230469" xlink:href="#ArialUnicodeMS-111"/>
      <use x="366.845703" xlink:href="#ArialUnicodeMS-114"/>
     </g>
    </g>
   </g>
  </g>
 </g>
 <defs>
  <clipPath id="pe41547397d">
   <rect height="217.44" width="334.8" x="56.68" y="7.2"/>
  </clipPath>
 </defs>
</svg>
