<?xml version="1.0" encoding="utf-8" standalone="no"?>
<!DOCTYPE svg PUBLIC "-//W3C//DTD SVG 1.1//EN"
  "http://www.w3.org/Graphics/SVG/1.1/DTD/svg11.dtd">
<!-- Created with matplotlib (https://matplotlib.org/) -->
<svg height="260.8pt" version="1.1" viewBox="0 0 389.56 260.8" width="389.56pt" xmlns="http://www.w3.org/2000/svg" xmlns:xlink="http://www.w3.org/1999/xlink">
 <metadata>
  <rdf:RDF xmlns:cc="http://creativecommons.org/ns#" xmlns:dc="http://purl.org/dc/elements/1.1/" xmlns:rdf="http://www.w3.org/1999/02/22-rdf-syntax-ns#">
   <cc:Work>
    <dc:type rdf:resource="http://purl.org/dc/dcmitype/StillImage"/>
    <dc:date>2021-06-25T12:39:43.823030</dc:date>
    <dc:format>image/svg+xml</dc:format>
    <dc:creator>
     <cc:Agent>
      <dc:title>Matplotlib v3.3.4, https://matplotlib.org/</dc:title>
     </cc:Agent>
    </dc:creator>
   </cc:Work>
  </rdf:RDF>
 </metadata>
 <defs>
  <style type="text/css">*{stroke-linecap:butt;stroke-linejoin:round;}</style>
 </defs>
 <g id="figure_1">
  <g id="patch_1">
   <path d="M 0 260.8 
L 389.56 260.8 
L 389.56 0 
L 0 0 
z
" style="fill:none;"/>
  </g>
  <g id="axes_1">
   <g id="patch_2">
    <path d="M 47.56 224.64 
L 382.36 224.64 
L 382.36 7.2 
L 47.56 7.2 
z
" style="fill:#ffffff;"/>
   </g>
   <g id="matplotlib.axis_1">
    <g id="xtick_1">
     <g id="line2d_1">
      <defs>
       <path d="M 0 0 
L 0 -7.5 
" id="m513eec4b87" style="stroke:#000000;stroke-width:1.2;"/>
      </defs>
      <g>
       <use style="stroke:#000000;stroke-width:1.2;" x="62.778182" xlink:href="#m513eec4b87" y="224.64"/>
      </g>
     </g>
     <g id="line2d_2">
      <defs>
       <path d="M 0 0 
L 0 7.5 
" id="m5572e89182" style="stroke:#000000;stroke-width:1.2;"/>
      </defs>
      <g>
       <use style="stroke:#000000;stroke-width:1.2;" x="62.778182" xlink:href="#m5572e89182" y="7.2"/>
      </g>
     </g>
     <g id="text_1">
      <!-- 0 -->
      <g transform="translate(56.105057 248.81875)scale(0.24 -0.24)">
       <defs>
        <path d="M 27.78125 71.921875 
Q 51.125 71.921875 51.125 35.296875 
Q 51.125 16.796875 45.09375 7.78125 
Q 39.0625 -1.21875 27.78125 -1.21875 
Q 4.5 -1.21875 4.5 35.296875 
Q 4.5 53.8125 10.515625 62.859375 
Q 16.546875 71.921875 27.78125 71.921875 
z
M 27.78125 6 
Q 34.859375 6 38.46875 12.859375 
Q 42.09375 19.734375 42.09375 35.296875 
Q 42.09375 46.140625 40.5 52.359375 
Q 38.921875 58.59375 35.71875 61.640625 
Q 32.515625 64.703125 27.6875 64.703125 
Q 20.609375 64.703125 17.046875 57.71875 
Q 13.484375 50.734375 13.484375 35.296875 
Q 13.484375 24.609375 15.09375 18.359375 
Q 16.703125 12.109375 19.875 9.046875 
Q 23.046875 6 27.78125 6 
z
" id="ArialUnicodeMS-48"/>
       </defs>
       <use xlink:href="#ArialUnicodeMS-48"/>
      </g>
     </g>
    </g>
    <g id="xtick_2">
     <g id="line2d_3">
      <g>
       <use style="stroke:#000000;stroke-width:1.2;" x="184.523636" xlink:href="#m513eec4b87" y="224.64"/>
      </g>
     </g>
     <g id="line2d_4">
      <g>
       <use style="stroke:#000000;stroke-width:1.2;" x="184.523636" xlink:href="#m5572e89182" y="7.2"/>
      </g>
     </g>
     <g id="text_2">
      <!-- 2 -->
      <g transform="translate(177.850511 248.81875)scale(0.24 -0.24)">
       <defs>
        <path d="M 50.484375 0 
L 3.078125 0 
Q 3.078125 6.0625 7.296875 12.25 
Q 11.53125 18.453125 23.09375 27.78125 
Q 30.171875 33.453125 35.734375 39.671875 
Q 41.3125 45.90625 41.3125 52.203125 
Q 41.3125 57.625 37.46875 61.15625 
Q 33.640625 64.703125 27.78125 64.703125 
Q 21.875 64.703125 17.875 61.0625 
Q 13.875 57.421875 13.8125 50.203125 
L 4.78125 51.21875 
Q 5.609375 61.28125 11.9375 66.59375 
Q 18.265625 71.921875 27.984375 71.921875 
Q 38.53125 71.921875 44.40625 66.078125 
Q 50.296875 60.25 50.296875 52 
Q 50.296875 45.125 45.328125 38.0625 
Q 40.375 31 25.59375 19.1875 
Q 17.828125 12.984375 15.28125 8.5 
L 50.484375 8.5 
z
" id="ArialUnicodeMS-50"/>
       </defs>
       <use xlink:href="#ArialUnicodeMS-50"/>
      </g>
     </g>
    </g>
    <g id="xtick_3">
     <g id="line2d_5">
      <g>
       <use style="stroke:#000000;stroke-width:1.2;" x="306.269091" xlink:href="#m513eec4b87" y="224.64"/>
      </g>
     </g>
     <g id="line2d_6">
      <g>
       <use style="stroke:#000000;stroke-width:1.2;" x="306.269091" xlink:href="#m5572e89182" y="7.2"/>
      </g>
     </g>
     <g id="text_3">
      <!-- 4 -->
      <g transform="translate(299.595966 248.81875)scale(0.24 -0.24)">
       <defs>
        <path d="M 50.984375 17.09375 
L 41.3125 17.09375 
L 41.3125 0 
L 32.515625 0 
L 32.515625 17.09375 
L 1.515625 17.09375 
L 1.515625 25.203125 
L 34.078125 71.578125 
L 41.3125 71.578125 
L 41.3125 25.203125 
L 50.984375 25.203125 
z
M 32.515625 25.203125 
L 32.515625 57.515625 
L 32.328125 57.515625 
L 10.109375 25.203125 
z
" id="ArialUnicodeMS-52"/>
       </defs>
       <use xlink:href="#ArialUnicodeMS-52"/>
      </g>
     </g>
    </g>
   </g>
   <g id="matplotlib.axis_2">
    <g id="ytick_1">
     <g id="line2d_7">
      <defs>
       <path d="M 0 0 
L 7.5 0 
" id="me1e099400e" style="stroke:#000000;stroke-width:1.2;"/>
      </defs>
      <g>
       <use style="stroke:#000000;stroke-width:1.2;" x="47.56" xlink:href="#me1e099400e" y="216.097307"/>
      </g>
     </g>
     <g id="line2d_8">
      <defs>
       <path d="M 0 0 
L -7.5 0 
" id="m7f22bcc34f" style="stroke:#000000;stroke-width:1.2;"/>
      </defs>
      <g>
       <use style="stroke:#000000;stroke-width:1.2;" x="382.36" xlink:href="#m7f22bcc34f" y="216.097307"/>
      </g>
     </g>
     <g id="text_4">
      <!-- 0.0 -->
      <g transform="translate(7.2 224.686682)scale(0.24 -0.24)">
       <defs>
        <path d="M 18.890625 0 
L 8.890625 0 
L 8.890625 10.015625 
L 18.890625 10.015625 
z
" id="ArialUnicodeMS-46"/>
       </defs>
       <use xlink:href="#ArialUnicodeMS-48"/>
       <use x="55.615234" xlink:href="#ArialUnicodeMS-46"/>
       <use x="83.398438" xlink:href="#ArialUnicodeMS-48"/>
      </g>
     </g>
    </g>
    <g id="ytick_2">
     <g id="line2d_9">
      <g>
       <use style="stroke:#000000;stroke-width:1.2;" x="47.56" xlink:href="#me1e099400e" y="116.590472"/>
      </g>
     </g>
     <g id="line2d_10">
      <g>
       <use style="stroke:#000000;stroke-width:1.2;" x="382.36" xlink:href="#m7f22bcc34f" y="116.590472"/>
      </g>
     </g>
     <g id="text_5">
      <!-- 0.5 -->
      <g transform="translate(7.2 125.179847)scale(0.24 -0.24)">
       <defs>
        <path d="M 15.828125 43.015625 
Q 22.359375 47.515625 29.390625 47.515625 
Q 38.328125 47.515625 44.96875 41.1875 
Q 51.609375 34.859375 51.609375 24.3125 
Q 51.609375 13.671875 44.875 6.21875 
Q 38.140625 -1.21875 27.203125 -1.21875 
Q 18.265625 -1.21875 11.71875 3.828125 
Q 5.171875 8.890625 4.203125 18.796875 
L 13.375 19.484375 
Q 14.5 12.703125 18.15625 9.34375 
Q 21.828125 6 27.203125 6 
Q 33.890625 6 38.03125 11.046875 
Q 42.1875 16.109375 42.1875 23.484375 
Q 42.1875 31 37.9375 35.34375 
Q 33.6875 39.703125 27 39.703125 
Q 18.5625 39.703125 14.015625 32.8125 
L 5.71875 33.796875 
L 12.703125 70.609375 
L 48.1875 70.609375 
L 48.1875 62.109375 
L 19.671875 62.109375 
z
" id="ArialUnicodeMS-53"/>
       </defs>
       <use xlink:href="#ArialUnicodeMS-48"/>
       <use x="55.615234" xlink:href="#ArialUnicodeMS-46"/>
       <use x="83.398438" xlink:href="#ArialUnicodeMS-53"/>
      </g>
     </g>
    </g>
    <g id="ytick_3">
     <g id="line2d_11">
      <g>
       <use style="stroke:#000000;stroke-width:1.2;" x="47.56" xlink:href="#me1e099400e" y="17.083636"/>
      </g>
     </g>
     <g id="line2d_12">
      <g>
       <use style="stroke:#000000;stroke-width:1.2;" x="382.36" xlink:href="#m7f22bcc34f" y="17.083636"/>
      </g>
     </g>
     <g id="text_6">
      <!-- 1.0 -->
      <g transform="translate(7.2 25.673011)scale(0.24 -0.24)">
       <defs>
        <path d="M 37.5 0 
L 28.71875 0 
L 28.71875 56 
Q 22.125 49.75 11.078125 45.40625 
L 11.078125 53.90625 
Q 26.265625 61.1875 31.78125 71.921875 
L 37.5 71.921875 
z
" id="ArialUnicodeMS-49"/>
       </defs>
       <use xlink:href="#ArialUnicodeMS-49"/>
       <use x="55.615234" xlink:href="#ArialUnicodeMS-46"/>
       <use x="83.398438" xlink:href="#ArialUnicodeMS-48"/>
      </g>
     </g>
    </g>
   </g>
   <g id="line2d_13">
    <path clip-path="url(#p1f0e1d4ab1)" d="M 62.778182 17.083636 
L 65.852562 26.885234 
L 68.926942 36.204096 
L 72.001322 45.069442 
L 75.075702 53.505977 
L 78.150083 61.531438 
L 81.224463 69.16321 
L 84.298843 76.418323 
L 87.373223 83.313459 
L 90.447603 89.864946 
L 93.521983 96.088758 
L 96.596364 102.00052 
L 99.670744 107.615503 
L 102.745124 112.948626 
L 105.819504 118.014455 
L 108.893884 122.827207 
L 111.968264 127.400743 
L 115.042645 131.748574 
L 118.117025 135.883858 
L 121.191405 139.819402 
L 124.265785 143.567658 
L 127.340165 147.139439 
L 130.414545 150.538836 
L 133.488926 153.772544 
L 136.563306 156.847705 
L 139.637686 159.771296 
L 142.712066 162.550128 
L 145.786446 165.190853 
L 148.860826 167.699956 
L 151.935207 170.083759 
L 155.009587 172.348422 
L 158.083967 174.49994 
L 161.158347 176.544144 
L 164.232727 178.486704 
L 167.307107 180.333122 
L 170.381488 182.088742 
L 173.455868 183.758739 
L 176.530248 185.348128 
L 179.604628 186.861712 
L 182.679008 188.302566 
L 185.753388 189.67336 
L 188.827769 190.977086 
L 191.902149 192.21667 
L 194.976529 193.394969 
L 198.050909 194.514773 
L 201.125289 195.578805 
L 204.199669 196.58972 
L 207.27405 197.550107 
L 210.34843 198.462484 
L 213.42281 199.329305 
L 216.49719 200.152955 
L 219.57157 200.935752 
L 222.64595 201.679946 
L 225.720331 202.38772 
L 228.794711 203.061189 
L 231.869091 203.702401 
L 234.943471 204.313035 
L 238.017851 204.894071 
L 241.092231 205.446752 
L 244.166612 205.972301 
L 247.240992 206.471918 
L 250.315372 206.946772 
L 253.389752 207.398005 
L 256.464132 207.826731 
L 259.538512 208.234035 
L 262.612893 208.620976 
L 265.687273 208.988583 
L 268.761653 209.337859 
L 271.836033 209.669776 
L 274.910413 209.985282 
L 277.984793 210.285293 
L 281.059174 210.570701 
L 284.133554 210.842367 
L 287.207934 211.101098 
L 290.282314 211.347367 
L 293.356694 211.58165 
L 296.431074 211.80446 
L 299.505455 212.0163 
L 302.579835 212.217659 
L 305.654215 212.409016 
L 308.728595 212.590838 
L 311.802975 212.763579 
L 314.877355 212.927685 
L 317.951736 213.083586 
L 321.026116 213.231703 
L 324.100496 213.372447 
L 327.174876 213.506213 
L 330.249256 213.633389 
L 333.323636 213.754348 
L 336.398017 213.869453 
L 339.472397 213.979056 
L 342.546777 214.083385 
L 345.621157 214.182581 
L 348.695537 214.276889 
L 351.769917 214.366549 
L 354.844298 214.451789 
L 357.918678 214.532826 
L 360.993058 214.609871 
L 364.067438 214.683122 
L 367.141818 214.752769 
" style="fill:none;stroke:#000000;stroke-linecap:square;stroke-width:3;"/>
    <defs>
     <path d="M -0.49999 0.49999 
L 0.50001 0.49999 
L 0.50001 -0.50001 
L -0.49999 -0.50001 
z
" id="m817f25c97c"/>
    </defs>
    <g clip-path="url(#p1f0e1d4ab1)">
     <use x="62.778182" xlink:href="#m817f25c97c" y="17.083636"/>
     <use x="65.852562" xlink:href="#m817f25c97c" y="26.885234"/>
     <use x="68.926942" xlink:href="#m817f25c97c" y="36.204096"/>
     <use x="72.001322" xlink:href="#m817f25c97c" y="45.069442"/>
     <use x="75.075702" xlink:href="#m817f25c97c" y="53.505977"/>
     <use x="78.150083" xlink:href="#m817f25c97c" y="61.531438"/>
     <use x="81.224463" xlink:href="#m817f25c97c" y="69.16321"/>
     <use x="84.298843" xlink:href="#m817f25c97c" y="76.418323"/>
     <use x="87.373223" xlink:href="#m817f25c97c" y="83.313459"/>
     <use x="90.447603" xlink:href="#m817f25c97c" y="89.864946"/>
     <use x="93.521983" xlink:href="#m817f25c97c" y="96.088758"/>
     <use x="96.596364" xlink:href="#m817f25c97c" y="102.00052"/>
     <use x="99.670744" xlink:href="#m817f25c97c" y="107.615503"/>
     <use x="102.745124" xlink:href="#m817f25c97c" y="112.948626"/>
     <use x="105.819504" xlink:href="#m817f25c97c" y="118.014455"/>
     <use x="108.893884" xlink:href="#m817f25c97c" y="122.827207"/>
     <use x="111.968264" xlink:href="#m817f25c97c" y="127.400743"/>
     <use x="115.042645" xlink:href="#m817f25c97c" y="131.748574"/>
     <use x="118.117025" xlink:href="#m817f25c97c" y="135.883858"/>
     <use x="121.191405" xlink:href="#m817f25c97c" y="139.819402"/>
     <use x="124.265785" xlink:href="#m817f25c97c" y="143.567658"/>
     <use x="127.340165" xlink:href="#m817f25c97c" y="147.139439"/>
     <use x="130.414545" xlink:href="#m817f25c97c" y="150.538836"/>
     <use x="133.488926" xlink:href="#m817f25c97c" y="153.772544"/>
     <use x="136.563306" xlink:href="#m817f25c97c" y="156.847705"/>
     <use x="139.637686" xlink:href="#m817f25c97c" y="159.771296"/>
     <use x="142.712066" xlink:href="#m817f25c97c" y="162.550128"/>
     <use x="145.786446" xlink:href="#m817f25c97c" y="165.190853"/>
     <use x="148.860826" xlink:href="#m817f25c97c" y="167.699956"/>
     <use x="151.935207" xlink:href="#m817f25c97c" y="170.083759"/>
     <use x="155.009587" xlink:href="#m817f25c97c" y="172.348422"/>
     <use x="158.083967" xlink:href="#m817f25c97c" y="174.49994"/>
     <use x="161.158347" xlink:href="#m817f25c97c" y="176.544144"/>
     <use x="164.232727" xlink:href="#m817f25c97c" y="178.486704"/>
     <use x="167.307107" xlink:href="#m817f25c97c" y="180.333122"/>
     <use x="170.381488" xlink:href="#m817f25c97c" y="182.088742"/>
     <use x="173.455868" xlink:href="#m817f25c97c" y="183.758739"/>
     <use x="176.530248" xlink:href="#m817f25c97c" y="185.348128"/>
     <use x="179.604628" xlink:href="#m817f25c97c" y="186.861712"/>
     <use x="182.679008" xlink:href="#m817f25c97c" y="188.302566"/>
     <use x="185.753388" xlink:href="#m817f25c97c" y="189.67336"/>
     <use x="188.827769" xlink:href="#m817f25c97c" y="190.977086"/>
     <use x="191.902149" xlink:href="#m817f25c97c" y="192.21667"/>
     <use x="194.976529" xlink:href="#m817f25c97c" y="193.394969"/>
     <use x="198.050909" xlink:href="#m817f25c97c" y="194.514773"/>
     <use x="201.125289" xlink:href="#m817f25c97c" y="195.578805"/>
     <use x="204.199669" xlink:href="#m817f25c97c" y="196.58972"/>
     <use x="207.27405" xlink:href="#m817f25c97c" y="197.550107"/>
     <use x="210.34843" xlink:href="#m817f25c97c" y="198.462484"/>
     <use x="213.42281" xlink:href="#m817f25c97c" y="199.329305"/>
     <use x="216.49719" xlink:href="#m817f25c97c" y="200.152955"/>
     <use x="219.57157" xlink:href="#m817f25c97c" y="200.935752"/>
     <use x="222.64595" xlink:href="#m817f25c97c" y="201.679946"/>
     <use x="225.720331" xlink:href="#m817f25c97c" y="202.38772"/>
     <use x="228.794711" xlink:href="#m817f25c97c" y="203.061189"/>
     <use x="231.869091" xlink:href="#m817f25c97c" y="203.702401"/>
     <use x="234.943471" xlink:href="#m817f25c97c" y="204.313035"/>
     <use x="238.017851" xlink:href="#m817f25c97c" y="204.894071"/>
     <use x="241.092231" xlink:href="#m817f25c97c" y="205.446752"/>
     <use x="244.166612" xlink:href="#m817f25c97c" y="205.972301"/>
     <use x="247.240992" xlink:href="#m817f25c97c" y="206.471918"/>
     <use x="250.315372" xlink:href="#m817f25c97c" y="206.946772"/>
     <use x="253.389752" xlink:href="#m817f25c97c" y="207.398005"/>
     <use x="256.464132" xlink:href="#m817f25c97c" y="207.826731"/>
     <use x="259.538512" xlink:href="#m817f25c97c" y="208.234035"/>
     <use x="262.612893" xlink:href="#m817f25c97c" y="208.620976"/>
     <use x="265.687273" xlink:href="#m817f25c97c" y="208.988583"/>
     <use x="268.761653" xlink:href="#m817f25c97c" y="209.337859"/>
     <use x="271.836033" xlink:href="#m817f25c97c" y="209.669776"/>
     <use x="274.910413" xlink:href="#m817f25c97c" y="209.985282"/>
     <use x="277.984793" xlink:href="#m817f25c97c" y="210.285293"/>
     <use x="281.059174" xlink:href="#m817f25c97c" y="210.570701"/>
     <use x="284.133554" xlink:href="#m817f25c97c" y="210.842367"/>
     <use x="287.207934" xlink:href="#m817f25c97c" y="211.101098"/>
     <use x="290.282314" xlink:href="#m817f25c97c" y="211.347367"/>
     <use x="293.356694" xlink:href="#m817f25c97c" y="211.58165"/>
     <use x="296.431074" xlink:href="#m817f25c97c" y="211.80446"/>
     <use x="299.505455" xlink:href="#m817f25c97c" y="212.0163"/>
     <use x="302.579835" xlink:href="#m817f25c97c" y="212.217659"/>
     <use x="305.654215" xlink:href="#m817f25c97c" y="212.409016"/>
     <use x="308.728595" xlink:href="#m817f25c97c" y="212.590838"/>
     <use x="311.802975" xlink:href="#m817f25c97c" y="212.763579"/>
     <use x="314.877355" xlink:href="#m817f25c97c" y="212.927685"/>
     <use x="317.951736" xlink:href="#m817f25c97c" y="213.083586"/>
     <use x="321.026116" xlink:href="#m817f25c97c" y="213.231703"/>
     <use x="324.100496" xlink:href="#m817f25c97c" y="213.372447"/>
     <use x="327.174876" xlink:href="#m817f25c97c" y="213.506213"/>
     <use x="330.249256" xlink:href="#m817f25c97c" y="213.633389"/>
     <use x="333.323636" xlink:href="#m817f25c97c" y="213.754348"/>
     <use x="336.398017" xlink:href="#m817f25c97c" y="213.869453"/>
     <use x="339.472397" xlink:href="#m817f25c97c" y="213.979056"/>
     <use x="342.546777" xlink:href="#m817f25c97c" y="214.083385"/>
     <use x="345.621157" xlink:href="#m817f25c97c" y="214.182581"/>
     <use x="348.695537" xlink:href="#m817f25c97c" y="214.276889"/>
     <use x="351.769917" xlink:href="#m817f25c97c" y="214.366549"/>
     <use x="354.844298" xlink:href="#m817f25c97c" y="214.451789"/>
     <use x="357.918678" xlink:href="#m817f25c97c" y="214.532826"/>
     <use x="360.993058" xlink:href="#m817f25c97c" y="214.609871"/>
     <use x="364.067438" xlink:href="#m817f25c97c" y="214.683122"/>
     <use x="367.141818" xlink:href="#m817f25c97c" y="214.752769"/>
    </g>
   </g>
   <g id="line2d_14">
    <path clip-path="url(#p1f0e1d4ab1)" d="M 62.778182 17.083636 
L 65.852562 26.885233 
L 68.926942 36.204093 
L 72.001322 45.063991 
L 75.075702 53.487531 
L 78.150083 61.496205 
L 81.224463 69.110444 
L 84.298843 76.349675 
L 87.373223 83.232368 
L 90.447603 89.776082 
L 93.521983 95.997513 
L 96.596364 101.912533 
L 99.670744 107.536233 
L 102.745124 112.88296 
L 105.819504 117.966357 
L 108.893884 122.799392 
L 111.968264 127.394396 
L 115.042645 131.763092 
L 118.117025 135.916625 
L 121.191405 139.865594 
L 124.265785 143.620072 
L 127.340165 147.189639 
L 130.414545 150.583402 
L 133.488926 153.810019 
L 136.563306 156.877723 
L 139.637686 159.794339 
L 142.712066 162.567309 
L 145.786446 165.203708 
L 148.860826 167.710263 
L 151.935207 170.093367 
L 155.009587 172.359101 
L 158.083967 174.513246 
L 161.158347 176.561297 
L 164.232727 178.50848 
L 167.307107 180.359763 
L 170.381488 182.119868 
L 173.455868 183.793287 
L 176.530248 185.384288 
L 179.604628 186.896931 
L 182.679008 188.335075 
L 185.753388 189.702389 
L 188.827769 191.002362 
L 191.902149 192.23831 
L 194.976529 193.413386 
L 198.050909 194.530589 
L 201.125289 195.592769 
L 204.199669 196.602635 
L 207.27405 197.562765 
L 210.34843 198.475607 
L 213.42281 199.343491 
L 216.49719 200.168631 
L 219.57157 200.953133 
L 222.64595 201.698996 
L 225.720331 202.408126 
L 228.794711 203.08233 
L 231.869091 203.723329 
L 234.943471 204.332758 
L 238.017851 204.912172 
L 241.092231 205.46305 
L 244.166612 205.986797 
L 247.240992 206.484748 
L 250.315372 206.958175 
L 253.389752 207.408285 
L 256.464132 207.836227 
L 259.538512 208.243093 
L 262.612893 208.629919 
L 265.687273 208.997695 
L 268.761653 209.347357 
L 271.836033 209.679798 
L 274.910413 209.995866 
L 277.984793 210.296367 
L 281.059174 210.582069 
L 284.133554 210.853699 
L 287.207934 211.111951 
L 290.282314 211.357484 
L 293.356694 211.590925 
L 296.431074 211.812868 
L 299.505455 212.02388 
L 302.579835 212.2245 
L 305.654215 212.415239 
L 308.728595 212.596584 
L 311.802975 212.768998 
L 314.877355 212.93292 
L 317.951736 213.088769 
L 321.026116 213.236942 
L 324.100496 213.377818 
L 327.174876 213.511755 
L 330.249256 213.639096 
L 333.323636 213.760165 
L 336.398017 213.875271 
L 339.472397 213.984708 
L 342.546777 214.088755 
L 345.621157 214.187678 
L 348.695537 214.281729 
L 351.769917 214.371148 
L 354.844298 214.456163 
L 357.918678 214.536991 
L 360.993058 214.613838 
L 364.067438 214.6869 
L 367.141818 214.756364 
" style="fill:none;stroke:#ff0000;stroke-dasharray:11.1,4.8;stroke-dashoffset:0;stroke-width:3;"/>
    <defs>
     <path d="M -0.49999 0.49999 
L 0.50001 0.49999 
L 0.50001 -0.50001 
L -0.49999 -0.50001 
z
" id="m8d07afbfbc"/>
    </defs>
    <g clip-path="url(#p1f0e1d4ab1)">
     <use style="fill:#ff0000;" x="62.778182" xlink:href="#m8d07afbfbc" y="17.083636"/>
     <use style="fill:#ff0000;" x="65.852562" xlink:href="#m8d07afbfbc" y="26.885233"/>
     <use style="fill:#ff0000;" x="68.926942" xlink:href="#m8d07afbfbc" y="36.204093"/>
     <use style="fill:#ff0000;" x="72.001322" xlink:href="#m8d07afbfbc" y="45.063991"/>
     <use style="fill:#ff0000;" x="75.075702" xlink:href="#m8d07afbfbc" y="53.487531"/>
     <use style="fill:#ff0000;" x="78.150083" xlink:href="#m8d07afbfbc" y="61.496205"/>
     <use style="fill:#ff0000;" x="81.224463" xlink:href="#m8d07afbfbc" y="69.110444"/>
     <use style="fill:#ff0000;" x="84.298843" xlink:href="#m8d07afbfbc" y="76.349675"/>
     <use style="fill:#ff0000;" x="87.373223" xlink:href="#m8d07afbfbc" y="83.232368"/>
     <use style="fill:#ff0000;" x="90.447603" xlink:href="#m8d07afbfbc" y="89.776082"/>
     <use style="fill:#ff0000;" x="93.521983" xlink:href="#m8d07afbfbc" y="95.997513"/>
     <use style="fill:#ff0000;" x="96.596364" xlink:href="#m8d07afbfbc" y="101.912533"/>
     <use style="fill:#ff0000;" x="99.670744" xlink:href="#m8d07afbfbc" y="107.536233"/>
     <use style="fill:#ff0000;" x="102.745124" xlink:href="#m8d07afbfbc" y="112.88296"/>
     <use style="fill:#ff0000;" x="105.819504" xlink:href="#m8d07afbfbc" y="117.966357"/>
     <use style="fill:#ff0000;" x="108.893884" xlink:href="#m8d07afbfbc" y="122.799392"/>
     <use style="fill:#ff0000;" x="111.968264" xlink:href="#m8d07afbfbc" y="127.394396"/>
     <use style="fill:#ff0000;" x="115.042645" xlink:href="#m8d07afbfbc" y="131.763092"/>
     <use style="fill:#ff0000;" x="118.117025" xlink:href="#m8d07afbfbc" y="135.916625"/>
     <use style="fill:#ff0000;" x="121.191405" xlink:href="#m8d07afbfbc" y="139.865594"/>
     <use style="fill:#ff0000;" x="124.265785" xlink:href="#m8d07afbfbc" y="143.620072"/>
     <use style="fill:#ff0000;" x="127.340165" xlink:href="#m8d07afbfbc" y="147.189639"/>
     <use style="fill:#ff0000;" x="130.414545" xlink:href="#m8d07afbfbc" y="150.583402"/>
     <use style="fill:#ff0000;" x="133.488926" xlink:href="#m8d07afbfbc" y="153.810019"/>
     <use style="fill:#ff0000;" x="136.563306" xlink:href="#m8d07afbfbc" y="156.877723"/>
     <use style="fill:#ff0000;" x="139.637686" xlink:href="#m8d07afbfbc" y="159.794339"/>
     <use style="fill:#ff0000;" x="142.712066" xlink:href="#m8d07afbfbc" y="162.567309"/>
     <use style="fill:#ff0000;" x="145.786446" xlink:href="#m8d07afbfbc" y="165.203708"/>
     <use style="fill:#ff0000;" x="148.860826" xlink:href="#m8d07afbfbc" y="167.710263"/>
     <use style="fill:#ff0000;" x="151.935207" xlink:href="#m8d07afbfbc" y="170.093367"/>
     <use style="fill:#ff0000;" x="155.009587" xlink:href="#m8d07afbfbc" y="172.359101"/>
     <use style="fill:#ff0000;" x="158.083967" xlink:href="#m8d07afbfbc" y="174.513246"/>
     <use style="fill:#ff0000;" x="161.158347" xlink:href="#m8d07afbfbc" y="176.561297"/>
     <use style="fill:#ff0000;" x="164.232727" xlink:href="#m8d07afbfbc" y="178.50848"/>
     <use style="fill:#ff0000;" x="167.307107" xlink:href="#m8d07afbfbc" y="180.359763"/>
     <use style="fill:#ff0000;" x="170.381488" xlink:href="#m8d07afbfbc" y="182.119868"/>
     <use style="fill:#ff0000;" x="173.455868" xlink:href="#m8d07afbfbc" y="183.793287"/>
     <use style="fill:#ff0000;" x="176.530248" xlink:href="#m8d07afbfbc" y="185.384288"/>
     <use style="fill:#ff0000;" x="179.604628" xlink:href="#m8d07afbfbc" y="186.896931"/>
     <use style="fill:#ff0000;" x="182.679008" xlink:href="#m8d07afbfbc" y="188.335075"/>
     <use style="fill:#ff0000;" x="185.753388" xlink:href="#m8d07afbfbc" y="189.702389"/>
     <use style="fill:#ff0000;" x="188.827769" xlink:href="#m8d07afbfbc" y="191.002362"/>
     <use style="fill:#ff0000;" x="191.902149" xlink:href="#m8d07afbfbc" y="192.23831"/>
     <use style="fill:#ff0000;" x="194.976529" xlink:href="#m8d07afbfbc" y="193.413386"/>
     <use style="fill:#ff0000;" x="198.050909" xlink:href="#m8d07afbfbc" y="194.530589"/>
     <use style="fill:#ff0000;" x="201.125289" xlink:href="#m8d07afbfbc" y="195.592769"/>
     <use style="fill:#ff0000;" x="204.199669" xlink:href="#m8d07afbfbc" y="196.602635"/>
     <use style="fill:#ff0000;" x="207.27405" xlink:href="#m8d07afbfbc" y="197.562765"/>
     <use style="fill:#ff0000;" x="210.34843" xlink:href="#m8d07afbfbc" y="198.475607"/>
     <use style="fill:#ff0000;" x="213.42281" xlink:href="#m8d07afbfbc" y="199.343491"/>
     <use style="fill:#ff0000;" x="216.49719" xlink:href="#m8d07afbfbc" y="200.168631"/>
     <use style="fill:#ff0000;" x="219.57157" xlink:href="#m8d07afbfbc" y="200.953133"/>
     <use style="fill:#ff0000;" x="222.64595" xlink:href="#m8d07afbfbc" y="201.698996"/>
     <use style="fill:#ff0000;" x="225.720331" xlink:href="#m8d07afbfbc" y="202.408126"/>
     <use style="fill:#ff0000;" x="228.794711" xlink:href="#m8d07afbfbc" y="203.08233"/>
     <use style="fill:#ff0000;" x="231.869091" xlink:href="#m8d07afbfbc" y="203.723329"/>
     <use style="fill:#ff0000;" x="234.943471" xlink:href="#m8d07afbfbc" y="204.332758"/>
     <use style="fill:#ff0000;" x="238.017851" xlink:href="#m8d07afbfbc" y="204.912172"/>
     <use style="fill:#ff0000;" x="241.092231" xlink:href="#m8d07afbfbc" y="205.46305"/>
     <use style="fill:#ff0000;" x="244.166612" xlink:href="#m8d07afbfbc" y="205.986797"/>
     <use style="fill:#ff0000;" x="247.240992" xlink:href="#m8d07afbfbc" y="206.484748"/>
     <use style="fill:#ff0000;" x="250.315372" xlink:href="#m8d07afbfbc" y="206.958175"/>
     <use style="fill:#ff0000;" x="253.389752" xlink:href="#m8d07afbfbc" y="207.408285"/>
     <use style="fill:#ff0000;" x="256.464132" xlink:href="#m8d07afbfbc" y="207.836227"/>
     <use style="fill:#ff0000;" x="259.538512" xlink:href="#m8d07afbfbc" y="208.243093"/>
     <use style="fill:#ff0000;" x="262.612893" xlink:href="#m8d07afbfbc" y="208.629919"/>
     <use style="fill:#ff0000;" x="265.687273" xlink:href="#m8d07afbfbc" y="208.997695"/>
     <use style="fill:#ff0000;" x="268.761653" xlink:href="#m8d07afbfbc" y="209.347357"/>
     <use style="fill:#ff0000;" x="271.836033" xlink:href="#m8d07afbfbc" y="209.679798"/>
     <use style="fill:#ff0000;" x="274.910413" xlink:href="#m8d07afbfbc" y="209.995866"/>
     <use style="fill:#ff0000;" x="277.984793" xlink:href="#m8d07afbfbc" y="210.296367"/>
     <use style="fill:#ff0000;" x="281.059174" xlink:href="#m8d07afbfbc" y="210.582069"/>
     <use style="fill:#ff0000;" x="284.133554" xlink:href="#m8d07afbfbc" y="210.853699"/>
     <use style="fill:#ff0000;" x="287.207934" xlink:href="#m8d07afbfbc" y="211.111951"/>
     <use style="fill:#ff0000;" x="290.282314" xlink:href="#m8d07afbfbc" y="211.357484"/>
     <use style="fill:#ff0000;" x="293.356694" xlink:href="#m8d07afbfbc" y="211.590925"/>
     <use style="fill:#ff0000;" x="296.431074" xlink:href="#m8d07afbfbc" y="211.812868"/>
     <use style="fill:#ff0000;" x="299.505455" xlink:href="#m8d07afbfbc" y="212.02388"/>
     <use style="fill:#ff0000;" x="302.579835" xlink:href="#m8d07afbfbc" y="212.2245"/>
     <use style="fill:#ff0000;" x="305.654215" xlink:href="#m8d07afbfbc" y="212.415239"/>
     <use style="fill:#ff0000;" x="308.728595" xlink:href="#m8d07afbfbc" y="212.596584"/>
     <use style="fill:#ff0000;" x="311.802975" xlink:href="#m8d07afbfbc" y="212.768998"/>
     <use style="fill:#ff0000;" x="314.877355" xlink:href="#m8d07afbfbc" y="212.93292"/>
     <use style="fill:#ff0000;" x="317.951736" xlink:href="#m8d07afbfbc" y="213.088769"/>
     <use style="fill:#ff0000;" x="321.026116" xlink:href="#m8d07afbfbc" y="213.236942"/>
     <use style="fill:#ff0000;" x="324.100496" xlink:href="#m8d07afbfbc" y="213.377818"/>
     <use style="fill:#ff0000;" x="327.174876" xlink:href="#m8d07afbfbc" y="213.511755"/>
     <use style="fill:#ff0000;" x="330.249256" xlink:href="#m8d07afbfbc" y="213.639096"/>
     <use style="fill:#ff0000;" x="333.323636" xlink:href="#m8d07afbfbc" y="213.760165"/>
     <use style="fill:#ff0000;" x="336.398017" xlink:href="#m8d07afbfbc" y="213.875271"/>
     <use style="fill:#ff0000;" x="339.472397" xlink:href="#m8d07afbfbc" y="213.984708"/>
     <use style="fill:#ff0000;" x="342.546777" xlink:href="#m8d07afbfbc" y="214.088755"/>
     <use style="fill:#ff0000;" x="345.621157" xlink:href="#m8d07afbfbc" y="214.187678"/>
     <use style="fill:#ff0000;" x="348.695537" xlink:href="#m8d07afbfbc" y="214.281729"/>
     <use style="fill:#ff0000;" x="351.769917" xlink:href="#m8d07afbfbc" y="214.371148"/>
     <use style="fill:#ff0000;" x="354.844298" xlink:href="#m8d07afbfbc" y="214.456163"/>
     <use style="fill:#ff0000;" x="357.918678" xlink:href="#m8d07afbfbc" y="214.536991"/>
     <use style="fill:#ff0000;" x="360.993058" xlink:href="#m8d07afbfbc" y="214.613838"/>
     <use style="fill:#ff0000;" x="364.067438" xlink:href="#m8d07afbfbc" y="214.6869"/>
     <use style="fill:#ff0000;" x="367.141818" xlink:href="#m8d07afbfbc" y="214.756364"/>
    </g>
   </g>
   <g id="patch_3">
    <path d="M 47.56 224.64 
L 47.56 7.2 
" style="fill:none;stroke:#000000;stroke-linecap:square;stroke-linejoin:miter;stroke-width:2;"/>
   </g>
   <g id="patch_4">
    <path d="M 382.36 224.64 
L 382.36 7.2 
" style="fill:none;stroke:#000000;stroke-linecap:square;stroke-linejoin:miter;stroke-width:2;"/>
   </g>
   <g id="patch_5">
    <path d="M 47.56 224.64 
L 382.36 224.64 
" style="fill:none;stroke:#000000;stroke-linecap:square;stroke-linejoin:miter;stroke-width:2;"/>
   </g>
   <g id="patch_6">
    <path d="M 47.56 7.2 
L 382.36 7.2 
" style="fill:none;stroke:#000000;stroke-linecap:square;stroke-linejoin:miter;stroke-width:2;"/>
   </g>
   <g id="legend_1">
    <g id="patch_7">
     <path d="M 296.352188 43.607813 
L 377.36 43.607813 
L 377.36 12.2 
L 296.352188 12.2 
z
" style="fill:#ffffff;stroke:#000000;stroke-linejoin:miter;"/>
    </g>
    <g id="line2d_15">
     <path d="M 300.352188 19.857813 
L 320.352188 19.857813 
" style="fill:none;stroke:#000000;stroke-linecap:square;stroke-width:3;"/>
    </g>
    <g id="line2d_16">
     <g>
      <use x="310.352188" xlink:href="#m817f25c97c" y="19.857813"/>
     </g>
    </g>
    <g id="text_7">
     <!-- Numerical -->
     <g transform="translate(328.352188 23.357813)scale(0.1 -0.1)">
      <defs>
       <path d="M 64.203125 0 
L 54.5 0 
L 17.09375 56.203125 
L 16.890625 56.203125 
L 16.890625 0 
L 7.90625 0 
L 7.90625 71.578125 
L 17.578125 71.578125 
L 54.984375 15.375 
L 55.171875 15.375 
L 55.171875 71.578125 
L 64.203125 71.578125 
z
" id="ArialUnicodeMS-78"/>
       <path d="M 48.6875 0 
L 40.828125 0 
L 40.828125 7.625 
L 40.578125 7.625 
Q 34.625 -1.21875 24.3125 -1.21875 
Q 18.890625 -1.21875 14.28125 1.296875 
Q 9.671875 3.8125 8.125 8.21875 
Q 6.59375 12.640625 6.59375 19.671875 
L 6.59375 51.8125 
L 15.375 51.8125 
L 15.375 23.09375 
Q 15.375 16.21875 16.03125 13.234375 
Q 16.703125 10.25 19.484375 8.3125 
Q 22.265625 6.390625 26.125 6.390625 
Q 31.109375 6.390625 35.5 9.828125 
Q 39.890625 13.28125 39.890625 24.125 
L 39.890625 51.8125 
L 48.6875 51.8125 
z
" id="ArialUnicodeMS-117"/>
       <path d="M 76.90625 0 
L 68.109375 0 
L 68.109375 32.71875 
Q 68.109375 36.328125 67.625 38.890625 
Q 67.140625 41.453125 65.109375 43.421875 
Q 63.09375 45.40625 58.796875 45.40625 
Q 53.609375 45.40625 49.84375 41.796875 
Q 46.09375 38.1875 46.09375 30.078125 
L 46.09375 0 
L 37.3125 0 
L 37.3125 33.6875 
Q 37.3125 40.4375 34.9375 42.921875 
Q 32.5625 45.40625 28.21875 45.40625 
Q 22.5625 45.40625 18.921875 41.5 
Q 15.28125 37.59375 15.28125 26.90625 
L 15.28125 0 
L 6.5 0 
L 6.5 51.8125 
L 14.40625 51.8125 
L 14.40625 44.578125 
L 14.59375 44.578125 
Q 19.875 52.984375 30.078125 52.984375 
Q 35.796875 52.984375 39.484375 50.703125 
Q 43.171875 48.4375 44.828125 43.890625 
Q 50.59375 52.984375 60.796875 52.984375 
Q 68.84375 52.984375 72.875 48.625 
Q 76.90625 44.28125 76.90625 35.59375 
z
" id="ArialUnicodeMS-109"/>
       <path d="M 51.703125 23.6875 
L 12.890625 23.6875 
Q 13.421875 15.09375 17.796875 10.546875 
Q 22.171875 6 28.71875 6 
Q 33.734375 6 37.15625 8.65625 
Q 40.578125 11.328125 42.390625 16.703125 
L 51.421875 15.578125 
Q 49.21875 7.46875 43.359375 3.125 
Q 37.5 -1.21875 28.71875 -1.21875 
Q 17.046875 -1.21875 10.46875 5.9375 
Q 3.90625 13.09375 3.90625 25.484375 
Q 3.90625 37.75 10.28125 45.359375 
Q 16.65625 52.984375 28.21875 52.984375 
Q 33.890625 52.984375 39.140625 50.484375 
Q 44.390625 48 48.046875 42.015625 
Q 51.703125 36.03125 51.703125 23.6875 
z
M 42.671875 30.90625 
Q 42.140625 38.8125 37.765625 42.296875 
Q 33.40625 45.796875 28.21875 45.796875 
Q 22.015625 45.796875 18.015625 41.640625 
Q 14.015625 37.5 13.375 30.90625 
z
" id="ArialUnicodeMS-101"/>
       <path d="M 34.625 50.203125 
L 31.59375 42.09375 
Q 28.328125 44 25.203125 44 
Q 20.265625 44 17.71875 39.578125 
Q 15.1875 35.15625 15.1875 27.203125 
L 15.1875 0 
L 6.390625 0 
L 6.390625 51.8125 
L 14.40625 51.8125 
L 14.40625 44 
L 14.59375 44 
Q 18.796875 52.984375 25.59375 52.984375 
Q 30.078125 52.984375 34.625 50.203125 
z
" id="ArialUnicodeMS-114"/>
       <path d="M 15.484375 0 
L 6.6875 0 
L 6.6875 51.8125 
L 15.484375 51.8125 
z
M 15.484375 61.625 
L 6.6875 61.625 
L 6.6875 71.578125 
L 15.484375 71.578125 
z
" id="ArialUnicodeMS-105"/>
       <path d="M 49.125 17.921875 
Q 47.40625 8.015625 41.296875 3.390625 
Q 35.203125 -1.21875 27.484375 -1.21875 
Q 16.21875 -1.21875 10.0625 6.171875 
Q 3.90625 13.578125 3.90625 25.78125 
Q 3.90625 35.890625 7.4375 41.96875 
Q 10.984375 48.046875 16.296875 50.515625 
Q 21.625 52.984375 27.484375 52.984375 
Q 35.5 52.984375 41.1875 48.828125 
Q 46.875 44.671875 48.1875 36.625 
L 39.703125 35.296875 
Q 38.375 40.53125 35.421875 43.15625 
Q 32.46875 45.796875 27.875 45.796875 
Q 20.515625 45.796875 16.703125 40.578125 
Q 12.890625 35.359375 12.890625 25.984375 
Q 12.890625 16.40625 16.625 11.203125 
Q 20.359375 6 27.390625 6 
Q 33.0625 6 36.296875 9.25 
Q 39.546875 12.5 40.375 19 
z
" id="ArialUnicodeMS-99"/>
       <path d="M 51.609375 0 
L 42.390625 0 
Q 41.109375 2.4375 40.578125 6.390625 
Q 31.734375 -1.21875 21.484375 -1.21875 
Q 13.28125 -1.21875 8.546875 2.875 
Q 3.8125 6.984375 3.8125 13.71875 
Q 3.8125 20.171875 8.375 24.34375 
Q 12.9375 28.515625 24.21875 29.890625 
L 32.421875 31.109375 
Q 37.015625 31.84375 39.984375 32.90625 
Q 39.984375 36.859375 39.734375 38.5 
Q 39.5 40.140625 38.296875 41.890625 
Q 37.109375 43.65625 34.46875 44.71875 
Q 31.84375 45.796875 27.390625 45.796875 
Q 21.734375 45.796875 18.4375 43.703125 
Q 15.140625 41.609375 13.921875 35.890625 
L 5.328125 37.015625 
Q 6.734375 44.96875 12.59375 48.96875 
Q 18.453125 52.984375 28.71875 52.984375 
Q 38.03125 52.984375 42.40625 50.21875 
Q 46.78125 47.46875 47.78125 43.5625 
Q 48.78125 39.65625 48.78125 33.5 
L 48.78125 21.6875 
Q 48.78125 10.890625 49.1875 7.203125 
Q 49.609375 3.515625 51.609375 0 
z
M 39.984375 22.796875 
L 39.984375 25.984375 
Q 33.109375 23.6875 23.140625 22.34375 
Q 13.1875 21 13.1875 13.921875 
Q 13.1875 10.359375 15.875 8.03125 
Q 18.5625 5.71875 23.578125 5.71875 
Q 30.078125 5.71875 35.03125 9.59375 
Q 39.984375 13.484375 39.984375 22.796875 
z
" id="ArialUnicodeMS-97"/>
       <path d="M 15.484375 0 
L 6.6875 0 
L 6.6875 71.578125 
L 15.484375 71.578125 
z
" id="ArialUnicodeMS-108"/>
      </defs>
      <use xlink:href="#ArialUnicodeMS-78"/>
      <use x="72.216797" xlink:href="#ArialUnicodeMS-117"/>
      <use x="127.832031" xlink:href="#ArialUnicodeMS-109"/>
      <use x="211.132812" xlink:href="#ArialUnicodeMS-101"/>
      <use x="266.748047" xlink:href="#ArialUnicodeMS-114"/>
      <use x="300.048828" xlink:href="#ArialUnicodeMS-105"/>
      <use x="322.265625" xlink:href="#ArialUnicodeMS-99"/>
      <use x="372.265625" xlink:href="#ArialUnicodeMS-97"/>
      <use x="427.880859" xlink:href="#ArialUnicodeMS-108"/>
     </g>
    </g>
    <g id="line2d_17">
     <path d="M 300.352188 34.007813 
L 320.352188 34.007813 
" style="fill:none;stroke:#ff0000;stroke-dasharray:11.1,4.8;stroke-dashoffset:0;stroke-width:3;"/>
    </g>
    <g id="line2d_18">
     <g>
      <use style="fill:#ff0000;" x="310.352188" xlink:href="#m8d07afbfbc" y="34.007813"/>
     </g>
    </g>
    <g id="text_8">
     <!-- Analytical -->
     <g transform="translate(328.352188 37.507813)scale(0.1 -0.1)">
      <defs>
       <path d="M 66.796875 0 
L 56.109375 0 
L 47.703125 21.78125 
L 17.828125 21.78125 
L 9.90625 0 
L -0.09375 0 
L 27.390625 71.578125 
L 37.59375 71.578125 
z
M 44.828125 29.296875 
Q 36.03125 52.546875 34.90625 55.6875 
Q 33.796875 58.84375 32.421875 64.109375 
L 32.171875 64.109375 
Q 30.8125 56.890625 28.515625 50.734375 
L 20.515625 29.296875 
z
" id="ArialUnicodeMS-65"/>
       <path d="M 49.03125 0 
L 40.1875 0 
L 40.1875 31.5 
Q 40.1875 39.453125 37.328125 42.421875 
Q 34.46875 45.40625 29.390625 45.40625 
Q 25.484375 45.40625 21.984375 43.5 
Q 18.5 41.609375 17.03125 38.140625 
Q 15.578125 34.671875 15.578125 28.328125 
L 15.578125 0 
L 6.78125 0 
L 6.78125 51.8125 
L 14.703125 51.8125 
L 14.703125 44.484375 
L 14.890625 44.484375 
Q 17.671875 48.734375 21.75 50.859375 
Q 25.828125 52.984375 31.203125 52.984375 
Q 35.296875 52.984375 39.296875 51.515625 
Q 43.3125 50.046875 45.578125 47.109375 
Q 47.859375 44.1875 48.4375 40.859375 
Q 49.03125 37.546875 49.03125 31.890625 
z
" id="ArialUnicodeMS-110"/>
       <path d="M 49.21875 51.8125 
L 29.390625 -0.875 
Q 29.34375 -0.984375 29.296875 -1.21875 
Q 26.46875 -10.015625 22.671875 -15.5 
Q 18.890625 -21 11.921875 -21 
Q 9.578125 -21 6.203125 -20.015625 
L 5.328125 -11.71875 
Q 7.859375 -12.5 10.296875 -12.5 
Q 15.1875 -12.5 17.0625 -9.8125 
Q 18.953125 -7.125 21.296875 -0.09375 
L 1.609375 51.8125 
L 11.078125 51.8125 
L 23.296875 17.875 
Q 24.359375 14.75 25.59375 9.8125 
L 25.78125 9.8125 
Q 27 15.484375 28.90625 20.609375 
L 40.28125 51.8125 
z
" id="ArialUnicodeMS-121"/>
       <path d="M 26.90625 0.09375 
Q 23 -0.6875 20.3125 -0.6875 
Q 14.546875 -0.6875 11.90625 1.34375 
Q 9.28125 3.375 8.6875 6.5 
Q 8.109375 9.625 8.109375 15.1875 
L 8.109375 45.015625 
L 1.703125 45.015625 
L 1.703125 51.8125 
L 8.109375 51.8125 
L 8.109375 64.703125 
L 16.890625 70.015625 
L 16.890625 51.8125 
L 25.6875 51.8125 
L 25.6875 45.015625 
L 16.890625 45.015625 
L 16.890625 14.703125 
Q 16.890625 10.796875 17.6875 9.15625 
Q 18.5 7.515625 21.78125 7.515625 
Q 23.6875 7.515625 25.6875 7.90625 
z
" id="ArialUnicodeMS-116"/>
      </defs>
      <use xlink:href="#ArialUnicodeMS-65"/>
      <use x="66.699219" xlink:href="#ArialUnicodeMS-110"/>
      <use x="122.314453" xlink:href="#ArialUnicodeMS-97"/>
      <use x="177.929688" xlink:href="#ArialUnicodeMS-108"/>
      <use x="200.146484" xlink:href="#ArialUnicodeMS-121"/>
      <use x="250.146484" xlink:href="#ArialUnicodeMS-116"/>
      <use x="277.929688" xlink:href="#ArialUnicodeMS-105"/>
      <use x="300.146484" xlink:href="#ArialUnicodeMS-99"/>
      <use x="350.146484" xlink:href="#ArialUnicodeMS-97"/>
      <use x="405.761719" xlink:href="#ArialUnicodeMS-108"/>
     </g>
    </g>
   </g>
  </g>
 </g>
 <defs>
  <clipPath id="p1f0e1d4ab1">
   <rect height="217.44" width="334.8" x="47.56" y="7.2"/>
  </clipPath>
 </defs>
</svg>
